<svg width="10" height="10" viewBox="0 0 10 10" fill="none" xmlns="http://www.w3.org/2000/svg">
<g clip-path="url(#clip0_108_1018)">
<path d="M7.08337 0.833313H2.91671C1.76611 0.833313 0.833374 1.76605 0.833374 2.91665V7.08331C0.833374 8.23391 1.76611 9.16665 2.91671 9.16665H7.08337C8.23397 9.16665 9.16671 8.23391 9.16671 7.08331V2.91665C9.16671 1.76605 8.23397 0.833313 7.08337 0.833313Z" stroke="white" stroke-linecap="round" stroke-linejoin="round"/>
<path d="M6.66663 4.7375C6.71805 5.08427 6.65882 5.43843 6.49736 5.74959C6.3359 6.06076 6.08044 6.31309 5.7673 6.4707C5.45417 6.62831 5.09931 6.68317 4.7532 6.62748C4.40709 6.57178 4.08736 6.40837 3.83948 6.16049C3.59159 5.9126 3.42818 5.59287 3.37249 5.24676C3.31679 4.90065 3.37165 4.54579 3.52926 4.23266C3.68687 3.91953 3.9392 3.66406 4.25037 3.5026C4.56154 3.34115 4.91569 3.28192 5.26246 3.33334C5.61618 3.38579 5.94365 3.55061 6.1965 3.80346C6.44935 4.05632 6.61417 4.38379 6.66663 4.7375Z" stroke="white" stroke-linecap="round" stroke-linejoin="round"/>
<path d="M7.29163 2.70831H7.29579" stroke="white" stroke-linecap="round" stroke-linejoin="round"/>
</g>
<defs>
<clipPath id="clip0_108_1018">
<rect width="10" height="10" fill="white"/>
</clipPath>
</defs>
</svg>
