<?xml version="1.0" encoding="utf-8"?>
<!-- Generator: Adobe Illustrator 16.0.0, SVG Export Plug-In . SVG Version: 6.00 Build 0)  -->
<!DOCTYPE svg PUBLIC "-//W3C//DTD SVG 1.1//EN" "http://www.w3.org/Graphics/SVG/1.1/DTD/svg11.dtd">
<svg version="1.1" xmlns="http://www.w3.org/2000/svg" xmlns:xlink="http://www.w3.org/1999/xlink" x="0px" y="0px"
	 width="106.889px" height="106.244px" viewBox="0 0 106.889 106.244" enable-background="new 0 0 106.889 106.244"
	 xml:space="preserve">
<g id="圖層_1">
</g>
<g id="圖層_2">
	<g>
		<g>
			<g>
				<g>
					<g opacity="0.85">
						<g>
							<path fill="#D67C74" d="M69.013,80.317c0.579-0.313,1.163-0.631,1.746-0.946c-0.36,0.059-0.754,0.051-1.213-0.064
								C69.07,79.337,69.103,79.818,69.013,80.317z"/>
							<path fill="#D67C74" d="M72.314,78.389c0.1-0.066,0.201-0.134,0.294-0.196c0.052-0.107,0.1-0.216,0.136-0.318
								C72.609,78.052,72.463,78.224,72.314,78.389z"/>
							<path fill="#D67C74" d="M74.645,75.817c-0.519,0.325-0.899,0.759-1.237,1.228C73.865,76.826,74.301,76.438,74.645,75.817z"/>
							<path fill="#D67C74" d="M72.289,77.208c0.339,0.101,0.611,0.271,0.464,0.653c-0.002,0.004-0.006,0.006-0.008,0.013
								c0.219-0.274,0.437-0.546,0.663-0.829C73.048,77.189,72.661,77.232,72.289,77.208z"/>
							<path fill="#D67C74" d="M72.289,77.208c-0.33-0.098-0.735-0.116-0.915-0.182C71.668,77.125,71.976,77.188,72.289,77.208z"/>
							<path fill="#D67C74" d="M68.659,71.459c0.061-0.335,1.244,1.173,1.377,0.473c0.296-0.644,0.507-1.279,0.71-1.876
								c0.178-0.624,0.383-1.174,0.769-1.596c0.035-0.616,2.159-0.005,2.174-0.71c0.074-0.345,0.162-0.83,0.123-1.391
								c-0.034-0.558-0.116-1.137-0.237-1.607c-0.242-0.939-0.636-1.467-1.032-0.719c-1.039,2.359-1.783,4.003-3.291,5.936
								c-0.875,1.956-2.037,3.79-3.615,5.541c-0.521,0.347-1.115,0.468-1.69,0.603c0.408-0.035,0.82-0.071,1.246-0.107
								c0.435-0.035,0.878-0.097,1.322-0.221c0.634-0.078,0.955-0.835,1.218-1.701C67.961,73.153,68.127,72.12,68.659,71.459z"/>
							<path fill="#D67C74" d="M55.086,83.211c0.311-0.231,0.938-0.696,0.938-0.696c0.785,0.67,1.576,0.698,2.336,0.572
								c0.38-0.073,0.751-0.207,1.114-0.369c0.359-0.181,0.702-0.421,1.043-0.644c-0.285-0.253-0.574-0.51-0.864-0.768
								c-0.8,0.299-0.823,0.818,0.032,1.091c-1-0.399-1.888-0.63-2.732-0.662c-0.842-0.014-1.664-0.048-2.494,0.116
								C54.583,82.367,54.58,82.971,55.086,83.211z"/>
							<path fill="#D67C74" d="M53.48,82.06c0.329-0.079,0.658-0.149,0.979-0.208c-0.013-0.051-0.026-0.106-0.041-0.164
								c-0.328,0.11-0.654,0.22-0.974,0.327L53.48,82.06z"/>
							<path fill="#D67C74" d="M77.908,69.369c2.306-3.613,3.857-7.387,4.732-11.259c-0.324-0.368-0.721-0.638-0.438-1.001
								c0.376-0.252,0.633-0.535,0.817-0.826c0.122-0.571,0.142-1.153,0.221-1.727c-0.033-0.205-0.075-0.411-0.119-0.619
								c-0.003-0.003-0.004-0.013-0.009-0.018c-0.201-0.331-0.501-0.238-0.794-0.053c-0.214,0.212-0.463,0.4-0.724,0.554
								c0.166-0.098,0.438-0.371,0.724-0.554c0.256-0.258,0.463-0.555,0.59-0.907c-0.139-0.524-0.24-1.063-0.156-1.632
								c0.255,0.615,0.287,1.167,0.156,1.632c0.06,0.331,0.141,0.653,0.214,0.978c0.052,0.096,0.104,0.189,0.159,0.289
								c0.208-1.326,0.159-2.656,0.204-4c-0.055-0.305-0.142-0.59-0.245-0.818c-0.4-0.93-0.792-1.797,0.028-2.576
								c-0.038-0.235-0.078-0.476-0.117-0.716c-0.048,0.057-0.081,0.114-0.134,0.173c0.029-0.116,0.068-0.219,0.109-0.304
								c-0.198-1-0.296-2.043-0.615-3.032c-0.573-0.514-1.231-0.986-1.712-1.505c0,0,0.108-0.167,0.227-0.372
								c0.122-0.21,0.268-0.461,0.364-0.627c-0.56-0.057-1.016-0.273-1.357-0.611c-0.281,0.741-0.653,1.43-0.826,1.975
								c-0.293,0.47,0.239,0.619,0.728,0.832c0.477,0.212,0.872,0.507,0.146,1.155c0.726-0.648,0.331-0.943-0.146-1.155
								c-0.488-0.213-1.021-0.362-0.728-0.832c0.173-0.545,0.544-1.233,0.826-1.975c-0.679-0.719-1.005-1.877-0.745-3.245
								c0.671,0.321,0.988,0.831,1.08,1.399c0.097,0.566-0.108,1.234-0.334,1.846c0.342,0.338,0.798,0.555,1.357,0.611
								c-0.096,0.166-0.242,0.417-0.364,0.627c-0.119,0.205-0.227,0.372-0.227,0.372c0.481,0.519,1.14,0.991,1.712,1.505
								c-0.285-0.971-0.497-1.988-0.909-2.938c-0.381-0.961-0.72-1.965-1.236-2.895c-1.451-3.105-3.482-5.911-5.952-8.24
								c-2.456-2.347-5.299-4.275-8.406-5.738c-6.272-2.783-13.493-3.756-20.885-2.277c-8.028,1.515-15.424,5.674-21.023,11.83
								c-2.792,3.078-4.781,6.797-5.988,10.706c-1.224,3.918-1.677,8.016-1.479,12.08c0.17,4.077,0.897,8.159,2.104,12.255
								c1.243,4.089,2.957,8.176,5.231,12.43c0.225,0.403,0.477,0.818,0.754,1.243c0.285,0.417,0.624,0.813,0.971,1.231
								c0.718,0.811,1.459,1.725,2.401,2.484c0.929,0.771,1.875,1.619,2.96,2.308c1.088,0.681,2.179,1.417,3.357,1.985
								c1.185,0.555,2.355,1.145,3.558,1.574c1.211,0.413,2.394,0.824,3.545,1.139c1.166,0.271,2.284,0.51,3.324,0.722
								c1.043,0.193,2.027,0.271,2.898,0.388c0.61-0.111,1.16-0.251,1.653-0.425c0.495-0.204,0.933-0.431,1.32-0.675
								c0.774-0.49,1.342-1.049,1.753-1.646c0.821-1.192,1.022-2.528,0.983-3.788c-0.114-2.521-1.041-4.744-1.168-4.984
								c-0.477-0.902-0.901-1.632-1.308-2.225c-0.407-0.587-0.786-1.133-1.175-1.527c-0.388-0.407-0.782-0.716-1.196-0.964
								c-0.408-0.276-0.828-0.537-1.279-0.755c-0.915-0.394-1.885-0.939-2.944-1.652c-0.505-0.412-1.011-0.91-1.512-1.475
								c-0.495-0.577-0.912-1.359-1.31-2.172c0.594,1.033,0.626,1.737,0.25,2.042c-0.364,0.297-1.181,0.254-2.089-0.227
								c-0.439-0.26-0.91-0.608-1.368-1.028s-0.824-1.01-1.172-1.595c-0.361-0.573-0.556-1.302-0.678-2.013
								c-0.059-0.359-0.091-0.722-0.093-1.086c0.015-0.377,0.079-0.77,0.167-1.15c0.149-0.568,0.264-1.093,0.342-1.579
								c0.072-0.482,0.191-0.981,0.229-1.419c0.054-0.447,0.054-0.854,0.052-1.254c0.027-0.414,0.019-0.803-0.021-1.175
								c-0.131-0.723-0.153-1.474-0.398-2.151c-0.112-0.345-0.151-0.713-0.269-1.063c-0.087-0.356-0.275-0.695-0.333-1.068
								c-0.168-0.732-0.472-1.464-0.579-2.249c-0.068-0.389-0.195-0.781-0.232-1.179l-0.086-1.199
								c-0.052-0.406-0.016-0.803,0.037-1.195c0.046-0.393,0.092-0.787,0.165-1.172c0.125-0.374,0.261-0.741,0.413-1.098l0.24-0.525
								c0.102-0.166,0.227-0.322,0.345-0.479c0.243-0.309,0.432-0.635,0.587-0.981c0.185-0.335,0.383-0.67,0.543-1.032
								c0.08-0.182,0.161-0.365,0.243-0.551c0.097-0.179,0.212-0.351,0.318-0.529c0.227-0.351,0.42-0.735,0.707-1.072
								c1.808-1.52,3.531-2.797,5.318-3.916c1.785-1.113,3.646-2.058,5.693-2.683c4.05-1.271,9.119-1.201,13.066,1.663
								c0.137,0.08,0.28,0.15,0.423,0.219c0.131,0.086,0.267,0.166,0.405,0.238c0.277,0.147,0.569,0.271,0.875,0.377
								c0.615,0.211,1.184,0.482,1.853,0.662c0.649,0.204,1.244,0.48,1.907,0.718c0.65,0.251,1.202,0.605,1.793,0.945
								c0.367,0.297,0.565,0.723,0.779,1.13c0.186,0.424,0.408,0.826,0.482,1.285c0.2,0.895,0.386,1.709,0.585,2.394
								c0.448,1.028,0.8,2.003,1.341,2.928c0.39,0.956,1.003,1.868,1.413,2.854c-0.168-1.116-0.636-2.013-0.945-2.935
								c-0.21-0.449-0.451-0.893-0.661-1.365c-0.187-0.48-0.47-0.955-0.745-1.478c-0.316-0.707,0.337-0.701,1.21-0.346
								c0.429,0.181,0.95,0.441,1.365,0.746c0.4,0.308,0.755,0.638,0.961,0.894c0.272,0.195-0.057,0.615-0.39,1.008
								c-0.348,0.4-0.741,0.78-0.487,0.98c0.072,0.518,0.383,0.979,0.728,1.473c0.302,0.498,0.678,1.021,0.982,1.615
								c0.452,0.513-1.452,0.465-1.252,0.705c0.168,0.77,0.86,1.502,1.435,2.223c0.519,0.707,0.888,1.39,0.553,1.888
								c-0.361,0.779-0.909,1.408-1.348,2.014c-0.209,0.403-0.383,0.805-0.496,1.259c0.047,0.328,0.095,0.668,0.143,1.007
								c0.633-0.021,1.339,0.138,2.05,0.3c-0.273,0.414-0.864,0.898-1.161,1.274c0.297-0.376,0.888-0.86,1.161-1.274
								c-0.71-0.162-1.417-0.32-2.05-0.3c0.283,2.444-0.081,5.41-1.11,7.986c0.048,0.023,0.104,0.051,0.156,0.076
								c0.824-1.351,1.722-2.486,3.569-3.41c-0.339,0.234-0.635,0.249-0.794,0.122c-0.15-0.122-0.193-0.399-0.073-0.788
								c0.376-0.044,0.755-0.088,1.128-0.132c-0.036,0.385-0.073,0.775-0.139,1.153c-0.078,0.372-0.216,0.714-0.388,1.035
								c-0.363,0.627-0.881,1.167-1.856,1.315c0,0-0.021,0.747-0.031,1.117c-0.49,0.212-0.955-0.175-1.417-0.413
								c-0.156,0.264-0.292,0.551-0.437,0.834c0.569,0.05,1.408-0.172,2.132-0.424C77.319,69.647,77.908,69.369,77.908,69.369z"/>
							<path fill="#D67C74" d="M82.963,52.921c0.054,0.231,0.081,0.517,0.114,0.821l0.104-0.827l0.023-0.831l0.047-1.677
								C82.353,51.073,82.657,51.966,82.963,52.921z"/>
						</g>
					</g>
				</g>
			</g>
		</g>
	</g>
</g>
</svg>
