<svg width="416" height="97" viewBox="0 0 416 97" fill="none" xmlns="http://www.w3.org/2000/svg">
<path d="M137.273 27.6914V31.887H110.252V27.6914H137.273ZM133.953 35.4171V39.4391H115.218V56.1927H111.118V35.4171H133.953ZM125.986 36.4588C125.986 37.5873 125.87 38.8026 125.639 40.0757C125.408 41.3489 125.004 42.622 124.427 43.8952C123.849 45.1683 123.012 46.4125 121.944 47.5989C120.876 48.7852 119.49 49.8848 117.787 50.8686C117.585 50.5214 117.296 50.1452 116.95 49.7401C116.575 49.335 116.199 48.9299 115.795 48.5248C115.391 48.1197 115.016 47.7725 114.64 47.541C116.228 46.7598 117.469 45.9206 118.393 44.9658C119.317 44.0398 119.981 43.056 120.443 42.0433C120.905 41.0306 121.165 40.0468 121.309 39.0919C121.453 38.1371 121.511 37.2401 121.511 36.4299V30.8454H125.986V36.4877V36.4588ZM124.658 40.5097C125.524 41.0884 126.448 41.754 127.458 42.4773C128.468 43.2007 129.421 43.953 130.374 44.6764C131.298 45.4287 132.048 46.0943 132.625 46.7308L129.825 50.1162C129.306 49.4797 128.584 48.7563 127.689 47.975C126.794 47.1938 125.87 46.4125 124.889 45.6024C123.907 44.7922 122.983 44.0977 122.117 43.4611L124.687 40.5097H124.658ZM136.667 51.3605C136.667 52.4311 136.523 53.2991 136.263 53.9357C136.003 54.5723 135.483 55.0642 134.762 55.4114C134.04 55.7008 133.174 55.9033 132.164 55.9901C131.153 56.0769 129.941 56.1059 128.526 56.1059C128.468 55.4693 128.295 54.7459 128.035 53.9357C127.776 53.1255 127.487 52.46 127.198 51.8813C127.776 51.9392 128.382 51.9681 128.988 51.9681C129.594 51.9681 130.172 51.9681 130.691 51.9681C131.211 51.9681 131.557 51.9681 131.731 51.9681C132.019 51.9681 132.221 51.9102 132.337 51.8234C132.452 51.7366 132.51 51.563 132.51 51.3026V35.4461H136.638V51.3894L136.667 51.3605Z" fill="white"/>
<path d="M154.392 26.7936C153.902 28.414 153.295 30.0344 152.603 31.6258C151.91 33.2173 151.159 34.6929 150.322 36.0529C149.514 37.4129 148.676 38.5992 147.839 39.612C147.551 39.3515 147.175 39.0622 146.684 38.715C146.223 38.3677 145.732 38.0494 145.241 37.7601C144.75 37.4418 144.317 37.2103 143.942 37.0078C144.808 36.1397 145.616 35.127 146.396 33.9117C147.175 32.6964 147.868 31.3943 148.474 30.0054C149.081 28.6165 149.6 27.1987 150.004 25.752L154.392 26.8515V26.7936ZM172.406 40.3064V44.6178H144.404V40.3064H172.406ZM169.981 29.8029V34.0274H149.109L151.159 29.8029H169.981ZM160.57 31.7126V56.3076H156.327V31.7126H160.57Z" fill="white"/>
<path d="M182.395 35.2143C182.857 35.359 183.203 35.5037 183.521 35.5905C183.838 35.6773 184.185 35.8509 184.676 35.9956C184.445 37.2687 184.185 38.5708 183.867 39.9597C183.55 41.3196 183.203 42.6796 182.799 43.9817C182.395 45.3127 181.962 46.528 181.471 47.6565C180.98 48.7849 180.461 49.7687 179.912 50.5789C179.739 50.0292 179.479 49.3637 179.133 48.6403C178.786 47.9169 178.44 47.3092 178.151 46.8173C178.613 46.094 179.075 45.2838 179.537 44.3868C179.999 43.4898 180.374 42.506 180.749 41.4643C181.125 40.4227 181.442 39.352 181.731 38.2814C182.02 37.2108 182.251 36.1692 182.395 35.1854V35.2143ZM181.5 32.4654H188.977V36.4006H178.873V32.4654H181.5ZM184.3 25.8103H186.177V56.2792H182.453V25.8103H184.3ZM186.841 38.7155C187.187 39.2942 187.591 39.9307 187.996 40.5963C188.4 41.2618 188.775 41.8983 189.093 42.4771C189.439 43.0558 189.67 43.4609 189.785 43.6923C189.381 44.3289 189.035 44.8208 188.746 45.2259C188.457 45.631 188.111 46.1229 187.707 46.7595C187.534 46.2386 187.274 45.631 186.985 44.9655C186.696 44.271 186.379 43.5766 186.032 42.8821C185.686 42.1877 185.397 41.4932 185.08 40.8567C184.762 40.2201 184.531 39.6703 184.3 39.2363C184.647 38.8891 184.935 38.5997 185.138 38.3972C185.368 38.1657 185.628 37.8763 185.975 37.5291C186.148 37.7606 186.437 38.1657 186.783 38.7444L186.841 38.7155ZM192.99 25.6657C193.538 25.7814 194.029 25.8971 194.404 26.0129C194.809 26.0997 195.184 26.2154 195.588 26.3022C195.963 26.389 196.454 26.5048 197.003 26.6495C196.454 28.6749 195.675 30.6136 194.693 32.4365C193.711 34.2884 192.701 35.8219 191.633 37.0372C191.373 36.8057 191.027 36.5164 190.594 36.227C190.161 35.9377 189.728 35.6194 189.295 35.33C188.862 35.0407 188.457 34.8092 188.111 34.6067C189.237 33.565 190.19 32.2629 191.056 30.6425C191.893 29.0511 192.557 27.3728 192.99 25.6367V25.6657ZM193.048 41.609H207.742V45.5731H189.41V41.609H193.048ZM191.777 35.0696H195.444C195.328 36.4874 195.184 37.9921 195.039 39.5257C194.895 41.0882 194.722 42.6507 194.578 44.1842C194.433 45.7467 194.26 47.1935 194.087 48.6113C193.914 50.0292 193.74 51.2444 193.567 52.3151H189.843C190.016 51.1866 190.218 49.9424 190.42 48.5245C190.623 47.1067 190.796 45.631 190.969 44.0685C191.142 42.506 191.287 40.9724 191.431 39.4388C191.575 37.9053 191.691 36.4585 191.777 35.0696ZM194.924 48.8717H207.568V52.3151H191.835V48.8717H194.924ZM196.05 29.6009H207.107V33.1888H193.336V29.6009H196.05ZM196.136 35.0696H203.44V38.6287H193.596V35.0696H196.136ZM195.444 46.7305C195.848 46.3254 196.194 45.9782 196.483 45.7467C196.772 45.4863 197.089 45.168 197.493 44.7629C197.869 45.0234 198.302 45.3127 198.735 45.631C199.168 45.9493 199.572 46.2386 199.976 46.5569C200.38 46.8463 200.698 47.1356 200.986 47.3961C200.553 47.8301 200.207 48.1773 199.918 48.4956C199.63 48.7849 199.283 49.1611 198.85 49.6241C198.59 49.3637 198.244 49.0743 197.869 48.7271C197.464 48.3798 197.06 48.0326 196.656 47.6854C196.223 47.3382 195.848 47.0199 195.472 46.7595L195.444 46.7305ZM195.992 39.8729C196.367 39.4678 196.714 39.1206 196.974 38.8601C197.233 38.5997 197.58 38.2525 197.984 37.8474C198.359 38.0789 198.764 38.3393 199.168 38.6576C199.601 38.9469 199.976 39.2652 200.38 39.5546C200.755 39.8439 201.073 40.1044 201.333 40.3069C200.929 40.7699 200.582 41.175 200.322 41.4643C200.063 41.7537 199.716 42.1298 199.283 42.5928C199.023 42.3034 198.677 42.0141 198.302 41.6958C197.926 41.3775 197.522 41.0592 197.118 40.7409C196.714 40.4227 196.339 40.1333 195.992 39.9018V39.8729ZM204.566 35.0696H206.385C206.385 35.4458 206.385 35.793 206.385 36.0824C206.385 36.3717 206.385 36.5743 206.385 36.7189C206.269 39.8439 206.125 42.4481 206.01 44.5893C205.894 46.7305 205.75 48.4667 205.605 49.8266C205.461 51.1866 205.288 52.2572 205.115 53.0095C204.941 53.7618 204.71 54.3405 204.451 54.6877C204.104 55.1796 203.729 55.5269 203.325 55.7294C202.921 55.932 202.488 56.0766 201.997 56.1924C201.535 56.2502 201.015 56.2792 200.38 56.3081C199.774 56.3081 199.11 56.3081 198.446 56.2502C198.446 55.8162 198.33 55.3243 198.157 54.7456C197.984 54.1669 197.782 53.675 197.58 53.241C198.1 53.2988 198.619 53.3278 199.081 53.3567C199.543 53.3567 199.918 53.3567 200.178 53.3567C200.409 53.3567 200.611 53.3567 200.784 53.2699C200.929 53.1831 201.073 53.0384 201.217 52.8069C201.391 52.5755 201.535 52.0836 201.708 51.3891C201.881 50.6947 202.026 49.6819 202.141 48.3509C202.257 47.0488 202.372 45.3416 202.488 43.2872C202.603 41.2328 202.69 38.7155 202.776 35.7641V34.9828H204.595L204.566 35.0696Z" fill="white"/>
<path d="M222.118 26.7937C221.685 28.6745 221.166 30.5553 220.588 32.3782C219.982 34.2012 219.318 35.9083 218.596 37.4998C217.875 39.0912 217.095 40.4512 216.287 41.6375C216.027 41.406 215.652 41.1167 215.19 40.7984C214.728 40.4512 214.266 40.1329 213.775 39.8146C213.313 39.4963 212.88 39.2359 212.534 39.0334C213.342 37.9917 214.064 36.7764 214.728 35.3875C215.392 33.9986 215.998 32.465 216.518 30.8447C217.037 29.2243 217.441 27.5461 217.759 25.8967L222.118 26.8227V26.7937ZM227.343 32.0021V36.2556H215.652L217.672 32.0021H227.343ZM223.215 33.9697V56.2499H219.087V33.9697H223.215ZM234.012 26.7069C233.608 28.5877 233.088 30.4106 232.511 32.2336C231.934 34.0565 231.241 35.7637 230.548 37.3551C229.826 38.9465 229.047 40.3065 228.238 41.4929C227.979 41.2614 227.632 40.972 227.199 40.6537C226.766 40.3065 226.304 39.9882 225.871 39.6699C225.438 39.3516 225.034 39.1202 224.716 38.9176C225.525 37.9049 226.246 36.7185 226.91 35.3007C227.574 33.8829 228.181 32.4072 228.671 30.7579C229.191 29.1375 229.595 27.4882 229.884 25.8389L234.012 26.7069ZM242.153 32.0021V36.2556H229.133L231.154 32.0021H242.153ZM238.314 51.244C238.314 52.3725 238.198 53.2406 237.967 53.9061C237.736 54.5716 237.274 55.0635 236.581 55.4107C235.917 55.758 235.109 55.9605 234.128 56.0762C233.146 56.163 232.049 56.2209 230.779 56.2209C230.721 55.5843 230.548 54.832 230.288 53.964C230.028 53.0959 229.768 52.3725 229.48 51.7359C229.999 51.7359 230.519 51.7938 231.039 51.7938C231.558 51.7938 232.049 51.7938 232.482 51.7938C232.915 51.7938 233.204 51.7938 233.377 51.7938C233.637 51.7938 233.839 51.707 233.925 51.6202C234.012 51.5334 234.07 51.3887 234.07 51.1572V33.6225H238.314V51.2151V51.244Z" fill="white"/>
<path d="M251.824 25.5787C252.315 25.7234 252.748 25.8681 253.123 25.9549C253.498 26.0417 253.874 26.1864 254.249 26.2732C254.653 26.3889 255.086 26.5047 255.577 26.6783C254.971 27.8068 254.22 28.9352 253.296 30.0058C252.373 31.0764 251.478 31.9734 250.583 32.6968C250.352 32.4653 250.005 32.2339 249.63 31.9156C249.226 31.6262 248.822 31.3369 248.418 31.0475C248.013 30.7582 247.638 30.5556 247.349 30.382C248.244 29.7744 249.082 29.051 249.89 28.1829C250.698 27.3149 251.333 26.4468 251.795 25.5498L251.824 25.5787ZM252.373 45.9492H276.305V48.0325H247.956V45.9492H252.344H252.373ZM252.084 38.3103H272.956V40.3068H248.244V38.3103H252.113H252.084ZM253.354 33.0151H275.063V35.0116H249.341V33.0151H253.354ZM252.575 48.7559H260.254V55.0349H256.847V50.9261H253.152V55.2663H249.919V48.727H252.604L252.575 48.7559ZM254.307 43.4607H272.638V45.2258H250.929V43.4607H254.278H254.307ZM254.884 35.7929H272.84V37.5579H251.564V35.7929H254.884ZM253.556 52.2281H258.348V54.4272H251.853V52.2281H253.527H253.556ZM254.509 27.7778H261.697V30.3531H251.997V27.7778H254.509ZM256.443 41.0591H270.935V42.7374H252.921V41.0591H256.472H256.443ZM253.354 29.8612C254.047 29.6586 254.595 29.5139 255.028 29.3982C255.462 29.2825 256.01 29.1378 256.703 28.9063C257.02 29.3403 257.338 29.8322 257.656 30.3531C257.973 30.9028 258.204 31.3658 258.348 31.7998C257.627 32.0024 257.049 32.176 256.587 32.3207C256.125 32.4364 255.519 32.61 254.826 32.8415C254.711 32.4364 254.538 31.9445 254.249 31.3947C253.96 30.845 253.701 30.3241 253.412 29.8322L253.354 29.8612ZM261.899 41.6378H263.805V44.7628H259.994V41.6378H261.899ZM264.699 25.5787C265.219 25.6945 265.681 25.8392 266.085 25.926L267.211 26.2443C267.586 26.36 268.048 26.4757 268.597 26.6204C268.048 27.7489 267.298 28.8484 266.403 29.919C265.508 30.9607 264.613 31.8288 263.747 32.5232C263.458 32.3207 263.112 32.0602 262.679 31.8288C262.246 31.5683 261.813 31.3079 261.38 31.0764C260.947 30.845 260.571 30.6424 260.196 30.4688C261.177 29.8901 262.044 29.1667 262.823 28.2987C263.631 27.4306 264.238 26.5336 264.699 25.5787ZM261.611 31.742H264.18V36.8346H260.196V31.742H261.611ZM263.92 49.2189H275.785V51.4758H261.004V49.2189H263.92ZM261.755 52.7779C262.275 52.4307 262.708 52.1413 263.025 51.9388C263.372 51.7362 263.805 51.4469 264.382 51.0997C264.844 51.4758 265.306 51.9098 265.768 52.4017C266.23 52.8936 266.605 53.3566 266.836 53.7617C266.287 54.1089 265.825 54.3983 265.45 54.6587C265.075 54.8902 264.613 55.2085 264.064 55.5846C263.833 55.1795 263.516 54.7166 263.083 54.1668C262.65 53.617 262.217 53.183 261.755 52.7779ZM267.731 27.8068H276.507V30.382H264.671V27.8068H267.702H267.731ZM270.387 47.6564H272.985V53.0673C272.985 53.8485 272.869 54.4561 272.667 54.8612C272.465 55.2663 272.09 55.5557 271.541 55.7872C270.993 56.0476 270.358 56.1923 269.694 56.2501C269.03 56.308 268.25 56.3369 267.442 56.3369C267.269 55.845 267.067 55.3242 266.778 54.7455C266.489 54.1957 266.23 53.7328 265.97 53.3855C266.46 53.3855 266.98 53.4145 267.471 53.4145C267.962 53.4145 268.337 53.4145 268.481 53.3855C268.654 53.3855 268.799 53.3566 268.885 53.2987C268.972 53.2409 269.001 53.1251 269.001 52.9515V47.6564H270.387ZM267.009 29.8612C267.673 29.6875 268.25 29.5429 268.683 29.3982C269.116 29.2825 269.665 29.1088 270.358 28.9352C270.704 29.3403 271.079 29.8033 271.484 30.3531C271.888 30.9028 272.148 31.3658 272.35 31.7998C271.657 32.0024 271.079 32.147 270.589 32.2917C270.098 32.4364 269.521 32.5811 268.828 32.7836C268.683 32.4075 268.424 31.9156 268.077 31.3658C267.731 30.816 267.384 30.2952 267.038 29.8612H267.009ZM272.869 38.3392L273.476 38.2235C274.024 38.3392 274.515 38.4549 274.89 38.5417C275.294 38.6286 275.785 38.7154 276.362 38.86C276.189 39.5834 276.016 40.3647 275.814 41.1459C275.612 41.9272 275.41 42.6506 275.208 43.2293C274.515 43.0846 273.937 42.9399 273.476 42.8242C273.014 42.7084 272.465 42.5638 271.772 42.3901C271.888 41.8982 271.974 41.3195 272.061 40.654C272.148 39.9885 272.234 39.3809 272.292 38.7732V38.3681H272.84L272.869 38.3392Z" fill="white"/>
<path d="M291.288 27.0256C290.71 28.9064 290.017 30.8161 289.238 32.7548C288.458 34.6934 287.563 36.5163 286.611 38.2525C285.658 39.9886 284.648 41.5221 283.58 42.8242C283.493 42.4481 283.349 41.9851 283.089 41.3775C282.858 40.7988 282.598 40.1911 282.338 39.5835C282.078 38.9758 281.847 38.4839 281.617 38.1367C282.425 37.124 283.175 35.9666 283.926 34.6645C284.677 33.3624 285.341 31.9446 285.976 30.4399C286.611 28.9353 287.102 27.4017 287.535 25.8682L291.288 27.0256ZM288.978 30.9608L289.065 31.0186V56.2502H285.081V35.0117L288.978 30.9608ZM298.187 36.9793C297.379 38.6576 296.311 40.249 295.04 41.7826C293.77 43.3161 292.413 44.5604 291.028 45.5442C290.883 45.2548 290.681 44.9076 290.421 44.4446C290.162 43.9817 289.873 43.5476 289.584 43.1136C289.296 42.6796 289.007 42.3034 288.776 42.043C289.96 41.3485 291.057 40.4226 292.125 39.3231C293.164 38.2235 294.001 37.0372 294.636 35.793L298.245 36.9793H298.187ZM310.947 33.8832V37.7895H290.133V33.8832H310.947ZM310.283 28.2698V32.1471H291.085V28.2698H310.283ZM308.176 39.2363V42.6506H296.484V56.2502H292.529V39.2363H308.176ZM299.313 25.955V35.6483H295.416V25.955H299.313ZM308.06 43.8948V46.9041H295.56V43.8948H308.06ZM308.06 48.4087V51.418H295.56V48.4087H308.06ZM303.095 40.4805V55.6426H299.428V40.4805H303.095ZM306.588 25.955V35.6483H302.691V25.955H306.588ZM310.023 52.5465C310.023 53.3567 309.937 53.9933 309.763 54.4852C309.59 54.9481 309.244 55.3243 308.724 55.6136C308.262 55.8741 307.685 56.0187 307.021 56.0766C306.357 56.1345 305.606 56.1634 304.798 56.1634C304.711 55.6715 304.567 55.1217 304.336 54.5141C304.134 53.9065 303.903 53.3856 303.672 52.9516C304.047 52.9516 304.452 52.9805 304.885 52.9805H305.722C306.011 52.9805 306.155 52.8358 306.155 52.5176V39.2363H310.023V52.5465Z" fill="white"/>
<path d="M330.982 34.5201C330.289 35.446 329.51 36.3141 328.644 37.1532C327.749 37.9923 326.796 38.7446 325.757 39.4391C324.717 40.1335 323.62 40.7412 322.495 41.262C321.369 41.8118 320.214 42.2458 319.001 42.6219C318.742 42.13 318.366 41.5513 317.876 40.9148C317.385 40.2782 316.952 39.7574 316.519 39.3523C317.645 39.0629 318.77 38.7157 319.867 38.3106C320.964 37.9055 322.004 37.4136 322.985 36.8928C323.967 36.343 324.862 35.7643 325.641 35.1277C326.45 34.4911 327.114 33.8256 327.691 33.1312L330.953 34.5201H330.982ZM345.416 43.1138V46.7018H317.125V43.1138H345.416ZM344.925 32.2342V35.7643H317.414V32.2342H344.925ZM339.585 45.6023C338.805 47.512 337.824 49.1034 336.611 50.3766C335.428 51.6498 333.984 52.6914 332.339 53.4437C330.693 54.1961 328.788 54.8326 326.594 55.2377C324.4 55.6718 321.917 56.019 319.117 56.2794C319.001 55.6428 318.77 55.0062 318.482 54.3118C318.193 53.6174 317.876 53.0387 317.529 52.5757C320.849 52.431 323.707 52.1127 326.103 51.6208C328.47 51.1289 330.462 50.3477 332.021 49.2481C333.58 48.1486 334.764 46.5861 335.572 44.5606L339.585 45.6023ZM342.385 28.8198C340.855 29.1381 339.209 29.4275 337.42 29.6589C335.63 29.9194 333.782 30.093 331.877 30.2666C329.972 30.4113 328.037 30.527 326.132 30.5849C324.198 30.6427 322.35 30.6717 320.531 30.6717C320.503 30.2087 320.387 29.6589 320.214 29.0224C320.041 28.3858 319.867 27.836 319.694 27.402C321.455 27.402 323.245 27.3731 325.064 27.2862C326.911 27.1994 328.701 27.1126 330.462 26.968C332.223 26.8522 333.898 26.6786 335.428 26.4761C336.987 26.2735 338.315 26.042 339.469 25.8105L342.414 28.7619L342.385 28.8198ZM320.878 50.0294C321.657 49.1613 322.466 48.1775 323.303 47.1069C324.14 46.0074 324.948 44.8789 325.699 43.6926C326.478 42.5351 327.114 41.3777 327.662 40.3071L331.819 41.4067C331.271 42.4483 330.664 43.49 329.972 44.5606C329.279 45.6312 328.557 46.644 327.835 47.5988C327.114 48.5537 326.45 49.3639 325.843 50.0583H320.878V50.0294ZM323.88 47.2516C325.814 47.6567 327.749 48.0907 329.712 48.5826C331.675 49.0456 333.58 49.5375 335.428 50.0583C337.275 50.5502 339.007 51.0421 340.653 51.534C342.27 52.0259 343.713 52.4599 345.012 52.894L341.432 55.9901C339.902 55.3535 338.084 54.7169 335.918 53.9935C333.753 53.2701 331.386 52.6046 328.846 51.9102C326.305 51.2157 323.649 50.5791 320.907 50.0004L323.909 47.2227L323.88 47.2516ZM333.234 28.8198V41.0016H329.163V28.8198H333.234ZM334.562 33.1601C335.312 34.0282 336.294 34.8673 337.477 35.6485C338.661 36.4298 339.96 37.0953 341.404 37.674C342.847 38.2527 344.348 38.7157 345.878 39.0629C345.589 39.3523 345.272 39.6995 344.925 40.1046C344.579 40.5097 344.262 40.9437 343.973 41.3777C343.684 41.8118 343.453 42.2168 343.251 42.5641C342.067 42.1879 340.884 41.7539 339.758 41.2331C338.632 40.7122 337.535 40.1046 336.496 39.3812C335.457 38.6867 334.504 37.9344 333.638 37.0953C332.772 36.2851 331.963 35.4171 331.271 34.4911L334.533 33.1312L334.562 33.1601Z" fill="white"/>
<path d="M364.008 52.4599C363.199 52.9518 362.218 53.4437 361.121 53.9356C360.024 54.4275 358.898 54.8615 357.714 55.2666C356.559 55.6717 355.434 55.99 354.365 56.2794C354.134 55.99 353.846 55.6428 353.471 55.2956C353.095 54.9194 352.72 54.5722 352.345 54.1671C351.969 53.7909 351.594 53.4726 351.248 53.2122C352.345 52.9807 353.471 52.6624 354.625 52.2863C355.78 51.9101 356.877 51.4761 357.887 51.0421C358.898 50.5791 359.735 50.174 360.37 49.7978L363.979 52.4599H364.008ZM377.287 36.1404V50.5791H354.394V36.1404H377.287ZM376.219 26.8232V35.1277H355.809V26.8232H376.219ZM358.465 40.1335H373.015V39.0339H358.465V40.1335ZM358.465 43.8951H373.015V42.7955H358.465V43.8951ZM358.465 47.6856H373.015V46.586H358.465V47.6856ZM359.908 31.8001H371.86V30.0929H359.908V31.8001ZM370.561 49.9136C371.687 50.2029 372.841 50.5502 374.054 50.9553C375.266 51.3604 376.45 51.7654 377.576 52.1705C378.702 52.5756 379.712 52.9807 380.578 53.299L376.97 56.3083C376.161 55.9321 375.18 55.4981 374.025 55.0351C372.87 54.5722 371.687 54.1381 370.445 53.7041C369.204 53.2701 368.049 52.8939 366.923 52.5756L370.532 49.8557L370.561 49.9136Z" fill="white"/>
<path d="M400.238 29.1375C399.343 30.0345 398.188 30.9604 396.831 31.8574C395.474 32.7833 394.002 33.6225 392.443 34.4326C390.884 35.2428 389.297 35.9083 387.68 36.4871C387.449 36.0241 387.131 35.4454 386.727 34.7509C386.323 34.0565 385.919 33.5067 385.544 33.1016C387.218 32.5808 388.835 31.9442 390.422 31.163C392.01 30.3817 393.483 29.5426 394.81 28.6167C396.138 27.6907 397.235 26.7648 398.073 25.8389H401.97C403.154 26.9673 404.453 27.9511 405.896 28.8771C407.339 29.7741 408.841 30.5553 410.428 31.2208C412.016 31.8863 413.604 32.4072 415.192 32.8123C414.759 33.3042 414.326 33.8829 413.922 34.5484C413.488 35.2139 413.142 35.8215 412.853 36.4002C411.785 36.0241 410.659 35.5611 409.505 35.0403C408.35 34.5195 407.195 33.9407 406.04 33.2752C404.886 32.6097 403.817 31.9442 402.807 31.2498C401.797 30.5264 400.931 29.8319 400.18 29.1664L400.238 29.1375ZM411.352 35.185V44.1838H389.556V35.185H411.352ZM409.736 45.0808V56.163H405.492V47.8297H395.244V56.2788H391.202V45.1098H409.736V45.0808ZM392.934 41.6086H407.715V37.7602H392.934V41.6086ZM407.224 48.9003V51.6491H393.511V48.9003H407.224ZM407.224 52.7487V55.4975H393.511V52.7487H407.224ZM396.6 37.6734C396.86 38.2232 397.062 38.8019 397.235 39.4385C397.409 40.075 397.524 40.6248 397.582 41.0878L394.637 41.9558C394.608 41.4929 394.493 40.9431 394.32 40.2776C394.147 39.6121 393.973 39.0044 393.771 38.4547L396.571 37.6734H396.6ZM405.867 31.4812V34.2301H394.897V31.4812H405.867ZM401.883 36.053V42.8817H398.592V36.053H401.883ZM407.137 38.3389C406.791 39.0334 406.473 39.6989 406.185 40.3354C405.896 40.972 405.636 41.5218 405.376 41.9558L402.634 41.1746C402.807 40.6248 403.038 40.0172 403.269 39.3516C403.5 38.6861 403.673 38.0785 403.789 37.5287L407.137 38.3389Z" fill="white"/>
<path d="M110.743 83.2473V70.9209H114.063L115.939 76.1582C116.055 76.5054 116.17 76.8526 116.286 77.2288C116.401 77.6049 116.488 77.9811 116.603 78.3573H116.69C116.805 77.9811 116.921 77.6049 117.008 77.2288C117.094 76.8526 117.21 76.5054 117.325 76.1582L119.173 70.9209H122.464V83.2473H119.692V79.2543C119.692 78.8492 119.692 78.3573 119.75 77.7786C119.808 77.1999 119.837 76.6501 119.923 76.0714C120.01 75.4927 120.039 75.0008 120.096 74.5957H120.039L119.028 77.8943L117.412 82.2346H115.708L114.092 77.8943L113.11 74.5957H113.053C113.11 75.0008 113.168 75.4927 113.226 76.0714C113.283 76.6501 113.341 77.2288 113.37 77.7786C113.399 78.3283 113.428 78.8492 113.428 79.2543V83.2473H110.714H110.743Z" fill="white"/>
<path d="M129.912 83.4779C128.988 83.4779 128.18 83.2754 127.458 82.8992C126.736 82.523 126.159 81.9443 125.726 81.192C125.293 80.4397 125.091 79.5716 125.091 78.53C125.091 77.7487 125.206 77.0832 125.466 76.4756C125.726 75.8679 126.043 75.3471 126.476 74.9131C126.909 74.479 127.4 74.1607 127.92 73.9293C128.468 73.6978 129.017 73.582 129.565 73.582C130.489 73.582 131.24 73.7846 131.846 74.1897C132.452 74.5948 132.885 75.1445 133.174 75.81C133.463 76.5045 133.607 77.2568 133.607 78.1249C133.607 78.4142 133.607 78.6746 133.578 78.9061C133.549 79.1376 133.52 79.3401 133.492 79.4559H127.458V77.4015H131.009C131.009 76.9675 130.922 76.6202 130.72 76.3309C130.518 76.0415 130.172 75.8969 129.652 75.8969C129.363 75.8969 129.103 75.9837 128.815 76.1283C128.526 76.273 128.324 76.5624 128.151 76.9385C127.978 77.3147 127.92 77.8355 127.92 78.53C127.92 79.2244 128.064 79.7742 128.295 80.1503C128.526 80.5265 128.815 80.7869 129.19 80.9316C129.565 81.0763 129.912 81.1631 130.316 81.1631C130.662 81.1631 131.009 81.1052 131.326 80.9895C131.644 80.8737 131.99 80.729 132.308 80.5554L133.289 82.3784C132.799 82.7256 132.25 82.986 131.644 83.1885C131.038 83.3911 130.46 83.4779 129.912 83.4779Z" fill="white"/>
<path d="M137.533 72.5697C137.042 72.5697 136.638 72.425 136.321 72.1357C136.003 71.8463 135.83 71.4702 135.83 71.0072C135.83 70.5442 136.003 70.1391 136.321 69.8787C136.638 69.6183 137.042 69.4736 137.533 69.4736C138.024 69.4736 138.457 69.6183 138.774 69.8787C139.092 70.1681 139.265 70.5442 139.265 71.0072C139.265 71.4702 139.121 71.8463 138.774 72.1357C138.457 72.425 138.053 72.5697 137.533 72.5697ZM136.003 83.2758V73.8429H139.063V83.2758H136.003Z" fill="white"/>
<path d="M146.194 83.4779C145.27 83.4779 144.462 83.2754 143.74 82.8992C143.018 82.523 142.441 81.9443 142.037 81.192C141.633 80.4397 141.402 79.5716 141.402 78.53C141.402 77.4883 141.632 76.5913 142.094 75.839C142.556 75.1156 143.163 74.5369 143.942 74.1607C144.693 73.7846 145.53 73.582 146.396 73.582C146.973 73.582 147.493 73.6688 147.955 73.8424C148.417 74.0161 148.821 74.2475 149.138 74.5658L147.724 76.4466C147.579 76.3309 147.406 76.2151 147.204 76.1573C147.031 76.0705 146.8 76.0415 146.569 76.0415C146.165 76.0415 145.79 76.1283 145.501 76.3309C145.183 76.5334 144.952 76.8228 144.779 77.1989C144.606 77.5751 144.519 78.0091 144.519 78.53C144.519 79.0508 144.606 79.4559 144.779 79.8321C144.952 80.2082 145.183 80.4976 145.472 80.7001C145.761 80.9027 146.107 81.0184 146.454 81.0184C146.742 81.0184 147.031 80.9605 147.291 80.8737C147.551 80.7869 147.782 80.6422 148.012 80.4686L149.196 82.3494C148.821 82.6966 148.359 82.986 147.81 83.1885C147.262 83.3911 146.713 83.4779 146.136 83.4779H146.194Z" fill="white"/>
<path d="M151.361 83.2469V70.0234H154.421V73.1774L154.277 74.8267C154.623 74.5373 154.999 74.248 155.489 73.9876C155.951 73.7272 156.5 73.5825 157.135 73.5825C158.174 73.5825 158.925 73.9297 159.387 74.6241C159.849 75.3186 160.08 76.2445 160.08 77.4019V83.2469H157.019V77.807C157.019 77.1704 156.933 76.7364 156.76 76.5049C156.586 76.2735 156.327 76.1577 155.98 76.1577C155.663 76.1577 155.374 76.2156 155.172 76.3603C154.941 76.5049 154.71 76.6786 154.45 76.939V83.2179H151.39L151.361 83.2469Z" fill="white"/>
<path d="M165.68 83.4785C164.641 83.4785 163.89 83.1313 163.399 82.4368C162.938 81.7424 162.707 80.8164 162.707 79.6301V73.7852H165.767V79.225C165.767 79.8616 165.853 80.2667 166.027 80.4981C166.2 80.7296 166.46 80.8454 166.806 80.8454C167.124 80.8454 167.412 80.7875 167.614 80.6428C167.816 80.4981 168.076 80.2667 168.307 79.9194V73.7852H171.338V83.2181H168.856L168.625 81.9449H168.567C168.192 82.4079 167.759 82.7551 167.297 83.0444C166.835 83.3338 166.286 83.4495 165.651 83.4495L165.68 83.4785Z" fill="white"/>
<path d="M175.091 76.9393L174.427 75.6083C175.005 75.3479 175.467 75.0007 175.755 74.6245C176.044 74.2484 176.188 73.7565 176.188 73.1778L176.13 71.4416L177.083 72.7727C176.939 72.8884 176.766 72.9752 176.592 73.062C176.39 73.1488 176.217 73.1778 176.015 73.1778C175.582 73.1778 175.207 73.0331 174.918 72.7727C174.629 72.5122 174.456 72.1361 174.456 71.702C174.456 71.1812 174.6 70.7761 174.889 70.4868C175.178 70.1974 175.553 70.0527 176.015 70.0527C176.65 70.0527 177.112 70.2842 177.458 70.7472C177.776 71.2102 177.949 71.8467 177.949 72.6858C177.949 73.6118 177.718 74.422 177.228 75.1454C176.766 75.8687 176.044 76.4474 175.062 76.9104L175.091 76.9393Z" fill="white"/>
<path d="M180.201 83.2465V81.3657C181.183 80.5265 182.049 79.7453 182.799 78.993C183.55 78.2407 184.185 77.5462 184.618 76.8807C185.051 76.2152 185.282 75.6365 185.282 75.0867C185.282 74.7106 185.224 74.3923 185.08 74.1608C184.935 73.9293 184.762 73.7268 184.531 73.611C184.3 73.4953 184.012 73.4085 183.723 73.4085C183.319 73.4085 182.944 73.5242 182.626 73.7557C182.308 73.9872 181.991 74.2765 181.702 74.5659L180.143 73.0034C180.721 72.3379 181.327 71.817 181.962 71.4987C182.597 71.1804 183.319 71.0068 184.185 71.0068C184.993 71.0068 185.686 71.1804 186.292 71.4987C186.899 71.817 187.389 72.2511 187.707 72.8298C188.024 73.4085 188.226 74.074 188.226 74.8552C188.226 75.5786 188.024 76.2731 187.649 76.9386C187.274 77.6041 186.783 78.2696 186.206 78.9062C185.628 79.5427 184.993 80.1793 184.329 80.8159C184.618 80.787 184.964 80.758 185.34 80.7291C185.715 80.7002 186.061 80.6712 186.321 80.6712H188.775V83.2465H180.172H180.201Z" fill="white"/>
<path d="M195.559 83.4786C194.982 83.4786 194.404 83.3628 193.856 83.1313C193.307 82.8999 192.817 82.5526 192.355 82.0607C191.922 81.5688 191.575 80.9612 191.287 80.1799C191.027 79.4276 190.882 78.5017 190.882 77.4311C190.882 76.3605 191.027 75.3767 191.287 74.5665C191.546 73.7563 191.922 73.0908 192.384 72.541C192.845 72.0202 193.365 71.6151 193.971 71.3547C194.578 71.0943 195.184 70.9785 195.819 70.9785C196.627 70.9785 197.349 71.1232 197.984 71.4125C198.59 71.7019 199.081 72.0491 199.485 72.4542L197.869 74.2771C197.667 74.0457 197.407 73.8721 197.06 73.6984C196.714 73.5248 196.367 73.438 196.021 73.438C195.588 73.438 195.184 73.5538 194.837 73.8142C194.491 74.0457 194.202 74.4797 194 75.0584C193.798 75.6371 193.683 76.4473 193.683 77.4311C193.683 78.4149 193.769 79.1961 193.942 79.7459C194.116 80.2957 194.347 80.6429 194.606 80.8455C194.866 81.048 195.155 81.1348 195.444 81.1348C195.675 81.1348 195.906 81.0769 196.136 80.9612C196.339 80.8454 196.512 80.6429 196.656 80.4114C196.772 80.151 196.858 79.8038 196.858 79.3698C196.858 78.9647 196.8 78.6464 196.656 78.4438C196.541 78.2123 196.367 78.0677 196.136 77.9519C195.906 77.8651 195.675 77.8072 195.415 77.8072C195.126 77.8072 194.837 77.894 194.52 78.0677C194.202 78.2413 193.942 78.5596 193.712 78.9936L193.567 77.0549C193.885 76.6209 194.26 76.2737 194.751 76.0133C195.242 75.7528 195.646 75.6371 196.021 75.6371C196.685 75.6371 197.32 75.7818 197.84 76.0422C198.388 76.3026 198.821 76.7077 199.139 77.2575C199.456 77.8072 199.63 78.5017 199.63 79.3698C199.63 80.2378 199.428 80.9612 199.081 81.5688C198.706 82.1765 198.215 82.6394 197.609 82.9577C197.003 83.276 196.31 83.4496 195.559 83.4496V83.4786Z" fill="white"/>
<path d="M206.587 83.2473V70.9209H210.975C211.87 70.9209 212.707 71.0366 213.458 71.297C214.208 71.5575 214.814 71.9626 215.248 72.5702C215.709 73.1489 215.911 73.9591 215.911 75.0008C215.911 76.0424 215.681 76.7948 215.248 77.4024C214.814 78.01 214.208 78.5019 213.458 78.7913C212.707 79.0806 211.899 79.2543 211.033 79.2543H209.647V83.2763H206.587V83.2473ZM209.647 76.8237H210.888C211.581 76.8237 212.101 76.6501 212.418 76.3318C212.765 76.0135 212.909 75.5505 212.909 74.9718C212.909 74.3931 212.736 73.9591 212.361 73.7276C211.985 73.4961 211.466 73.3804 210.802 73.3804H209.647V76.8237Z" fill="white"/>
<path d="M218.279 83.2464V73.8135H220.761L220.992 75.4339H221.05C221.397 74.7973 221.801 74.3343 222.291 74.045C222.782 73.7556 223.244 73.582 223.706 73.582C223.995 73.582 224.226 73.582 224.399 73.6399C224.572 73.6978 224.716 73.7267 224.861 73.7846L224.283 76.3888C224.11 76.3309 223.966 76.3019 223.821 76.3019C223.677 76.3019 223.533 76.3019 223.331 76.3019C222.984 76.3019 222.609 76.4177 222.234 76.6781C221.858 76.9096 221.541 77.3436 221.31 77.9513V83.3043H218.25L218.279 83.2464Z" fill="white"/>
<path d="M230.721 83.4779C229.797 83.4779 228.989 83.2754 228.267 82.8992C227.546 82.523 226.968 81.9443 226.535 81.192C226.102 80.4397 225.9 79.5716 225.9 78.53C225.9 77.7487 226.016 77.0832 226.275 76.4756C226.535 75.8679 226.853 75.3471 227.286 74.9131C227.719 74.479 228.21 74.1607 228.729 73.9293C229.278 73.6978 229.826 73.582 230.375 73.582C231.299 73.582 232.049 73.7846 232.655 74.1897C233.262 74.5948 233.695 75.1445 233.983 75.81C234.272 76.5045 234.416 77.2568 234.416 78.1249C234.416 78.4142 234.416 78.6746 234.387 78.9061C234.359 79.1376 234.33 79.3401 234.301 79.4559H228.267V77.4015H231.818C231.818 76.9675 231.732 76.6202 231.529 76.3309C231.327 76.0415 230.981 75.8969 230.461 75.8969C230.173 75.8969 229.913 75.9837 229.624 76.1283C229.335 76.273 229.133 76.5624 228.96 76.9385C228.787 77.3147 228.729 77.8355 228.729 78.53C228.729 79.2244 228.874 79.7742 229.104 80.1503C229.335 80.5265 229.624 80.7869 229.999 80.9316C230.375 81.0763 230.721 81.1631 231.125 81.1631C231.472 81.1631 231.818 81.1052 232.136 80.9895C232.453 80.8737 232.8 80.729 233.117 80.5554L234.099 82.3784C233.608 82.7256 233.059 82.986 232.453 83.1885C231.847 83.3911 231.27 83.4779 230.721 83.4779Z" fill="white"/>
<path d="M236.841 86.6318V73.8135H239.324L239.555 74.7105H239.613C239.959 74.3922 240.363 74.1318 240.825 73.9003C241.287 73.6978 241.749 73.582 242.211 73.582C242.961 73.582 243.597 73.7846 244.145 74.1607C244.694 74.5369 245.127 75.1156 245.415 75.839C245.704 76.5624 245.877 77.4015 245.877 78.3853C245.877 79.4559 245.704 80.3818 245.329 81.1341C244.953 81.8865 244.463 82.4652 243.856 82.8703C243.25 83.2753 242.615 83.4779 241.951 83.4779C241.547 83.4779 241.172 83.3911 240.796 83.2175C240.421 83.0439 240.103 82.8124 239.757 82.4941L239.872 83.9409V86.6029H236.812L236.841 86.6318ZM241.229 80.9605C241.518 80.9605 241.749 80.8737 242.009 80.7001C242.24 80.5265 242.442 80.2661 242.557 79.8899C242.702 79.5138 242.759 79.0219 242.759 78.4142C242.759 77.8934 242.702 77.4304 242.615 77.0832C242.528 76.736 242.355 76.4756 242.124 76.3309C241.922 76.1573 241.633 76.0994 241.316 76.0994C241.056 76.0994 240.796 76.1573 240.565 76.273C240.334 76.3888 240.103 76.5624 239.901 76.8517V80.4976C240.103 80.6712 240.334 80.8159 240.565 80.8737C240.796 80.9316 241.027 80.9895 241.229 80.9895V80.9605Z" fill="white"/>
<path d="M250.438 83.4779C249.832 83.4779 249.341 83.3332 248.908 83.0728C248.475 82.8124 248.158 82.4652 247.927 82.0311C247.696 81.5971 247.58 81.1052 247.58 80.5844C247.58 79.6006 247.985 78.8193 248.822 78.2695C249.659 77.7198 250.987 77.3436 252.806 77.1411C252.806 76.9096 252.719 76.6781 252.604 76.5334C252.488 76.3598 252.344 76.2441 252.142 76.1573C251.94 76.0705 251.68 76.0126 251.391 76.0126C251.045 76.0126 250.669 76.0705 250.265 76.2151C249.861 76.3598 249.457 76.5334 248.966 76.7938L247.869 74.8262C248.302 74.5658 248.735 74.3633 249.168 74.1607C249.601 73.9871 250.063 73.8424 250.525 73.7267C250.987 73.611 251.478 73.582 251.968 73.582C252.777 73.582 253.47 73.7267 254.047 74.045C254.624 74.3633 255.057 74.8263 255.346 75.4628C255.664 76.0994 255.808 76.9385 255.808 77.9223V83.2175H253.325L253.094 82.2916H253.037C252.661 82.6388 252.228 82.8992 251.795 83.1307C251.362 83.3622 250.9 83.449 250.381 83.449L250.438 83.4779ZM251.478 81.1052C251.766 81.1052 251.997 81.0473 252.199 80.9027C252.401 80.758 252.604 80.6133 252.806 80.3818V78.964C252.228 79.0508 251.766 79.1376 251.42 79.2823C251.073 79.427 250.843 79.5716 250.698 79.7452C250.554 79.9189 250.496 80.1214 250.496 80.324C250.496 80.5844 250.583 80.758 250.756 80.8737C250.929 80.9895 251.16 81.0763 251.449 81.0763L251.478 81.1052Z" fill="white"/>
<path d="M258.608 83.2464V73.8135H261.091L261.322 75.4339H261.38C261.726 74.7973 262.13 74.3343 262.621 74.045C263.112 73.7556 263.574 73.582 264.036 73.582C264.324 73.582 264.555 73.582 264.728 73.6399C264.902 73.6978 265.046 73.7267 265.19 73.7846L264.613 76.3888C264.44 76.3309 264.295 76.3019 264.151 76.3019C264.007 76.3019 263.862 76.3019 263.66 76.3019C263.314 76.3019 262.939 76.4177 262.563 76.6781C262.188 76.9096 261.87 77.3436 261.639 77.9513V83.3043H258.579L258.608 83.2464Z" fill="white"/>
<path d="M268.943 83.4779C268.337 83.4779 267.846 83.3332 267.413 83.0728C266.98 82.8124 266.663 82.4652 266.432 82.0311C266.201 81.5971 266.085 81.1052 266.085 80.5844C266.085 79.6006 266.489 78.8193 267.326 78.2695C268.164 77.7198 269.492 77.3436 271.31 77.1411C271.31 76.9096 271.224 76.6781 271.108 76.5334C270.993 76.3598 270.848 76.2441 270.646 76.1573C270.444 76.0705 270.184 76.0126 269.896 76.0126C269.549 76.0126 269.174 76.0705 268.77 76.2151C268.366 76.3598 267.962 76.5334 267.471 76.7938L266.374 74.8262C266.807 74.5658 267.24 74.3633 267.673 74.1607C268.106 73.9871 268.568 73.8424 269.03 73.7267C269.492 73.611 269.982 73.582 270.473 73.582C271.281 73.582 271.974 73.7267 272.552 74.045C273.129 74.3633 273.562 74.8263 273.851 75.4628C274.168 76.0994 274.313 76.9385 274.313 77.9223V83.2175H271.83L271.599 82.2916H271.541C271.166 82.6388 270.733 82.8992 270.3 83.1307C269.867 83.3622 269.405 83.449 268.885 83.449L268.943 83.4779ZM269.982 81.1052C270.271 81.1052 270.502 81.0473 270.704 80.9027C270.906 80.758 271.108 80.6133 271.31 80.3818V78.964C270.733 79.0508 270.271 79.1376 269.925 79.2823C269.578 79.427 269.347 79.5716 269.203 79.7452C269.059 79.9189 269.001 80.1214 269.001 80.324C269.001 80.5844 269.087 80.758 269.261 80.8737C269.434 80.9895 269.665 81.0763 269.954 81.0763L269.982 81.1052Z" fill="white"/>
<path d="M280.722 83.4782C279.913 83.4782 279.278 83.3335 278.759 82.9863C278.268 82.668 277.892 82.234 277.662 81.6553C277.431 81.0766 277.315 80.44 277.315 79.6877V76.1865H276.045V73.9006L277.488 73.8138L277.835 70.9492H280.375V73.8138H282.569V76.2154H280.375V79.6587C280.375 80.1796 280.491 80.5268 280.722 80.7583C280.953 80.9898 281.212 81.0766 281.53 81.0766C281.674 81.0766 281.847 81.0766 281.992 81.0766C282.136 81.0766 282.281 81.0187 282.396 80.9898L282.858 83.131C282.627 83.2178 282.309 83.3046 281.934 83.3914C281.559 83.4782 281.155 83.5071 280.693 83.5071L280.722 83.4782Z" fill="white"/>
<path d="M288.834 83.4785C288.227 83.4785 287.65 83.3628 287.102 83.1313C286.553 82.8998 286.062 82.5815 285.629 82.1475C285.196 81.7135 284.85 81.1926 284.59 80.585C284.33 79.9773 284.215 79.2829 284.215 78.5016C284.215 77.46 284.446 76.563 284.879 75.8107C285.312 75.0873 285.889 74.5086 286.582 74.1324C287.275 73.7562 288.025 73.5537 288.834 73.5537C289.642 73.5537 290.393 73.7562 291.114 74.1324C291.807 74.5086 292.384 75.0873 292.818 75.8107C293.251 76.563 293.481 77.431 293.481 78.5016C293.481 79.5722 293.251 80.4403 292.818 81.1637C292.384 81.8871 291.807 82.4658 291.114 82.8709C290.393 83.247 289.642 83.4496 288.834 83.4496V83.4785ZM288.834 81.019C289.18 81.019 289.469 80.9322 289.7 80.7007C289.931 80.4692 290.075 80.2088 290.19 79.8327C290.306 79.4565 290.364 79.0225 290.364 78.5306C290.364 78.0387 290.306 77.5757 290.19 77.1996C290.075 76.8234 289.931 76.534 289.7 76.3315C289.469 76.1289 289.18 76.0421 288.834 76.0421C288.487 76.0421 288.199 76.1289 287.996 76.3315C287.794 76.534 287.621 76.8234 287.506 77.1996C287.39 77.5757 287.332 78.0097 287.332 78.5306C287.332 79.0514 287.39 79.4565 287.506 79.8327C287.621 80.2088 287.765 80.4982 287.996 80.7007C288.227 80.9033 288.516 81.019 288.834 81.019Z" fill="white"/>
<path d="M295.849 83.2464V73.8135H298.331L298.562 75.4339H298.62C298.967 74.7973 299.371 74.3343 299.861 74.045C300.352 73.7556 300.814 73.582 301.276 73.582C301.565 73.582 301.796 73.582 301.969 73.6399C302.142 73.6978 302.286 73.7267 302.431 73.7846L301.853 76.3888C301.68 76.3309 301.536 76.3019 301.392 76.3019C301.247 76.3019 301.103 76.3019 300.901 76.3019C300.554 76.3019 300.179 76.4177 299.804 76.6781C299.428 76.9096 299.111 77.3436 298.88 77.9513V83.3043H295.82L295.849 83.2464Z" fill="white"/>
<path d="M306.126 86.8639C305.808 86.8639 305.549 86.8639 305.347 86.806C305.144 86.7771 304.942 86.7192 304.711 86.6324L305.26 84.3755C305.404 84.4044 305.52 84.4333 305.606 84.4333C305.693 84.4333 305.78 84.4333 305.866 84.4333C306.299 84.4333 306.646 84.3465 306.905 84.144C307.136 83.9414 307.31 83.681 307.425 83.3917L307.569 82.9287L303.99 73.7852H307.05L308.262 77.5757C308.407 78.0097 308.522 78.4437 308.609 78.8778C308.695 79.3118 308.84 79.7748 308.955 80.2667H309.013C309.099 79.8037 309.215 79.3697 309.33 78.9067C309.446 78.4437 309.532 78.0097 309.648 77.5757L310.658 73.7852H313.574L310.37 83.1602C310.052 83.9704 309.706 84.6648 309.359 85.2146C308.984 85.7644 308.551 86.1695 308.031 86.4299C307.512 86.6903 306.877 86.835 306.126 86.835V86.8639Z" fill="white"/>
<path d="M325.41 83.4779C324.602 83.4779 323.88 83.3332 323.158 83.0728C322.466 82.8124 321.831 82.4073 321.282 81.8864C320.733 81.3656 320.3 80.7001 320.012 79.9188C319.694 79.1376 319.55 78.2117 319.55 77.17C319.55 76.1283 319.694 75.2313 320.012 74.4211C320.329 73.6109 320.762 72.9454 321.311 72.3957C321.859 71.8459 322.494 71.4119 323.187 71.1225C323.88 70.8332 324.631 70.6885 325.41 70.6885C326.19 70.6885 326.94 70.8332 327.575 71.1514C328.21 71.4697 328.759 71.8459 329.192 72.3089L327.575 74.1607C327.287 73.8714 326.969 73.6688 326.623 73.5241C326.276 73.3795 325.901 73.3216 325.497 73.3216C325.006 73.3216 324.515 73.4663 324.111 73.7846C323.678 74.0739 323.332 74.5079 323.072 75.0866C322.812 75.6364 322.668 76.3019 322.668 77.0832C322.668 77.8644 322.783 78.5589 323.043 79.1086C323.303 79.6584 323.649 80.0924 324.082 80.3818C324.515 80.6711 325.035 80.8158 325.612 80.8158C326.074 80.8158 326.478 80.729 326.854 80.5554C327.229 80.3818 327.518 80.1503 327.806 79.8899L329.336 81.7128C328.788 82.3205 328.182 82.7834 327.546 83.0728C326.883 83.3621 326.19 83.5068 325.439 83.5068L325.41 83.4779Z" fill="white"/>
<path d="M335.543 83.4785C334.937 83.4785 334.36 83.3628 333.811 83.1313C333.262 82.8998 332.772 82.5815 332.339 82.1475C331.906 81.7135 331.559 81.1926 331.299 80.585C331.04 79.9773 330.924 79.2829 330.924 78.5016C330.924 77.46 331.155 76.563 331.588 75.8107C332.021 75.0873 332.598 74.5086 333.291 74.1324C333.984 73.7562 334.735 73.5537 335.543 73.5537C336.351 73.5537 337.102 73.7562 337.824 74.1324C338.517 74.5086 339.094 75.0873 339.527 75.8107C339.96 76.563 340.191 77.431 340.191 78.5016C340.191 79.5722 339.96 80.4403 339.527 81.1637C339.094 81.8871 338.517 82.4658 337.824 82.8709C337.102 83.247 336.351 83.4496 335.543 83.4496V83.4785ZM335.543 81.019C335.89 81.019 336.178 80.9322 336.409 80.7007C336.64 80.4692 336.784 80.2088 336.9 79.8327C337.015 79.4565 337.073 79.0225 337.073 78.5306C337.073 78.0387 337.015 77.5757 336.9 77.1996C336.784 76.8234 336.64 76.534 336.409 76.3315C336.178 76.1289 335.89 76.0421 335.543 76.0421C335.197 76.0421 334.908 76.1289 334.706 76.3315C334.504 76.534 334.331 76.8234 334.215 77.1996C334.1 77.5757 334.042 78.0097 334.042 78.5306C334.042 79.0514 334.1 79.4565 334.215 79.8327C334.331 80.2088 334.475 80.4982 334.706 80.7007C334.937 80.9033 335.226 81.019 335.543 81.019Z" fill="white"/>
<path d="M342.529 83.247V73.8141H345.012L345.243 74.9715H345.301C345.676 74.5954 346.08 74.2771 346.542 73.9877C346.975 73.7273 347.524 73.5826 348.159 73.5826C348.794 73.5826 349.342 73.6984 349.775 73.9588C350.18 74.2192 350.526 74.5954 350.757 75.0873C351.161 74.6822 351.594 74.335 352.056 74.0167C352.518 73.6984 353.066 73.5537 353.702 73.5537C354.712 73.5537 355.462 73.9009 355.953 74.5954C356.444 75.2898 356.675 76.2158 356.675 77.3732V83.2181H353.615V77.7783C353.615 77.1417 353.528 76.7077 353.384 76.4762C353.211 76.2447 352.951 76.1289 352.604 76.1289C352.402 76.1289 352.171 76.1868 351.941 76.3315C351.71 76.4472 351.45 76.6498 351.19 76.9391V83.2181H348.13V77.7783C348.13 77.1417 348.043 76.7077 347.87 76.4762C347.697 76.2447 347.437 76.1289 347.091 76.1289C346.658 76.1289 346.196 76.3894 345.676 76.9102V83.1892H342.616L342.529 83.247Z" fill="white"/>
<path d="M359.389 83.247V73.8141H361.871L362.102 74.9715H362.16C362.535 74.5954 362.939 74.2771 363.401 73.9877C363.834 73.7273 364.383 73.5826 365.018 73.5826C365.653 73.5826 366.202 73.6984 366.635 73.9588C367.039 74.2192 367.385 74.5954 367.616 75.0873C368.02 74.6822 368.453 74.335 368.915 74.0167C369.377 73.6984 369.926 73.5537 370.561 73.5537C371.571 73.5537 372.322 73.9009 372.813 74.5954C373.303 75.2898 373.534 76.2158 373.534 77.3732V83.2181H370.474V77.7783C370.474 77.1417 370.388 76.7077 370.243 76.4762C370.07 76.2447 369.81 76.1289 369.464 76.1289C369.262 76.1289 369.031 76.1868 368.8 76.3315C368.569 76.4472 368.309 76.6498 368.049 76.9391V83.2181H364.989V77.7783C364.989 77.1417 364.903 76.7077 364.729 76.4762C364.556 76.2447 364.296 76.1289 363.95 76.1289C363.517 76.1289 363.055 76.3894 362.535 76.9102V83.1892H359.475L359.389 83.247Z" fill="white"/>
<path d="M377.778 72.5697C377.287 72.5697 376.883 72.425 376.566 72.1357C376.248 71.8463 376.075 71.4702 376.075 71.0072C376.075 70.5442 376.248 70.1391 376.566 69.8787C376.883 69.6183 377.287 69.4736 377.778 69.4736C378.269 69.4736 378.702 69.6183 379.019 69.8787C379.337 70.1681 379.51 70.5442 379.51 71.0072C379.51 71.4702 379.366 71.8463 379.019 72.1357C378.702 72.425 378.298 72.5697 377.778 72.5697ZM376.248 83.2758V73.8429H379.308V83.2758H376.248Z" fill="white"/>
<path d="M385.948 83.4782C385.139 83.4782 384.504 83.3335 383.985 82.9863C383.494 82.668 383.119 82.234 382.888 81.6553C382.657 81.0766 382.541 80.44 382.541 79.6877V76.1865H381.271V73.9006L382.714 73.8138L383.061 70.9492H385.601V73.8138H387.795V76.2154H385.601V79.6587C385.601 80.1796 385.717 80.5268 385.948 80.7583C386.179 80.9898 386.439 81.0766 386.756 81.0766C386.9 81.0766 387.074 81.0766 387.218 81.0766C387.362 81.0766 387.507 81.0187 387.622 80.9898L388.084 83.131C387.853 83.2178 387.536 83.3046 387.16 83.3914C386.785 83.4782 386.381 83.5071 385.919 83.5071L385.948 83.4782Z" fill="white"/>
<path d="M393.54 83.4782C392.732 83.4782 392.097 83.3335 391.577 82.9863C391.086 82.668 390.711 82.234 390.48 81.6553C390.249 81.0766 390.134 80.44 390.134 79.6877V76.1865H388.863V73.9006L390.307 73.8138L390.653 70.9492H393.194V73.8138H395.388V76.2154H393.194V79.6587C393.194 80.1796 393.309 80.5268 393.54 80.7583C393.771 80.9898 394.031 81.0766 394.349 81.0766C394.493 81.0766 394.666 81.0766 394.81 81.0766C394.955 81.0766 395.099 81.0187 395.215 80.9898L395.676 83.131C395.446 83.2178 395.128 83.3046 394.753 83.3914C394.377 83.4782 393.973 83.5071 393.511 83.5071L393.54 83.4782Z" fill="white"/>
<path d="M401.883 83.4779C400.96 83.4779 400.151 83.2754 399.43 82.8992C398.708 82.523 398.13 81.9443 397.697 81.192C397.264 80.4397 397.062 79.5716 397.062 78.53C397.062 77.7487 397.178 77.0832 397.438 76.4756C397.697 75.8679 398.015 75.3471 398.448 74.9131C398.881 74.479 399.372 74.1607 399.891 73.9293C400.44 73.6978 400.988 73.582 401.537 73.582C402.461 73.582 403.211 73.7846 403.818 74.1897C404.424 74.5948 404.857 75.1445 405.146 75.81C405.434 76.5045 405.579 77.2568 405.579 78.1249C405.579 78.4142 405.579 78.6746 405.55 78.9061C405.521 79.1376 405.492 79.3401 405.463 79.4559H399.43V77.4015H402.98C402.98 76.9675 402.894 76.6202 402.692 76.3309C402.49 76.0415 402.143 75.8969 401.624 75.8969C401.335 75.8969 401.075 75.9837 400.786 76.1283C400.498 76.273 400.296 76.5624 400.122 76.9385C399.949 77.3147 399.891 77.8355 399.891 78.53C399.891 79.2244 400.036 79.7742 400.267 80.1503C400.498 80.5265 400.786 80.7869 401.162 80.9316C401.537 81.0763 401.883 81.1631 402.288 81.1631C402.634 81.1631 402.98 81.1052 403.298 80.9895C403.615 80.8737 403.962 80.729 404.279 80.5554L405.261 82.3784C404.77 82.7256 404.222 82.986 403.615 83.1885C403.009 83.3911 402.432 83.4779 401.883 83.4779Z" fill="white"/>
<path d="M412.305 83.4779C411.381 83.4779 410.573 83.2754 409.851 82.8992C409.129 82.523 408.552 81.9443 408.119 81.192C407.686 80.4397 407.484 79.5716 407.484 78.53C407.484 77.7487 407.599 77.0832 407.859 76.4756C408.119 75.8679 408.436 75.3471 408.87 74.9131C409.303 74.479 409.793 74.1607 410.313 73.9293C410.861 73.6978 411.41 73.582 411.958 73.582C412.882 73.582 413.633 73.7846 414.239 74.1897C414.845 74.5948 415.278 75.1445 415.567 75.81C415.856 76.5045 416 77.2568 416 78.1249C416 78.4142 416 78.6746 415.971 78.9061C415.942 79.1376 415.913 79.3401 415.885 79.4559H409.851V77.4015H413.402C413.402 76.9675 413.315 76.6202 413.113 76.3309C412.911 76.0415 412.565 75.8969 412.045 75.8969C411.756 75.8969 411.497 75.9837 411.208 76.1283C410.919 76.273 410.717 76.5624 410.544 76.9385C410.371 77.3147 410.313 77.8355 410.313 78.53C410.313 79.2244 410.457 79.7742 410.688 80.1503C410.919 80.5265 411.208 80.7869 411.583 80.9316C411.958 81.0763 412.305 81.1631 412.709 81.1631C413.055 81.1631 413.402 81.1052 413.719 80.9895C414.037 80.8737 414.383 80.729 414.701 80.5554L415.683 82.3784C415.192 82.7256 414.643 82.986 414.037 83.1885C413.431 83.3911 412.853 83.4779 412.305 83.4779Z" fill="white"/>
<path d="M40.2746 60.4458C40.3035 60.1854 40.3901 59.925 40.3901 59.6645C40.2746 56.8289 40.1303 53.9643 39.9571 51.1286C39.9571 50.6657 39.8127 50.1738 39.6972 49.7108C39.2065 48.1194 39.4952 46.4701 39.4086 44.8497C39.322 42.7374 39.1199 40.6251 39.0044 38.5418C38.9467 37.5291 38.1961 36.8635 37.7053 36.0823C37.6476 35.9955 37.1568 36.0244 37.0702 36.1691C36.464 36.9214 35.7711 37.4712 34.7896 37.4133C34.6452 38.4261 34.7896 38.8022 35.569 39.2073C36.1175 39.4967 36.464 39.9307 36.464 40.5094C36.464 41.7247 36.9836 42.7663 37.3011 43.8948C37.6764 45.2837 37.6187 46.5858 36.4351 47.6275C35.4536 48.4666 34.2122 48.0326 33.8369 46.8173C33.3461 45.1969 32.8265 43.5765 32.1048 42.0719C30.9789 39.7281 29.651 37.4712 28.3807 35.1853C28.1787 34.8381 27.7168 34.5487 27.3126 34.3751C25.5516 33.5649 23.7618 32.8126 21.9719 32.0314C21.3368 31.742 20.8749 31.7999 20.3553 32.3496C19.4315 33.3334 18.3633 34.1726 17.2663 35.1274C17.0642 34.867 16.891 34.6066 16.7178 34.3751C15.9961 33.3334 15.0723 33.3334 14.6681 34.433C14.6681 34.4619 14.6393 34.5198 14.6104 34.5487C13.6 36.1402 12.8205 36.2848 11.3194 35.1274C10.7997 34.7513 10.3378 34.3172 9.84707 33.8832C9.44291 33.536 9.44291 33.102 9.7316 32.6969C10.078 32.176 10.4533 31.7131 10.8286 31.2212C10.9729 31.0476 11.1462 30.8739 11.2616 30.7003C11.3482 30.5557 11.3771 30.3242 11.3194 30.2084C11.2616 30.0927 11.0018 30.0348 10.8575 30.0348C10.2512 30.1216 9.64499 30.2084 9.03875 30.3531C8.51912 30.4978 8.05721 30.5557 7.65305 30.0927C7.22002 29.5719 7.10455 28.9642 7.3355 28.3566C7.65306 27.5753 8.02835 26.7941 8.40364 26.0418C8.83667 25.2026 9.2697 25.1448 10.078 25.6077C10.3667 25.7813 10.8286 25.8681 11.1173 25.7813C11.2905 25.7235 11.3194 25.2026 11.406 24.9133C11.6369 24.2767 11.8101 23.6112 12.0988 23.0325C12.2143 22.801 12.6185 22.5985 12.8783 22.5695C13.6866 22.5117 14.4661 22.5695 15.2744 22.5695C15.7363 22.5695 15.9384 22.7721 15.9672 23.2061C15.9672 23.5244 15.9672 23.8427 15.9672 24.161C15.9672 24.8843 16.2559 25.1158 16.9776 24.9422C17.4684 24.8265 17.9303 24.6529 18.4211 24.4792C19.1716 24.1899 19.4603 24.3635 19.7779 25.1158C20.0088 25.7235 20.3264 26.3311 20.6728 26.8809C21.2213 27.7489 21.1347 28.2698 20.2687 28.8485C20.0088 29.0221 19.8356 29.2825 19.6047 29.4851C19.8934 29.6876 20.1243 30.0059 20.4419 30.1216C21.7698 30.5846 23.1555 30.9029 24.4835 31.3948C25.465 31.742 26.3599 32.205 27.4281 32.1471C27.659 32.1471 27.89 32.3207 28.1498 32.3786C28.323 32.4365 28.5251 32.4075 28.7272 32.4365C28.7272 32.2339 28.8138 32.0314 28.7272 31.8577C28.3519 31.0186 27.9766 30.1795 27.5724 29.3693C26.3311 26.9098 25.0608 24.4792 23.8484 22.0198C22.7802 19.8496 21.8853 17.5637 20.6439 15.4804C19.749 13.9757 18.3922 12.7026 17.2663 11.3426C16.1693 10.0116 15.1012 8.68059 14.033 7.34956C13.9176 7.20489 13.8309 7.03128 13.8021 6.85766C13.8021 6.71299 13.8598 6.51044 13.9464 6.3947C14.0042 6.33683 14.264 6.3947 14.3506 6.4815C14.5527 6.62618 14.697 6.85766 14.8413 7.03127C15.7074 8.04401 16.5157 9.08568 17.4107 10.0984C17.5839 10.301 17.9592 10.3299 18.2478 10.4456C18.2478 10.1563 18.3344 9.86693 18.2478 9.60651C17.988 8.79632 17.6705 8.01507 17.3529 7.23382C17.122 6.68405 17.2952 6.27896 17.6993 5.96067C17.9592 5.75812 18.2478 5.61345 18.5077 5.4109C19.3737 4.80326 19.7201 4.919 20.1243 5.93174C20.2687 6.27896 20.4707 6.59725 20.6439 6.94447C21.3079 6.42364 21.51 5.96067 21.0481 5.23729C20.6151 4.57178 21.2791 3.53011 22.1162 3.50117C22.6359 3.50117 22.8957 3.26969 23.1266 2.83566C23.4442 2.22802 24.8588 1.79399 25.1763 2.31483C25.6094 2.98034 26.0424 3.35649 26.8507 3.41436C27.1971 3.41436 27.1971 5.20835 26.8218 5.49771C26.3888 5.84493 26.2445 6.19215 26.4177 6.74192C26.6197 7.34956 26.2733 7.75466 25.7537 8.01507C25.2341 8.27549 24.7144 8.50697 24.1948 7.98614C23.5885 7.3785 23.5308 7.46531 23.0112 8.13082C22.1451 9.23036 22.0585 10.5035 22.0296 11.7767C22.0296 12.2396 22.2028 12.7315 22.4049 13.1366C22.9823 14.3808 23.5885 15.6251 24.2237 16.8114C24.3391 17.0429 24.6567 17.3322 24.9165 17.3322C25.1186 17.3322 25.3784 17.0139 25.5227 16.7825C26.0135 15.9433 26.0712 15.8855 26.9662 16.2327C27.4281 16.4063 27.6879 16.2327 27.7168 15.8565C27.9188 14.3808 28.9004 14.1783 30.1129 14.2072C30.6902 14.2072 30.9789 14.4387 30.9789 15.0174C30.9789 15.191 30.9789 15.3936 30.9789 15.5672C30.9789 16.1748 31.3542 16.3774 31.9027 16.088C32.6918 15.6636 33.1152 15.8951 33.1729 16.7825C33.1729 16.7825 33.1729 16.9271 33.1729 16.985C33.2595 17.419 33.5194 17.9399 33.375 18.2871C33.2595 18.5764 32.5956 18.6343 32.3357 18.9237C32.1337 19.1552 32.0182 19.6471 32.1337 19.9364C32.5667 21.2385 32.4512 21.6147 31.2099 22.1934C31.0367 22.2802 30.8634 22.338 30.6902 22.3959C29.9974 22.6853 29.7953 23.0325 30.0262 23.7269C30.6325 25.5209 31.2387 27.3149 31.8738 29.1089C31.9893 29.4561 32.0759 30.0059 32.3069 30.1216C32.8265 30.3531 33.4616 30.4399 34.039 30.4689C34.6164 30.4978 34.8184 30.2084 34.6741 29.6297C34.4432 28.6652 34.8281 28.1637 35.8288 28.1251C36.0598 28.1251 36.2907 28.0672 36.5217 28.0383C37.4166 27.8936 37.4455 27.9225 37.763 28.8195C37.8785 29.1378 38.1383 29.3693 38.3404 29.6587C38.427 29.6587 38.5136 29.6297 38.6002 29.6008C38.658 29.2536 38.8023 28.8774 38.8023 28.5302C38.8023 27.4017 38.6868 26.2732 38.6868 25.1737C38.6868 24.0163 38.8023 22.8299 38.8889 21.6725C38.9755 20.5151 38.2538 19.6471 37.0702 19.6471C36.4928 19.6471 36.1753 19.4445 35.9732 18.9237C35.569 17.9688 35.4536 17.0139 35.9155 16.0591C36.1175 15.6251 36.1175 15.22 35.7134 14.8727C35.3092 14.5255 34.9051 14.5255 34.4432 14.757C33.4616 15.3068 33.0575 15.1332 32.8554 14.0336C32.6533 12.963 32.4512 11.8635 32.3646 10.7639C32.3357 10.272 32.4512 9.72226 32.6533 9.25929C33.0575 8.39123 33.8369 8.24655 34.6741 8.68058C35.0783 8.88313 35.7422 9.11461 35.9732 8.91207C36.464 8.47804 35.9732 8.01508 35.6845 7.60998C35.1071 6.74192 34.5009 5.87387 33.9524 4.97687C33.7792 4.71645 33.7792 4.34029 33.7792 3.99307C34.9051 4.48497 34.9339 5.96067 36.1175 6.51044C36.233 4.919 37.3589 4.48497 38.5136 4.05094C38.5425 4.05094 38.6002 4.02201 38.6291 3.99307C39.8993 3.51082 40.7077 2.61382 41.0541 1.30209C41.3139 0.347226 41.6892 0.0578725 42.5264 0.0868078C43.0171 0.0868078 43.1904 0.318289 43.1615 0.781254C43.1326 1.38889 43.0749 2.02547 43.0749 2.63311C43.0749 2.83566 43.2481 3.03821 43.3347 3.21182C43.5079 3.12501 43.71 3.06714 43.8255 2.92246C44.4606 2.17015 45.0668 1.3889 45.7308 0.665516C45.9617 0.405098 46.2504 0.231482 46.5391 0C46.6257 0.0578706 46.7123 0.11574 46.7989 0.202546C46.7123 0.462964 46.6835 0.752318 46.5391 0.9838C45.5864 2.31482 44.5761 3.64585 43.5945 4.97687C43.3636 5.26622 43.1615 5.58451 42.9883 5.9028C42.7285 6.33683 42.5841 6.79979 42.9594 7.23382C43.2481 7.55211 44.1719 7.52317 44.576 7.20488C44.8359 7.00234 45.0379 6.77086 45.2689 6.53937C45.6153 6.19215 45.9329 6.22109 46.1638 6.62618C46.4236 7.03128 46.568 7.49424 46.8278 7.89934C47.2897 8.65165 47.7805 9.40397 48.2424 10.1563C48.4156 10.4167 48.5599 10.735 48.6177 11.0243C48.7331 11.7188 48.3867 12.066 47.6939 12.1818C47.0876 12.2975 46.4525 12.4422 45.904 12.7315C45.2978 13.0498 45.3555 13.4549 45.904 13.9179C46.337 14.2651 46.8278 14.6123 47.232 15.0174C48.1269 15.8855 48.0403 16.7246 47.001 17.3901C46.2216 17.882 45.6153 18.4607 45.2112 19.3288C44.8936 20.0232 44.4894 20.0811 43.8255 19.6181C43.1615 19.1552 42.4975 18.6343 41.8047 18.1714C41.6026 18.0267 41.3716 17.9688 41.1407 17.882C41.0541 18.1424 40.9097 18.3739 40.9097 18.6343C40.9097 20.3704 40.9675 22.1066 41.0541 23.8427C41.1695 26.0128 41.3139 28.154 41.4582 30.2952C41.4871 30.7871 41.6026 31.308 41.6603 31.7999C41.7758 32.7837 41.4005 33.1888 40.419 33.2756C40.2169 33.2756 40.0148 33.3913 39.8127 33.4781C39.9282 33.6517 40.0148 33.9411 40.1591 33.999C40.9097 34.3751 41.516 34.8381 41.8335 35.7061C41.9779 36.1691 42.4109 35.9087 42.5264 35.5615C42.7285 35.0406 42.8151 34.5198 42.9883 33.97C43.1037 33.536 43.2192 33.073 43.3924 32.6679C43.4502 32.4943 43.6811 32.4075 43.8543 32.2918C43.9121 32.4943 44.0853 32.6969 44.0564 32.8705C43.8832 33.8832 43.71 34.8959 43.4213 35.9087C42.9305 37.6159 43.1615 39.3231 43.1615 41.0592C43.1615 41.5511 43.5079 41.6089 43.7966 41.2906C44.374 40.6251 45.24 40.1043 45.1246 39.0048C45.1246 38.7443 45.3844 38.455 45.5865 38.1946C45.8463 37.8184 45.8751 37.5001 45.4998 37.1818C45.3555 37.0661 45.24 36.9214 45.0957 36.8057C44.6626 36.4006 44.5472 35.9955 44.9225 35.4747C45.0957 35.2432 45.2112 34.9538 45.3555 34.6934C45.5864 34.2883 45.9329 34.1726 46.3948 34.2883C47.3186 34.5487 47.4629 34.433 47.7516 33.5649C47.9825 32.8705 48.4733 32.5136 49.2239 32.4943H49.2816C49.7435 32.4943 50.3786 32.3207 50.6385 32.5522C50.8983 32.7837 50.8117 33.4202 50.8694 33.8832C50.8983 34.3172 51.187 34.3751 51.5045 34.2304C52.0819 33.97 52.6015 33.7675 53.1789 34.3462C53.5253 34.6934 53.7563 34.2015 53.8717 33.8832C54.1316 33.0441 54.3625 32.205 54.6223 31.3948C55.3152 29.2246 56.0369 27.0256 56.7875 24.8843C57.105 23.9873 56.7009 23.2061 56.4699 22.4248C56.4122 22.2802 56.0946 22.1934 55.8348 22.0487C55.6039 22.5985 55.4307 23.1772 55.1708 23.6691C54.6223 24.7397 54.045 24.7686 53.2655 23.8427C52.8902 23.4086 52.6015 22.9167 52.2262 22.4538C51.8798 22.0487 52.0242 21.7593 52.3706 21.47C52.5149 21.3542 52.6593 21.2385 52.7747 21.1228C53.1789 20.7755 53.15 20.5151 52.717 20.1968C51.4757 19.2998 51.4179 18.9526 52.1396 17.6216C52.2262 17.448 52.284 17.2744 52.3417 17.1297C52.5149 16.6667 52.8325 16.522 53.3232 16.6957C54.4491 17.1008 54.4491 17.1007 54.7667 15.9144C55.0265 14.9306 55.1708 14.8149 56.1812 14.8727C56.4699 14.8727 56.7875 14.8727 57.0762 14.8727C58.0866 14.8727 58.3753 15.1621 58.4041 16.1748C58.4041 17.3033 58.6351 17.448 59.6455 16.9271C60.194 16.6378 60.5404 16.7825 60.6847 17.3612C60.8291 17.9977 60.9446 18.6633 61.0312 19.3288C61.1178 19.8207 60.9734 20.139 60.3961 20.2547C59.7898 20.3704 59.5877 20.8045 59.761 21.3832C59.8476 21.6725 60.0496 21.9619 60.0208 22.2223C60.0208 22.6563 59.9919 23.264 59.7321 23.4376C57.8845 24.6818 57.7979 26.823 57.0762 28.617C56.7875 29.3404 56.7297 30.1795 56.6143 30.9608C56.6143 31.1344 56.7586 31.3658 56.8452 31.5395C57.0473 31.4527 57.2783 31.3948 57.3937 31.2501C57.5958 31.0186 57.7402 30.7293 57.8556 30.4399C58.7794 28.0672 59.5589 25.6367 60.627 23.3508C61.3487 21.8461 61.9261 20.3415 62.3303 18.7501C62.5612 17.8531 63.1386 17.0718 63.485 16.1748C64.5532 13.4549 65.6213 10.735 66.6606 7.98614C66.8338 7.49424 66.8338 6.94447 66.9781 6.42364C67.1802 5.67132 67.6998 5.4977 68.3061 5.9896C68.3927 6.04747 68.4504 6.10535 68.5081 6.16322C69.8938 7.26276 69.9804 7.40743 69.2876 8.99887C67.5555 13.0787 65.8522 17.1586 63.9758 21.1517C62.6189 24.1031 61.0312 26.9387 59.5589 29.8612C59.1547 30.6425 58.8083 31.4816 58.4619 32.2918C58.3753 32.5233 58.3753 32.7837 58.3175 33.1309C59.4145 32.9573 60.3672 32.8415 61.3199 32.6101C62.0127 32.4365 62.4457 31.9156 62.7633 31.1922C63.6871 29.1957 64.7264 27.2281 65.7945 25.2894C66.2564 24.4503 68.2772 23.9005 69.1721 24.2767C69.9516 24.595 70.1248 25.4052 70.4712 26.0418C70.6444 26.3311 70.7888 26.6783 71.0486 26.8519C71.7992 27.3149 72.0879 27.9804 72.1167 28.8195C72.1167 29.08 72.1167 29.3693 72.2322 29.5429C72.3765 29.7744 72.6364 30.0638 72.8962 30.1216C73.1271 30.1795 73.5313 29.977 73.6179 29.7744C73.8488 29.3114 74.0798 28.7906 74.0221 28.2987C73.9066 26.9098 74.0798 25.6077 74.5706 24.3346C75.0036 23.264 75.3789 22.8878 76.5048 22.9746C78.5544 23.1482 80.5752 23.5533 82.4806 24.3924C83.7797 24.9711 84.4148 26.2732 84.0395 27.6332C83.7797 28.617 83.3466 29.5719 82.8847 30.4689C82.4228 31.3658 82.4517 31.9445 83.2889 32.5522C84.1261 33.1309 84.9921 33.4202 86.0025 32.9284C86.2335 32.8126 86.5222 32.6969 86.782 32.6679C87.3305 32.5811 87.7347 32.7837 87.6769 33.3913C87.5614 34.6066 87.3305 35.7929 87.2439 37.0082C87.1573 37.9342 87.1573 38.889 87.2439 39.815C87.3305 40.7988 87.3882 41.6957 86.5222 42.3902C85.8293 42.94 85.1942 43.0557 84.6457 42.3902C83.6353 41.117 82.2496 41.4353 80.9794 41.2617C80.5175 41.2038 80.402 41.7825 80.633 42.3902C81.0371 43.4897 81.4702 44.5893 81.6723 45.7177C81.9609 47.5696 80.8928 48.4666 79.0452 48.1772C77.8039 47.9747 76.5625 48.1194 75.4655 48.8138C74.3107 49.5661 73.156 49.2189 72.7807 47.8011C72.4343 46.5279 71.9147 45.2837 71.4816 44.0395C71.2218 43.2582 70.9042 43.0846 70.2691 43.5765C69.3453 44.242 68.4504 44.9944 67.5266 45.6599C66.6894 46.2675 66.1698 46.1228 65.9388 45.1101C65.7945 44.4735 65.4769 44.0395 65.015 43.6344C64.7552 43.4029 64.582 42.9978 64.5531 42.6506C64.4954 42.1587 64.2933 41.8983 63.8603 41.7536C62.8788 41.4064 62.6478 41.117 62.7633 40.0754C62.9654 38.3393 63.5427 36.8346 65.3615 36.1112C66.1409 35.7929 66.4007 35.1274 66.1409 34.2883C65.9388 33.6228 65.2749 33.1888 64.5243 33.3624C63.8892 33.4781 63.2252 33.6807 62.6189 33.9122C61.6085 34.2883 60.627 34.6934 59.6455 35.1853C59.2413 35.3878 58.866 35.7351 58.6062 36.1402C57.6247 37.7316 56.6143 39.323 55.7482 40.9724C55.0554 42.3034 54.478 43.7212 53.9295 45.1101C53.5831 45.9492 53.3521 46.8462 53.1212 47.7143C52.8614 48.6981 51.6777 49.2189 50.8405 48.6691C49.8013 48.0036 49.1662 47.0488 49.3682 45.7756C49.5126 44.9365 49.8013 44.0974 50.0033 43.2582C50.1188 42.8532 50.2343 42.477 50.3209 42.0719C50.4941 41.3775 50.3209 40.8566 49.5703 40.6251C49.2816 40.5383 48.9929 40.3069 48.8197 40.0754C48.4444 39.5835 48.0691 39.6703 47.7805 40.0754C47.3763 40.6251 46.8855 40.8856 46.1927 40.9724C45.7019 41.0302 45.1823 41.4064 44.7781 41.7826C44.0853 42.4481 43.4213 43.1714 42.9017 43.9527C42.613 44.3867 42.5552 45.0522 42.5264 45.602C42.4686 47.4539 42.5264 49.3347 42.4975 51.1865C42.4109 54.4851 42.2377 57.7548 42.1222 61.0245C42.1222 61.2271 42.0645 61.4585 42.1222 61.6321C42.18 61.8058 42.2666 62.0372 42.4109 62.1241C42.4975 62.1819 42.7285 62.0372 42.8728 61.9504C43.4213 61.6321 43.9121 61.1692 44.4894 60.9666C45.9617 60.4747 46.7989 59.2016 47.9248 58.3046C48.1269 58.1599 48.098 57.6391 48.0403 57.3208C47.9248 56.7421 48.3867 55.1796 48.8775 54.9481C49.0796 54.8324 49.426 54.8613 49.6569 54.9481C50.2343 55.1507 50.5807 55.006 50.7539 54.3983C50.8117 54.1668 50.9272 53.9354 51.0138 53.7039C51.0426 53.5881 51.1004 53.4724 51.1581 53.4145C51.8798 52.8358 52.7459 53.0962 53.5253 53.1252C53.7851 53.1252 54.1604 53.7907 54.2182 54.1668C54.3048 54.8034 54.3914 55.006 55.0265 54.6009C55.575 54.2536 55.9503 54.5141 56.0946 55.1506C56.1812 55.6136 56.2678 56.1055 56.3833 56.5685C56.5565 57.1472 56.3256 57.4365 55.7771 57.5812C54.8821 57.8127 54.7667 58.102 55.1131 58.9701C55.4884 59.8092 55.4018 60.2143 54.6223 60.7352C54.1893 61.0245 53.6985 61.2271 53.2078 61.4296C52.7459 61.6032 52.3994 61.4007 52.2262 60.9377C52.1974 60.8509 52.2262 60.7352 52.1685 60.6773C51.9664 60.359 51.7643 60.0696 51.5623 59.7514C51.3313 60.0407 51.0138 60.3011 50.8405 60.6194C50.2632 61.7768 49.8013 61.8926 48.8775 60.9666C48.5022 60.5905 48.1558 60.5326 47.7516 60.9088C46.8567 61.7479 45.904 62.5581 45.0957 63.484C44.6626 63.947 44.4028 64.5835 44.143 65.1912C43.8543 65.8567 43.6811 66.5801 43.5079 67.3035C43.4502 67.4771 43.4213 67.7375 43.5079 67.8822C43.8832 68.5187 43.9409 69.1553 43.8543 69.8787C43.71 71.0072 43.5945 72.1646 43.5079 73.2931C43.4502 74.0164 43.5945 74.7688 43.4213 75.4632C42.9305 77.2861 43.1904 79.1091 43.1326 80.932C43.0749 83.5362 43.046 86.1114 43.1326 88.7156C43.1904 90.2202 43.5656 91.6959 43.71 93.2005C43.7677 94.0107 43.7677 94.8788 43.5368 95.689C43.4213 96.0941 42.8439 96.4702 42.382 96.6438C41.8624 96.8175 41.2562 96.8175 40.6788 96.7885C39.8416 96.7306 39.2065 96.0651 39.2931 95.226C39.3797 94.2711 39.6972 93.3452 39.7839 92.3904C39.9859 90.3359 40.1014 88.2815 40.2169 86.1982C40.2746 85.1855 40.3324 84.1727 40.3612 83.16C40.4767 80.7873 40.4767 78.4435 39.6684 76.1577C39.5818 75.9551 39.5529 75.7236 39.524 75.4921C39.2931 74.4505 39.0333 73.4088 38.8312 72.3671C38.7735 72.0489 38.6868 71.6727 38.7446 71.3544C39.0621 68.9238 38.9755 66.5222 38.2827 64.1495C37.9651 63.05 37.7631 61.8926 36.9547 61.0245C35.8577 59.8671 34.6741 58.7676 33.5482 57.6101C32.2491 56.2791 30.9501 54.977 29.7087 53.5881C29.2179 53.0384 28.9292 52.3439 28.5828 51.7073C28.5251 51.5916 28.5828 51.3891 28.5828 51.2154C28.756 51.2733 28.9581 51.2733 29.0447 51.3601C29.3911 51.7363 29.6798 52.2282 30.0551 52.5754C30.9212 53.3856 31.845 54.1379 32.7399 54.9192C33.7792 55.8162 34.8184 56.7131 35.8577 57.6101C36.0598 57.7838 36.2619 58.0152 36.4928 58.131C36.7526 58.2467 37.0991 58.3335 37.33 58.2467C37.4455 58.1889 37.5321 57.7548 37.4744 57.5233C37.2723 56.3659 37.0125 55.2375 36.8104 54.08C36.5794 52.6912 36.3774 51.3023 36.9836 49.9423C37.0702 49.7398 37.3011 49.5661 37.4744 49.3925C37.6476 49.624 37.9074 49.7976 37.9651 50.058C38.1095 50.6657 38.1672 51.2733 38.2538 51.9099C38.5714 54.3983 38.8889 56.9157 39.2642 59.4041C39.322 59.8092 39.6395 60.2143 39.8127 60.6194C39.8993 60.6194 39.9859 60.5615 40.0725 60.5326L40.2746 60.4458ZM70.8754 33.536C71.0775 33.536 71.3373 33.4781 71.4816 33.536C71.7414 33.6807 71.9724 33.9411 72.2033 34.1436C72.0013 34.3462 71.828 34.6355 71.5682 34.7223C71.1352 34.867 70.6444 34.8959 70.1537 34.9249C69.7495 34.9249 69.2587 34.9249 69.2876 35.4457C69.2876 35.7351 69.6918 36.1112 70.0093 36.2848C70.4712 36.5163 72.3188 35.764 72.5786 35.33C72.6075 35.2432 72.6364 35.1564 72.6364 35.0696C72.6364 34.5777 72.8673 34.2304 73.2715 33.9122C73.7334 33.5649 73.7334 33.1309 73.2715 32.7837C72.9828 32.5522 72.5786 32.4654 72.2322 32.3207C71.7414 32.1182 71.1929 32.0024 70.731 31.7709C69.9227 31.3369 69.201 30.7871 68.3927 30.3531C67.7864 30.0059 67.3534 30.4688 66.9492 30.845C66.5739 31.1922 66.8338 31.4816 67.0359 31.7999C67.9019 33.3045 69.4031 33.4492 70.9043 33.536H70.8754ZM75.8697 38.2524C76.014 37.0372 76.2161 36.8635 77.3708 37.095C77.7172 37.1529 78.0348 37.3265 78.3524 37.5291C78.8431 37.8184 79.6226 37.7895 80.0267 37.4133C80.3732 37.095 80.3732 36.5453 80.0267 36.2848C79.7381 36.0823 79.3628 35.9955 79.0452 35.9087C78.6988 35.8219 78.2658 35.8797 77.9771 35.6772C76.9089 34.9249 75.9851 35.3589 75.0902 35.9666C74.1953 36.5453 74.0221 37.5869 74.5994 38.4839C74.8881 38.9469 74.9747 39.5256 75.1479 40.0754C75.2923 40.4805 75.3789 40.8856 75.581 41.2617C75.8408 41.7247 76.3316 41.7247 76.7357 41.5221C77.1399 41.3196 77.3131 40.9145 77.111 40.4515C76.9667 40.1043 76.678 39.8149 76.5048 39.4677C76.3027 39.0916 76.1006 38.6865 75.9274 38.2814L75.8697 38.2524ZM30.4882 30.2663C30.4304 29.8901 30.4015 29.6297 30.3438 29.3982C29.9396 27.9804 29.5355 26.5915 29.1025 25.1737C28.8715 24.4214 28.6406 23.698 28.3807 22.9457C28.2653 22.5985 28.0054 22.2802 27.6013 22.5406C27.2549 22.7721 26.562 22.7721 26.8218 23.5244C26.9662 23.9005 27.1105 24.2478 27.2549 24.595C27.89 26.3311 28.554 28.0672 29.1891 29.8033C29.2757 30.0348 29.3623 30.2952 29.5066 30.4689C29.6798 30.6425 29.9396 30.7293 30.1706 30.845C30.2861 30.6135 30.3727 30.382 30.4593 30.2374L30.4882 30.2663ZM74.5706 32.639C74.5706 32.639 74.6283 32.9284 74.7438 32.9862C74.917 33.0441 75.2634 32.9862 75.35 32.8415C75.6098 32.4943 75.9563 32.0603 75.9851 31.6552C75.9851 30.7871 76.2161 30.1506 77.0244 29.6587C77.6306 29.3114 77.544 28.5591 76.9667 28.2408C75.9851 27.6621 74.9747 28.1251 74.8304 29.2536C74.686 30.2952 74.6572 31.3369 74.5706 32.5811V32.639ZM80.8062 33.0152C80.6041 32.7837 80.3154 32.3786 79.9113 32.0603C79.4782 31.7131 78.9297 31.5684 78.439 31.9446C77.9193 32.3496 77.4574 32.8415 77.0821 33.3624C76.678 33.9411 76.9089 34.2304 77.6018 34.2594C78.1503 34.2594 78.7276 34.3172 79.2762 34.3462C79.9401 34.404 80.7196 33.8253 80.7773 33.0152H80.8062ZM36.2041 13.6575C37.0125 13.1945 37.9074 12.7026 38.7446 12.1528C38.8601 12.0949 38.8601 11.6899 38.7734 11.5452C38.7157 11.4294 38.3982 11.3426 38.2249 11.3716C37.2723 11.5452 36.2907 11.7188 35.3669 11.9792C35.136 12.0371 34.8762 12.3554 34.8184 12.5868C34.7607 12.7894 34.9917 13.1077 35.1649 13.2524C35.3958 13.426 35.7422 13.5128 36.2041 13.6864V13.6575ZM73.4158 39.4388C73.2715 39.2073 73.156 38.9758 73.0117 38.7154C72.7807 38.8601 72.492 39.0048 72.2899 39.2073C71.9724 39.5545 71.6837 39.9307 71.4528 40.3647C71.2795 40.683 71.2218 41.0592 71.1063 41.4353C71.5105 41.4932 71.9146 41.6379 72.3188 41.6379C72.5209 41.6379 72.7518 41.3485 72.8384 41.146C73.0694 40.6251 73.2137 40.0754 73.4158 39.4677V39.4388ZM40.7365 9.60651C40.7365 10.4167 40.9386 10.5614 41.6314 10.272C41.7469 10.2142 41.9201 10.1852 41.9779 10.0695C42.18 9.75119 42.4398 9.40397 42.4686 9.05675C42.4686 8.88313 41.9779 8.4491 41.8335 8.50697C41.4294 8.65165 41.1118 8.96994 40.7654 9.23036C40.6788 9.31716 40.7076 9.54864 40.7076 9.60651H40.7365ZM41.4582 13.86C41.4582 13.86 41.5737 13.7732 41.6314 13.7153C41.6314 13.5996 41.6314 13.4838 41.5737 13.397C41.3716 12.3264 41.5737 12.066 42.6418 11.8924C42.8151 11.8924 43.046 11.8345 43.1326 11.7188C43.2481 11.6031 43.3058 11.3426 43.2481 11.198C43.1903 11.0822 42.9017 10.9375 42.7862 10.9954C42.2954 11.169 41.7469 11.3426 41.4005 11.6899C41.0541 12.0371 40.852 12.5868 40.7943 13.0498C40.7943 13.3102 41.1984 13.5996 41.4294 13.8889L41.4582 13.86ZM39.2931 10.1563C39.2931 9.46184 39.2931 8.941 39.2931 8.42017C39.2931 8.04401 39.1776 7.72572 38.7734 7.81253C38.5425 7.8704 38.2827 8.18868 38.2538 8.42017C38.1383 9.17248 38.7157 9.54864 39.2931 10.1273V10.1563ZM11.9833 28.8485C11.8101 27.7779 11.2039 27.1992 10.4533 27.286C10.309 27.286 10.1069 27.4306 10.0203 27.5464C9.96255 27.6332 10.0492 27.8936 10.1646 27.9226C10.7131 28.2408 11.3194 28.5013 11.9833 28.8195V28.8485ZM37.8497 9.46184C37.5032 9.17249 37.3011 8.94101 37.0702 8.8542C36.9836 8.82526 36.666 9.14355 36.6372 9.31716C36.5506 9.72226 36.7815 10.0695 37.2145 10.0695C37.3878 10.0695 37.561 9.78013 37.8785 9.46184H37.8497ZM40.7365 15.3357C40.3324 15.7408 40.3035 16.1459 40.5344 16.5799C40.5344 16.6378 40.852 16.6378 40.8809 16.5799C41.1695 16.1748 41.1407 15.7408 40.7365 15.3068V15.3357ZM54.7955 21.2385C54.7955 21.2385 54.6512 21.0649 54.5935 20.9491C54.3336 21.1517 54.045 21.3253 53.7851 21.5278C53.8429 21.6147 53.9872 21.8172 53.9872 21.7883C54.2759 21.6147 54.5357 21.4121 54.7955 21.2096V21.2385ZM15.0146 31.742C14.7836 31.4816 14.6393 31.3369 14.4949 31.1922C14.3794 31.308 14.1485 31.4527 14.1774 31.5395C14.2351 31.7131 14.3794 31.9156 14.5527 32.0314C14.6104 32.0603 14.8125 31.8867 15.0434 31.742H15.0146ZM12.4164 31.1922C12.4164 31.1922 12.2143 31.0186 12.0988 30.9608C11.9256 31.1922 11.7524 31.4237 11.6081 31.6841C11.6081 31.6841 11.7813 31.8288 11.8679 31.9156C12.0411 31.6841 12.2143 31.4527 12.3875 31.1922H12.4164Z" fill="white"/>
<path d="M5.40131 66.7831C5.80547 64.9023 5.48791 63.0794 5.02602 61.2854C5.02602 61.1986 5.02602 61.1118 4.99715 61.025C4.88167 59.3467 4.99715 59.231 6.64266 59.5203C7.65307 59.7229 8.6346 59.7229 9.50066 58.9995C10.1646 58.4497 10.2801 57.7264 9.76048 57.0608C9.00989 56.1349 8.69234 55.0354 8.46139 53.9069C8.23044 52.7784 9.00989 51.5053 10.3667 50.9555C11.7524 50.4347 13.1958 50.1164 14.6393 49.7113C14.928 49.6245 15.2167 49.6245 15.5053 49.5666C17.4107 49.2194 17.6127 50.0874 18.0746 51.2449C18.5943 52.518 18.9118 53.849 18.652 55.2669C18.5943 55.5852 18.7386 56.0192 18.9407 56.2796C19.1428 56.54 19.5469 56.7715 19.8068 56.7426C20.0666 56.7136 20.3264 56.3375 20.4707 56.0481C20.5862 55.8166 20.5862 55.4983 20.5862 55.2379C20.5862 54.4856 20.9904 53.9648 21.5389 53.5018C21.7987 53.2703 22.0296 52.952 22.1163 52.6048C22.4338 51.4763 23.0112 50.753 23.8195 50.6662C24.9454 50.5215 26.4177 51.2449 26.9084 52.1129C27.7745 53.7044 28.6117 55.2958 29.4778 56.8872C29.5932 57.1187 29.6798 57.3502 29.7664 57.5817C30.1706 58.7391 29.4778 59.7229 28.2653 59.7808C27.7745 59.7808 27.1683 59.7808 26.8507 60.0412C25.696 60.996 25.8692 62.2403 27.2837 62.7611C29.1891 63.4845 29.7664 65.5389 29.7953 67.1014C29.7953 67.709 29.3912 68.0273 28.8715 68.1431C28.323 68.2588 28.1498 68.5481 28.0921 69.069C28.0343 69.4451 27.7456 69.8502 27.457 70.1107C27.0239 70.5447 26.6486 70.9208 26.562 71.5864C26.4177 72.5412 25.8692 72.7148 25.1186 72.1361C24.5701 71.7021 24.0793 71.1523 23.502 70.7472C22.9823 70.3711 22.4338 70.0528 21.8564 69.7924C21.4523 69.6188 21.1347 69.7924 21.0192 70.2843C20.6151 71.7021 20.1532 73.1199 19.7202 74.5378C19.4603 75.3769 18.7386 75.753 17.9014 75.4637C17.3529 75.2611 16.8333 74.9139 16.2559 74.7692C15.5053 74.5956 14.7259 74.5378 13.9753 74.422C13.8598 74.422 13.7444 74.422 13.6289 74.4509C11.2039 74.7982 10.3956 73.3514 11.0307 71.1523C11.2905 70.2843 11.6369 69.4741 11.9256 68.635C12.1277 67.9984 11.9545 67.709 11.2905 67.6801C10.078 67.6222 8.89442 67.6222 8.02836 68.7218C7.6242 69.2137 7.07569 69.2426 6.52719 68.9822C5.92095 68.7218 5.51679 68.2877 5.43018 67.5933C5.40131 67.3039 5.43018 66.9856 5.43018 66.6963L5.40131 66.7831ZM15.9095 63.3109C16.1404 63.5713 16.4869 63.8028 16.5157 64.0343C16.6312 64.8155 16.5735 65.5968 15.9961 66.2333C15.8229 66.4069 15.7074 66.6384 15.6208 66.8699C15.4765 67.3618 15.794 68.0273 16.2271 68.1141C16.7467 68.2299 17.1797 68.0273 17.4107 67.5354C17.555 67.1882 17.555 66.812 17.6705 66.4648C17.8148 66.0019 17.8726 65.5389 18.1324 65.1338C18.652 64.2947 18.7675 63.8317 18.2479 63.1951C17.6705 62.4428 16.891 61.7773 15.9095 61.8641C14.928 61.9509 13.9753 62.2981 13.0226 62.6164C12.7628 62.7032 12.4741 63.1083 12.4741 63.3687C12.4741 63.6292 12.7628 64.0921 12.9938 64.1211C13.4845 64.1789 14.0042 64.0921 14.4949 63.9474C14.9568 63.8317 15.361 63.5713 15.9384 63.3109H15.9095ZM19.1139 59.7229C19.1139 60.5909 19.9222 61.1986 20.4419 60.7356C21.1059 60.0991 21.8564 60.2148 22.607 60.1859C23.8484 60.128 24.8876 59.665 25.5805 58.5944C25.7537 58.3051 25.898 57.7842 25.7537 57.5527C25.5805 57.2634 25.1186 57.0608 24.7433 57.003C24.4546 56.9451 24.0793 57.1187 23.7906 57.2923C22.607 57.9289 21.5389 58.7391 20.1243 58.8548C19.6624 58.8838 19.1428 59.1731 19.1428 59.7229H19.1139ZM18.2479 59.0574C18.0746 57.7553 17.9592 56.6268 17.7571 55.5273C17.5839 54.6014 16.458 54.312 15.6785 54.9486C15.2166 55.2958 15.13 55.9034 15.6208 56.2217C16.3425 56.7136 16.6312 57.4081 16.7756 58.2183C16.8333 58.5365 16.891 58.8838 17.0931 59.1153C17.2663 59.3467 17.5839 59.6072 17.8148 59.5782C18.0169 59.5782 18.1901 59.1731 18.2767 59.0574H18.2479ZM14.4949 60.7356V60.7935C14.7836 60.7935 15.0434 60.7935 15.3321 60.7356C15.7074 60.6778 15.8806 60.4173 15.7074 60.0991C15.2744 59.3178 14.7836 58.6234 13.8598 58.3629C13.2825 58.1893 12.4164 58.5076 12.0988 59.1442C11.9256 59.4625 11.8968 60.0122 12.0988 60.3016C12.4164 60.8514 13.0226 60.996 13.6577 60.8803C13.9464 60.8224 14.2351 60.7935 14.5238 60.7646L14.4949 60.7356ZM19.2871 66.0597C19.6047 66.7542 19.8645 67.4775 20.2975 68.0852C20.4707 68.3167 21.2213 68.4324 21.4234 68.2877C21.7987 67.9984 21.6544 67.4775 21.3368 67.0725C20.9904 66.6384 20.7017 66.1755 20.3553 65.7414C20.2109 65.5389 19.9511 65.4231 19.749 65.2785C19.6047 65.51 19.4892 65.7125 19.2871 66.0597ZM21.7121 61.459C21.7121 61.459 21.6544 61.3722 21.6255 61.3143C21.3657 61.4879 20.9615 61.6037 20.8749 61.8352C20.7017 62.2981 21.0192 62.6454 21.4523 62.8479C22.1163 63.1373 22.8091 63.0794 23.4442 62.7322C23.6174 62.6454 23.7618 62.2403 23.704 61.9798C23.704 61.7773 23.4153 61.4879 23.2133 61.459C22.7225 61.3722 22.2029 61.459 21.7121 61.459Z" fill="white"/>
<path d="M66.9493 55.7006C66.9493 55.7006 66.9493 55.4691 66.9493 55.3534C66.9493 53.8777 67.0359 53.8198 68.5082 54.0513C69.2876 54.167 70.096 54.0513 70.8754 54.0513C71.1641 54.0513 71.5105 54.0513 71.7126 54.196C72.5498 54.8325 73.3004 56.1346 72.9251 57.2052C72.723 57.7261 72.9251 58.1601 73.387 58.4495C73.8489 58.7099 74.2531 58.6231 74.6283 58.2469C74.8016 58.0733 75.0036 57.8997 75.2057 57.7839C75.7542 57.4367 76.3316 57.4657 76.6203 58.0444C77.2843 59.3464 77.8905 60.6775 78.4101 62.0374C78.5833 62.4715 78.4101 63.108 78.2369 63.571C77.9194 64.4101 77.3131 64.6127 76.4471 64.3523C76.0429 64.2365 75.6099 64.2654 75.1768 64.1786C74.8016 64.1208 74.4263 64.005 74.0798 63.9182C73.6757 63.8025 73.1849 63.4263 72.954 63.9761C72.8385 64.2365 73.1272 64.7573 73.387 65.0756C73.9932 65.8569 74.7149 66.5803 75.3212 67.3615C75.7542 67.8823 75.6676 68.4321 75.148 68.8951C74.2819 69.6474 73.4159 70.4287 72.4921 71.0942C71.2218 72.0201 70.096 71.7597 69.2299 70.4287C68.999 70.0814 68.8257 69.7053 68.6525 69.3291C68.4504 68.8951 68.2484 68.3164 67.6999 68.4321C67.1514 68.5479 66.6606 68.924 66.1987 69.2423C66.0544 69.3581 65.9966 69.6474 65.9389 69.8499C65.7368 70.6023 65.3326 70.718 64.7553 70.1393C64.3222 69.7053 63.9758 69.1844 63.5139 68.7793C62.8499 68.2006 62.0993 67.6798 61.4065 67.159C60.9735 66.8117 60.5982 66.4356 60.7425 65.8279C60.858 65.2492 61.3488 65.2203 61.8107 65.0178C62.3592 64.7863 62.8788 64.4391 63.3407 64.034C63.8026 63.6289 63.716 63.2238 63.1386 62.9634C62.5324 62.674 61.8395 62.5004 61.2333 62.1821C59.9342 61.5166 59.8187 60.6485 60.8291 59.6069C61.3776 59.0282 61.8107 58.3916 61.9261 57.5814C61.9261 57.4078 62.0127 57.2342 62.0994 57.0606C62.4169 56.2214 62.8211 56.0478 63.6583 56.3661C64.4954 56.6844 65.3038 57.0316 66.1121 57.3789C66.574 57.5814 66.8338 57.3788 66.8915 56.9448C66.9493 56.5397 66.8915 56.1057 66.8915 55.7006H66.9493ZM68.9701 62.4136C68.7969 62.0953 68.6525 61.6034 68.335 61.4298C67.671 61.0536 66.9204 60.8511 66.1987 60.6196C65.91 60.5328 65.5924 60.5907 65.5636 61.0247C65.5636 61.3719 65.5636 61.6902 66.0255 61.7191C66.1987 61.7191 66.4008 61.7191 66.574 61.7191C67.1802 61.8059 67.7287 62.0664 67.8731 62.674C68.0174 63.3395 67.44 63.5421 66.9204 63.7157C66.7183 63.7735 66.4874 63.8603 66.4008 64.005C66.2853 64.2365 66.2564 64.5548 66.343 64.7573C66.4008 64.8731 66.8627 64.931 67.007 64.8441C67.5844 64.3812 68.1329 63.8604 68.6525 63.3106C68.8257 63.137 68.8257 62.8187 68.9701 62.4136ZM74.1953 59.7515C73.7045 59.983 73.3004 60.0698 73.0406 60.3013C72.3477 60.9379 71.7126 61.6034 71.0775 62.2978C71.0198 62.3557 71.1641 62.7608 71.2507 62.7608C71.5105 62.7608 71.7992 62.7608 72.0302 62.6451C72.8674 62.24 73.6757 61.777 74.484 61.3141C74.8304 61.1115 75.2635 60.9089 75.0325 60.446C74.8882 60.1277 74.484 59.9541 74.1664 59.6937L74.1953 59.7515ZM70.962 63.9182C70.962 63.9182 70.7888 64.0629 70.7022 64.1208C70.8465 64.3812 71.0198 64.6705 71.1641 64.931C71.3373 65.2782 71.4817 65.6543 71.6549 66.0016C71.7703 66.2041 71.9147 66.4067 72.059 66.5803C72.29 66.3777 72.5787 66.1752 72.723 65.9147C72.7807 65.7701 72.6653 65.4518 72.5209 65.3071C72.0302 64.8152 71.4817 64.3523 70.962 63.8893V63.9182ZM69.4897 64.7863C69.4897 64.7863 69.3165 64.7284 69.201 64.6995C68.8835 64.9888 68.5371 65.2492 68.3061 65.5965C68.1329 65.828 68.0463 66.1752 68.0752 66.4645C68.0752 66.6092 68.5082 66.8407 68.6525 66.7828C68.9701 66.6671 69.3454 66.4356 69.432 66.1752C69.5763 65.7701 69.4609 65.2782 69.4609 64.8152L69.4897 64.7863ZM68.2484 60.1566C68.5948 59.5201 68.3927 58.9703 68.1329 58.4495C68.0752 58.3337 67.7576 58.2469 67.5844 58.3048C67.44 58.3626 67.2668 58.5941 67.2668 58.7388C67.2091 59.4043 67.5555 59.8673 68.2484 60.1566ZM70.8465 60.9958C70.9909 60.8511 71.1064 60.7064 71.2507 60.5617C71.395 60.4171 71.5394 60.2724 71.626 60.0698C71.6837 59.9252 71.626 59.6937 71.5683 59.5779C71.5105 59.4911 71.2796 59.4911 71.1641 59.5201C70.5867 59.7805 70.4424 60.4171 70.8465 60.9958Z" fill="white"/>
<path d="M6.78703 41.7254C6.78703 41.7254 6.78703 41.8701 6.78703 41.928C6.8159 42.2752 6.87364 42.6513 6.90251 42.9986C7.24893 42.9117 7.65309 42.8539 7.97065 42.7092C8.7501 42.333 9.18313 42.5645 9.24087 43.4036C9.29861 43.9245 9.41408 44.4453 9.55842 44.9372C9.6739 45.4002 9.64503 45.7185 9.06766 45.8342C7.91291 46.0946 7.79744 46.4419 8.34594 47.5125C8.86558 48.4963 8.54802 49.3064 7.47988 49.7115C6.17117 50.1938 5.31473 49.7791 4.91057 48.4673C4.85284 48.2648 4.65075 47.9754 4.53528 47.9754C4.36207 47.9754 4.10225 48.178 4.01565 48.3516C3.81357 48.6988 3.69809 49.1039 3.52488 49.4801C3.23619 50.2034 2.62995 50.4639 2.05258 49.972C1.47521 49.4511 0.984437 48.7856 0.522538 48.149C0.204983 47.715 0.522541 47.3678 0.868965 47.1074C1.59068 46.5865 1.59068 46.2682 0.868965 45.7763C-0.0548319 45.1398 -0.199179 44.6189 0.233851 43.6062C0.320457 43.4036 0.435933 43.2011 0.551408 42.9986C1.01331 42.1016 1.07104 42.1016 1.9371 42.5356C2.68769 42.9117 2.91864 42.796 3.06298 41.9569C3.12072 41.6675 3.17846 41.3782 3.26506 41.0888C3.4094 40.6259 3.72696 40.3944 4.2466 40.4233C4.70849 40.4522 5.17039 40.4522 5.63229 40.4233C6.49835 40.4233 6.84477 40.7416 6.8159 41.6386L6.78703 41.7254ZM3.64035 46.9916C3.64035 46.9916 3.55375 46.8759 3.52488 46.818C2.37013 46.7601 1.90823 47.1074 2.25466 48.0912C2.74542 47.6861 3.17845 47.3388 3.64035 46.9916ZM7.07572 46.2972C6.78703 46.1525 6.61382 45.9789 6.46948 45.9789C6.29626 46.0078 6.12306 46.1814 5.94985 46.2972C6.12306 46.4129 6.2674 46.6444 6.44061 46.6444C6.61382 46.6444 6.78703 46.4419 7.07572 46.2682V46.2972Z" fill="white"/>
<path d="M68.9701 62.4133C68.8546 62.8184 68.8258 63.1367 68.6525 63.3103C68.1329 63.8601 67.5844 64.352 67.007 64.8439C66.8627 64.9596 66.4008 64.8728 66.3431 64.7571C66.2564 64.5545 66.2853 64.2362 66.4008 64.0047C66.4585 63.8601 66.7183 63.7733 66.9204 63.7154C67.4401 63.5418 68.0174 63.3103 67.8731 62.6737C67.7288 62.0661 67.1802 61.8057 66.574 61.7189C66.4008 61.7189 66.1987 61.7189 66.0255 61.7189C65.5636 61.7189 65.5636 61.3716 65.5636 61.0244C65.5636 60.5904 65.8812 60.5325 66.1987 60.6193C66.9204 60.8508 67.671 61.0533 68.335 61.4295C68.6526 61.6031 68.7969 62.124 68.9701 62.4133Z" fill="white"/>
<path d="M74.1953 59.752C74.5128 60.0124 74.917 60.186 75.0613 60.5043C75.2634 60.9383 74.8593 61.1698 74.5128 61.3723C73.7045 61.8064 72.8962 62.2693 72.059 62.7034C71.828 62.8191 71.5394 62.848 71.2795 62.8191C71.1929 62.8191 71.0486 62.414 71.1063 62.3561C71.7414 61.6617 72.3766 60.9962 73.0694 60.3596C73.3292 60.1281 73.7334 60.0124 74.2241 59.8098L74.1953 59.752Z" fill="white"/>
<path d="M70.962 63.918C71.4817 64.3809 72.0302 64.8439 72.5209 65.3358C72.6653 65.4805 72.7807 65.7988 72.723 65.9434C72.5787 66.2039 72.29 66.3775 72.059 66.609C71.9147 66.4064 71.7703 66.2328 71.6549 66.0302C71.4817 65.683 71.3373 65.3069 71.1641 64.9596C71.0198 64.6703 70.8466 64.4099 70.7022 64.1495C70.7888 64.0916 70.8754 64.0048 70.962 63.9469V63.918Z" fill="white"/>
<path d="M69.4609 64.7866C69.4609 65.2496 69.5475 65.7415 69.432 66.1466C69.3454 66.407 68.9412 66.6385 68.6525 66.7542C68.5082 66.8121 68.104 66.5806 68.0752 66.4359C68.0463 66.1466 68.1329 65.7994 68.3061 65.5679C68.5371 65.2207 68.9124 64.9603 69.201 64.6709C69.2877 64.6998 69.3743 64.7288 69.4897 64.7577L69.4609 64.7866Z" fill="white"/>
<path d="M68.2195 60.1563C67.5266 59.8669 67.1802 59.4329 67.238 58.7384C67.238 58.5648 67.4112 58.3333 67.5555 58.3044C67.6999 58.2465 68.0174 58.3044 68.104 58.4491C68.3638 58.9699 68.5948 59.5197 68.2195 60.1563Z" fill="white"/>
<path d="M70.8177 60.9665C70.4135 60.3878 70.5579 59.7512 71.1352 59.4908C71.2507 59.4329 71.5105 59.4908 71.5394 59.5486C71.626 59.6933 71.6549 59.8959 71.5971 60.0405C71.5394 60.2141 71.3662 60.3588 71.2219 60.5324C71.1064 60.6771 70.962 60.8218 70.8177 60.9665Z" fill="white"/>
</svg>
