<svg width="136" height="33" viewBox="0 0 136 33" fill="none" xmlns="http://www.w3.org/2000/svg">
<path d="M0.83346 9.96292H13.2267V6.07394H0L3.20283 1.94312H30.7043V6.07394H17.5808V9.96292H29.8681V32.1793H20.7474L23.5683 28.1875H25.6924V14.1632H17.5808V16.3843L23.9502 21.7994V27.1117L15.5598 20.0287L6.75411 27.5954V22.0746L13.2295 16.4149V14.1577H4.97848V32.1738H0.83625V9.96292H0.83346Z" fill="#FF0085"/>
<path d="M48.8368 23.0837H34.3223L37.107 18.9529H48.8368V7.49721H40.5523V13.1208L36.201 16.3148V1.07581H40.5523V3.33303H64.0844V7.49999H53.294V18.9557H65.651V23.0865H53.294V32.2155H48.8396V23.0865L48.8368 23.0837Z" fill="#FF0085"/>
<path d="M77.7291 32.2849H73.481V8.67863H68.7812L70.8691 4.47831H73.481V1.0063H77.7291V4.47831H81.6985V8.67863H77.7988L77.7291 32.2849ZM72.6475 11.3862V23.8843L69.5144 27.6676V11.3862H72.6475ZM81.5926 11.3862V19.6145L78.4957 23.3645V11.389H81.5926V11.3862ZM83.2289 32.2849V22.322H82.0107V18.3302H83.2289V8.81762H99.6584V18.3302H101.016V22.322H99.6584V29.1965L96.7343 32.2849H83.2289ZM82.6379 2.46571L87.0227 0V2.25722H100.425V6.28519H87.0227V8.0893H82.6379V2.46571ZM87.3711 12.7066V18.3663H95.5162V12.7066H87.3711ZM95.5162 22.2887H87.3711V28.3987H95.5162V22.2887ZM93.4283 16.4232L89.5983 17.8799V13.61H93.4283V16.4232ZM93.4283 26.2833L89.5983 27.6371V23.2644H93.4283V26.2833Z" fill="#FF0085"/>
<path d="M110.591 7.84468H110L107.982 11.628H103.422L108.503 1.14529H113.097L111.949 3.611H119.397V7.70847H114.837V32.2182H110.589V7.84468H110.591ZM124.969 28.1875H128.381V7.70569H124.169L122.324 11.628H117.8L122.672 1.14529H127.057L125.839 3.611H135.481V7.70847H132.627V32.2182H121.975L124.969 28.1903V28.1875Z" fill="#FF0085"/>
</svg>
