<svg width="125" height="123" viewBox="0 0 125 123" fill="none" xmlns="http://www.w3.org/2000/svg">
<path d="M12.065 44.8889H52.4406L47.6849 49.7935H17.3516L16.4594 67.6883C19.3349 66.3996 22.5275 65.7589 26.0519 65.7589C32.2012 65.7589 37.5025 68.1375 41.9633 72.8874C46.4241 77.6373 48.6582 83.9042 48.6582 91.6733C48.6582 99.8402 46.5494 106.475 42.3393 111.579C38.1292 116.778 32.4003 119.377 25.1671 119.377C19.5193 119.377 14.7857 117.742 10.9664 114.473C7.14704 111.306 4.66965 107.123 3.53418 101.924L5.39222 101.401C9.85301 109.966 16.1718 114.252 24.3561 114.252C30.0556 114.252 34.4942 112.219 37.6647 108.162C40.8868 104.104 42.4942 98.7282 42.4942 92.0489C42.4942 85.3696 40.8573 80.0159 37.5836 76.1571C34.2141 72.3425 30.0777 70.4352 25.1671 70.4352C20.2566 70.4352 15.6778 72.5634 11.5636 76.8199H10.524L12.0871 44.8889H12.065ZM57.1226 39.9844H12.3599L12.5811 35.0799H49.9042C53.2222 35.0799 55.6332 34.8811 57.1152 34.4834C58.3539 34.1373 59.6442 33.2241 60.9788 31.7366H63.058C61.6719 34.1594 60.2783 36.214 58.8922 37.9004L57.1078 39.9771L57.1226 39.9844ZM46.7116 113.132C51.3715 108.626 53.7014 101.748 53.7014 92.4834C53.7014 83.2193 51.2462 76.0466 46.343 70.2069C55.5152 74.9126 60.1014 82.0926 60.1014 91.747C60.1014 101.401 55.6406 108.478 46.719 113.132H46.7116Z" stroke="#8F1856" stroke-opacity="0.8" stroke-width="6" stroke-miterlimit="10"/>
<path d="M81.7428 46.5975C72.6221 41.796 68.0581 35.5807 68.0581 27.9588C68.0581 22.1632 70.7862 17.487 76.235 13.9228C73.9567 16.9421 72.8138 20.5799 72.8138 24.8364C72.8138 28.6952 73.9788 32.311 76.3087 35.6764C78.587 38.9903 84.2865 42.4809 93.4072 46.1483C98.9592 48.3796 102.778 50.1617 104.858 51.4946C107.092 52.9822 108.994 55.1104 110.587 57.8793C112.172 60.8029 112.968 64.1389 112.968 67.902C112.968 74.0878 110.889 79.1175 106.723 82.9764C102.513 86.8352 97.4551 88.7719 91.5565 88.7719C85.6579 88.7719 79.9806 86.6216 75.2691 82.3136C70.5134 78.0056 68.1318 72.8359 68.1318 66.79C68.1318 59.1681 72.6663 52.4299 81.7354 46.5901L81.7428 46.5975ZM86.2036 48.6742C79.3096 53.4756 75.8663 59.6173 75.8663 67.0919C75.8663 72.8875 77.4294 77.2397 80.5483 80.1632C83.5713 83.0353 87.2874 84.4713 91.704 84.4713C96.1205 84.4713 99.8366 82.9616 102.712 79.9423C105.639 76.8715 107.099 73.0568 107.099 68.5058C107.099 64.9931 106.332 62.0695 104.791 59.7425C103.258 57.4154 100.729 55.4124 97.2044 53.726C94.9703 52.6876 91.3058 51.0012 86.1962 48.6742H86.2036ZM103.155 39.2407C115.247 44.6386 121.3 52.0396 121.3 61.4436C121.3 66.245 119.737 70.6267 116.618 74.5886C117.363 72.2615 117.731 69.7651 117.731 67.0845C117.731 61.5393 116.367 56.8631 113.639 53.0485C110.86 49.2338 105.234 45.6696 96.762 42.3557C87.5897 38.7915 82.0893 35.4997 80.2534 32.4804C78.4174 29.4611 77.5032 26.4934 77.5032 23.5698C77.5032 19.0114 79.2137 14.9316 82.6349 11.3159C86.0561 7.75161 90.3694 5.96948 95.5749 5.96948C100.286 5.96948 104.622 7.57487 108.589 10.793C112.504 13.9596 114.465 18.0467 114.465 23.0469C114.465 29.5789 110.697 34.9769 103.162 39.2333L103.155 39.2407ZM98.9887 37.6059C104.592 34.0416 107.394 29.4832 107.394 23.938C107.394 19.9245 106.303 16.6107 104.12 13.989C101.938 11.3674 98.9666 10.0566 95.1989 10.0566C91.4311 10.0566 88.4303 11.3674 86.2036 13.989C83.9252 16.5665 82.7824 19.711 82.7824 23.4225C82.7824 26.1472 83.7261 28.5185 85.6063 30.551C87.4865 32.5835 91.9546 34.9327 98.9887 37.6059Z" stroke="#8F1856" stroke-opacity="0.8" stroke-width="7" stroke-miterlimit="10"/>
</svg>
