<svg width="748" height="291" viewBox="0 0 748 291" fill="none" xmlns="http://www.w3.org/2000/svg">
<g filter="url(#filter0_dn_2049_639)">
<path d="M477.522 266.641C402.901 266.486 321.206 266.285 246.287 265.734C237.089 265.667 237.718 265.417 235.137 265.371C228.083 265.246 223.836 265.519 218.694 265.47C193.699 265.235 170.317 265.066 145.796 264.843C120.536 264.614 132.484 264.03 123.708 263.833C106.559 263.461 121.146 264.35 114.405 264.502C94.7458 264.34 74.9123 264.141 55.2181 263.952C60.0258 263.913 64.835 263.873 69.6953 263.834C61.1118 263.773 48.8262 263.61 63.2009 263.486C60.0238 263.42 57.0578 263.349 53.7929 263.287C53.5997 263.341 52.7417 263.382 51.5005 263.414C46.6555 264.009 37.0467 260.43 36.1559 259.662C35.4872 259.354 37.0936 260.366 38.9947 261.197C40.8862 262.052 43.0617 262.653 43.0331 262.649C42.827 262.747 33.097 260.033 27.0347 252.19C20.5653 244.648 19.8953 234.132 20.0111 232.935C20.0052 232.591 20.006 232.278 20.0108 231.992C20.1038 226.754 20.3192 231.786 20.3275 226.38C20.3377 216.603 19.8021 223.116 20.5409 209.881C20.3464 204.616 20.4633 204.156 20.5061 197.489C20.5118 196.611 20.3896 197.292 20.3883 196.906C20.3524 186.814 20.5301 194.572 20.5437 194.519C20.7493 193.603 20.6999 182.773 20.7282 180.491C21.0617 151.862 21.2136 130.886 21.3011 100.677C21.3171 94.1465 21.3219 74.2573 21.3507 67.938C21.3762 61.7056 21.421 65.0495 21.4485 61.7876C21.3649 57.9688 21.3532 54.2784 21.3846 47.9924C21.3992 45.6634 21.664 42.9683 22.5303 39.912C23.945 35.8131 23.2046 35.9491 28.0859 29.1356C32.1072 23.2689 43.6647 17.388 51.5005 17.9924C42.8181 18.691 43.3091 18.2697 34.7209 23.0808C33.7823 23.7072 29.542 26.6023 26.3266 31.578C22.9892 36.4646 21.3288 43.2728 21.4468 47.9924C21.4526 51.9958 21.468 54.5185 21.4915 53.7556C21.5093 53.1722 21.5112 50.6655 21.5091 47.9924C21.4544 44.5364 22.3262 40.893 22.4032 40.6642C23.0767 38.4919 21.5164 42.9752 21.5748 47.9924C21.5756 48.6678 21.5755 49.3493 21.5744 50.0205C21.5699 49.3884 21.5653 48.6981 21.5609 47.9924C21.5552 47.1269 21.5885 46.2475 21.6544 45.4197C21.5689 46.3981 21.5416 47.2455 21.5407 47.9924C21.5294 56.831 21.6951 50.1134 21.5281 58.9862C21.504 60.1756 21.4786 59.7147 21.4503 61.6753C21.4615 62.0782 21.4896 59.6797 21.4942 61.7455C21.5002 63.8527 21.4414 67.854 21.4899 68.4505C21.5623 69.3423 21.5287 60.6121 21.5329 59.9551C21.5325 59.9481 21.5321 59.9411 21.5318 59.9341C21.5598 54.1256 21.5752 66.2565 21.5832 66.8357C21.6328 70.5881 21.6616 68.0292 21.7156 73.6601C21.7477 76.8724 21.7586 85.0549 21.7757 88.0741C21.794 91.0741 21.8221 86.4067 21.8383 88.4252C21.8553 90.4438 21.8302 92.9571 21.8497 95.3268C21.8583 96.341 21.9106 96.2892 21.9144 96.7801C21.9566 102.045 21.8308 98.5914 21.8532 103.366C21.8646 106.459 22.0237 116.84 22.0279 109.685C22.0555 113.124 22.0803 116.478 22.1066 119.9C22.1156 117.742 22.1172 115.512 22.1277 113.406C22.1303 119.845 22.2562 122.759 22.2895 126.795C22.3235 130.832 22.1953 134.451 22.2908 138.892C22.5039 148.371 22.2932 124.899 22.301 121.985C22.3031 120.85 22.4379 125.21 22.4467 125.882C22.482 128.865 22.4257 132.394 22.4436 134.693C22.5095 142.926 22.661 147.967 22.7448 155.812C22.9924 179.467 23.2921 208.158 23.5167 231.992C23.5446 234.88 24.015 237.666 24.836 240.233C27.6822 248.578 32.0173 252.315 35.1014 254.638C42.6186 259.304 44.4114 259.206 51.5005 259.6C51.8031 259.597 52.1152 259.594 52.4378 259.591C65.287 259.481 83.3889 259.549 94.1142 259.53C101.539 259.516 108.261 259.249 110.192 259.23C137.032 258.975 169.683 258.779 191.923 258.652C202.383 258.59 207.351 258.875 209.511 258.856C218.796 258.772 216.306 258.514 223.834 258.501C227.9 258.494 228.661 258.755 229.205 258.762C233.997 258.827 234.951 258.476 238.69 258.445C260.192 258.268 280.904 258.408 302.195 258.36C303.739 258.356 303.602 258.525 304.603 258.512C308.899 258.454 306.902 258.197 311.392 258.158C320.731 258.078 330.32 258.083 340.22 258.08C341.201 258.079 341.642 258.302 343.885 258.295C346.132 258.287 347.835 258.066 351.363 258.065C360.578 258.062 369.673 258.291 379.432 258.276C381.047 258.273 383.048 257.986 385.47 257.981C393.071 257.965 404.325 258.189 410.837 258.181C432.323 258.151 452.144 257.934 472.383 257.885C477.139 257.874 481.353 258.143 483.827 258.145C489.405 258.148 485.197 257.893 490.848 257.88C537.014 257.777 583.357 257.839 630.067 257.788C648.41 257.768 670.739 257.473 688.467 257.552C690.553 257.561 692.156 257.599 693.5 257.648C693.5 257.648 693.5 257.648 693.5 257.648C696.419 257.717 697.978 257.731 701.091 256.848C708.55 253.988 709.818 252.534 714.774 245.965C717.327 242.093 719.184 237.126 719.293 231.992C719.35 229.452 719.389 226.932 719.382 224.487C719.356 216.342 718.883 212.584 718.834 203.228C718.795 195.522 719.02 184.762 718.994 176.372C718.864 133.376 718.81 90.7475 718.902 47.9924C719.272 34.4999 707.147 22.1796 693.5 22.4288C675.419 22.343 657.283 22.2289 639.056 22.085C611.759 21.8732 581.475 21.797 553.266 21.3046C550.617 21.2586 554.67 20.9095 546.175 20.9541C541.611 20.9787 535.24 21.2624 524.691 21.2292C461.971 21.0103 395.071 20.1202 331.298 19.8859C235.772 19.8558 136.77 18.8452 53.7595 18.0042C49.6877 17.9819 51.8957 17.9975 54.3352 17.9967C56.5991 18.0015 58.6921 18.0098 61.0613 18.0227C64.0447 17.9995 63.5186 17.9984 74.5766 18.0186C81.3846 18.0303 75.9466 17.9916 79.5756 17.9814C84.28 17.9752 106.368 17.8663 102.12 17.9746C103.489 17.9564 104.753 17.9376 106.087 17.9172C122.078 17.8796 137.614 17.8157 153.254 17.7185C155.955 17.7017 156.08 17.6371 158.87 17.6174C166.365 17.5627 172.316 17.5889 180.039 17.5583C184.234 17.5414 184.816 17.4463 190.31 17.4314C195.801 17.4156 195.681 17.5565 203.173 17.3785C198.293 17.2213 220.061 17.2589 227.802 17.2209C228.926 17.217 238.14 16.9889 243.038 16.9862C247.952 16.9837 255.413 17.0856 263.012 16.9781C266.576 16.9272 268.738 16.7467 272.582 16.7171C275.285 16.696 278.532 16.8374 281.955 16.8301C285.376 16.823 292.78 16.655 294.136 16.6454C299.033 16.6135 293.631 16.7563 296.98 16.7475C313.146 16.703 331.929 16.7041 347.868 16.5499C349.827 16.5307 347.116 16.3783 347.376 16.372C360.679 16.1099 353.579 16.3565 357.171 16.4916C360.65 16.6222 386.113 16.4556 386.301 16.1378C387.083 16.5264 392.743 16.2054 394.213 16.1864C399.935 16.1172 398.813 16.4711 404.359 16.3431C406.394 16.2956 402.431 16.0725 404.618 16.0707C410.025 16.0643 414.89 16.4357 422.087 16.4548C423.824 16.4593 424.389 16.2797 427.479 16.275C430.572 16.2695 443.537 16.4514 437.554 16.0857C445.417 16.3678 447 16.1945 456.145 16.1723C458.462 16.1668 461.445 16.465 466.375 16.3561C468.042 16.3189 467.993 16.0195 470.503 16.0085C476.242 15.9818 481.649 16.2808 488.933 16.275C502.555 16.2649 517.055 15.9914 531.256 16.0372C535.115 16.0504 534.152 16.3856 539.765 16.3804C540.59 16.3793 547.351 16.0724 551.23 16.09C553.565 16.1001 565.662 16.2825 568.102 16.2955C572.136 16.315 572.856 15.9757 575.066 16.0367C581.456 16.2132 576.33 16.7276 584.018 16.0243C586.546 16.4009 591.039 16.3547 592.478 16.8273C595.094 16.3031 598.485 16.7988 603.557 16.6167C608.631 16.435 612.79 15.3963 614.019 16.502C616.389 16.3645 626.484 16.1153 628.187 16.0948C633.205 16.0375 630.522 16.3539 634.309 16.3058C634.976 16.2977 634.278 16.0851 638.557 16.0988C641.366 16.1078 661.944 16.0876 663.173 16.1161C677.193 16.4396 655.533 16.3447 652.501 16.5833C651.966 16.5222 651.436 16.461 650.865 16.4008C644.669 16.3074 648.197 16.7904 651.005 16.902C653.814 17.0134 659.062 16.7892 661.396 16.9492C662.559 17.0297 661.839 17.6235 658.321 17.5529C662.085 17.7341 656.945 17.9276 658.433 18.0984C660.07 18.2856 676.984 18.3498 677.074 18.0184C673.915 18.0068 669.983 18.0181 666.788 18.0046C662.611 17.4409 675.3 15.4724 686.939 16.2382C693.826 16.6971 685.83 17.0947 693.5 16.9547C695.284 16.9371 697.938 16.9569 701.666 17.8507C698.775 17.059 696.21 16.7141 693.5 16.6816C693.327 16.68 693.152 16.6786 692.977 16.6772C692.905 16.5725 693.112 16.5203 693.5 16.4995C694.801 16.3981 697.955 16.8992 699.784 17.2039C700.984 17.3048 693.805 15.8407 700.1 16.777C705.165 18.6878 709.73 19.334 716.434 25.7703C714.569 24.0132 712.503 22.4876 710.298 21.237C722.315 30.4852 694.07 9.97352 716.859 28.0297C714.566 25.3825 711.85 23.1178 708.785 21.3904C710.123 22.4458 707.468 21.6725 708.677 22.5499C711.826 24.7767 716.212 28.5093 718.591 32.5978C719.622 34.3681 718.812 33.3667 718.901 33.5149C720.201 35.9764 720.17 35.315 721.115 37.5947C721.992 39.611 722.996 44.6672 722.817 47.9924C722.789 49.4109 722.771 50.5133 722.78 50.9499C722.857 54.7766 723.401 48.4047 723.441 48.7734C723.703 51.2132 723.486 56.1966 723.83 55.9348C723.788 53.8253 723.763 51.0174 723.753 47.9924C723.97 40.7323 720.205 32.9281 718.226 30.2846C717.289 28.9092 717.083 28.5477 718.166 29.8117C719.152 31.1049 721.727 34.0583 723.543 40.4894C722.662 36.1198 722.012 34.5676 722.781 35.5086C723.413 36.4557 725.48 40.117 725.819 46.8283C725.836 47.2394 725.844 47.6272 725.845 47.9924C725.88 56.6867 725.576 50.7486 725.256 55.8856C725.215 56.5755 725.064 70.3055 725.306 71.0088C724.751 70.4586 724.261 74.9268 723.687 71.9285C723.603 71.4897 723.636 65.8552 723.176 67.8213C722.945 68.8041 722.44 71.6249 722.146 71.1703C722.35 72.3286 722.58 73.54 722.794 74.7159C722.851 83.1592 722.629 84.3588 722.241 88.9754C722.402 88.7648 723.079 84.4991 722.872 90.9764C722.859 91.3088 722.616 91.5962 722.494 94.8871C722.25 101.539 722.171 102.927 721.46 97.8219C721.858 111.598 721.054 114.566 721.277 128.693C722.21 125.884 721.98 120.918 721.811 107.981C722.031 107.42 722.249 107.156 722.471 106.577C721.965 123.795 722.017 115.287 722.462 125.042C722.571 127.429 722.449 140.159 723.079 135.911C723.227 134.908 723.21 127 723.443 127.907C723.487 128.082 723.6 137.696 723.54 138.543C722.794 149.181 722.279 130.172 722.542 159.466C722.55 160.273 722.823 160.556 722.861 162.134C722.932 165.1 722.614 165.137 722.687 167.786C722.76 170.436 723.188 174.108 722.791 178.093C722.067 185.377 721.659 168.194 722.044 160.54C721.108 157.433 721.055 212.112 721.137 215.5C721.487 230.294 721.29 205.676 721.554 204.407C721.666 203.881 723.075 204.143 722.162 197.913C721.892 196.07 721.532 203.773 721.384 199.177C721.237 194.577 721.651 196.4 721.68 196.066C721.779 194.922 721.628 190.031 721.687 189.396C722.58 179.636 723.925 180.531 721.934 193.469C722.383 199.103 723.101 186.17 723.406 193.174C723.777 201.686 723.135 207.9 723.105 208.971C722.761 221.799 723.702 207.007 723.401 222.676C723.233 231.4 722.776 209.62 722.836 229.542C722.838 230.43 722.842 231.245 722.846 231.992C722.68 238.51 721.833 239.721 722.185 239.595C722.421 239.461 723.051 237.839 723.271 238.475C723.346 238.639 722.845 240.989 722.63 241.749C722.319 242.486 723.187 241.818 724.077 235.486C723.925 235.102 723.739 234.413 723.601 233.608C723.65 233.118 723.711 232.574 723.769 231.992C724.074 229.001 724.763 225.2 724.791 223.841C724.951 215.925 724.447 216.307 725.039 211.639C724.391 214.973 724.781 209.547 724.644 207.51C724.138 199.95 723.954 209.864 724.597 192.893C724.295 195.105 723.997 197.105 723.695 199.247C723.685 197.211 723.674 195.174 723.664 193.139C724.331 190.102 724.242 179.287 724.916 189.08C725.103 177.304 724.955 172.543 724.438 169.962C724.34 169.472 724.3 167.703 724.29 165.623C724.145 166.017 723.697 166.52 723.642 166.192C723.159 163.261 723.993 158.717 724.311 160.266C724.326 158.812 724.344 157.661 724.351 157.254C724.4 154.678 724.689 159.729 724.787 157.641C724.818 156.952 724.753 149.693 724.87 149.552C725.616 148.677 725.085 160.624 725.504 136.634C724.826 136.054 724.98 147.197 724.258 144.336C723.483 141.264 724.519 134.998 723.571 133.629C723.727 133.12 723.857 132.895 724.034 132.456C723.62 122.751 724.407 122.622 724.579 119.657C724.914 113.899 724.851 87.429 724.184 111.197C724.115 107.721 724.083 104.173 724.023 100.715C725.419 99.925 724.865 102.031 725.066 85.3737C725.11 81.7053 725.717 80.5111 724.992 76.9134C725.7 77.4021 725.262 66.5521 725.347 65.5394C725.892 59.0449 726.705 83.1594 725.452 86.2513C725.945 90.322 725.298 90.3073 725.387 94.852C725.517 101.417 725.646 102.329 725.17 110.123C725.858 117.794 725.439 80.0922 726.362 102.947C726.976 118.11 727.496 181.774 727.781 231.992C728.094 254.46 706.695 267.475 693.5 266.509C689.141 266.528 685.467 266.543 682.64 266.556C626.381 266.798 596.801 266.93 546.265 266.807C541.28 266.797 503.648 266.785 511.469 266.02C512.592 265.911 528.779 265.637 514.895 265.002C517.719 265.369 509.555 265.592 508.871 265.629C493.161 266.463 502.255 266.691 477.522 266.641ZM404.202 259.892C436.482 260.011 412.768 259.554 419.473 258.424C415.33 258.431 411.203 258.439 407.06 258.447C408.148 258.513 409.222 258.58 410.311 258.647C410.315 258.647 410.32 258.647 410.325 258.647C408.289 259.064 406.238 259.479 404.202 259.892ZM22.1682 104.131C22.2101 105.39 22.2531 106.635 22.2973 108C22.316 112.264 22.3334 116.513 22.3493 120.778C22.3193 120.269 22.2893 119.777 22.2599 119.268C22.2309 114.223 22.2015 109.194 22.1682 104.131ZM721.872 156.026C722.315 149.988 721.529 150.532 721.891 142.51C721.312 143.493 720.745 144.585 720.171 145.621C720.25 151.727 720.47 153.114 720.322 159.747C720.509 158.975 720.698 158.184 720.886 157.43C720.847 156.325 720.802 155.15 720.768 154.081C721.291 152.379 721.363 162.978 721.873 156.047C721.872 156.04 721.872 156.033 721.872 156.026ZM721.68 94.1499C721.758 90.9024 722.043 78.037 721.812 76.2815C721.028 70.3308 721.489 106.628 720.816 79.8763C720.704 79.9987 720.596 79.8764 720.486 79.8763C720.44 84.756 720.399 89.6212 720.36 94.536C720.802 94.2728 721.237 94.4482 721.68 94.1499ZM520.954 259.694C525.945 259.752 549.738 259.35 541.982 258.846C539.7 258.699 529.078 259.441 525.04 259.413C522.426 259.396 525.356 258.994 520.196 259.146C520.424 259.322 520.565 259.516 520.968 259.693C520.963 259.694 520.959 259.694 520.954 259.694ZM511.595 262.01C516.755 261.94 521.986 261.85 527.182 261.774C523.39 261.32 515.931 261.613 515.492 260.976C516.913 260.927 518.318 260.879 519.739 260.83C520.827 260.969 521.899 261.108 522.969 261.247C527.428 260.899 524.727 260.727 533.03 260.823C528.01 259.856 527.077 259.343 512.859 260.329C515.544 259.804 513.017 258.109 505.136 259.331C503.661 259.558 509.819 259.701 509.889 259.737C510.836 260.182 507.419 260.469 508.436 260.889C508.892 261.079 512.648 261.074 513.21 261.339C513.469 261.468 509.897 261.837 511.595 262.01ZM501.309 259.759C502.907 259.488 497.448 258.858 492.709 258.994C485.319 259.205 496.974 259.793 501.309 259.759ZM22.1679 104.103C22.168 104.112 22.1681 104.122 22.1682 104.131C22.1681 104.126 22.1679 104.122 22.1677 104.117C22.1678 104.112 22.1679 104.108 22.1679 104.103ZM721.353 110.895C721.125 107.069 721.165 101.406 720.799 101.824C720.873 99.9631 720.945 98.0818 721.019 96.2211C720.91 96.2386 720.799 96.2737 720.691 96.2913C720.615 101.89 720.54 107.472 720.463 113.071C720.759 112.369 721.057 111.72 721.353 110.895ZM721.666 49.8967C721.671 49.1096 721.669 48.4844 721.662 47.9924C721.504 44.3341 721.221 48.5503 720.978 47.2767C720.886 45.8498 719.951 40.2108 719.702 40.9684C720.292 43.2186 720.596 45.6011 720.582 47.9924C720.575 49.6008 720.568 51.2076 720.56 52.7964C720.928 51.6905 721.302 50.9183 721.666 49.8827C721.666 49.8874 721.666 49.892 721.666 49.8967ZM272.461 259.828C277.235 259.903 275.287 260.224 284.712 259.831C284.705 259.831 284.698 259.831 284.691 259.831C275.722 259.593 264.176 259.409 254.277 259.682C260.331 259.986 264.949 259.712 272.461 259.828ZM720.716 172.722C721.023 174.737 721.286 165.349 721.001 163.278C720.542 159.927 720.25 169.65 720.716 172.722ZM79.63 262.01C72.3675 262.532 86.1283 263.16 100.538 262.932C101.785 262.91 92.4817 262.714 95.2376 262.611C95.5162 262.601 100.623 262.622 101.886 262.546C103.15 262.468 101.823 262.284 103.894 262.209C107.529 262.074 115.743 262.332 118.463 262.152C118.821 262.127 113.728 261.874 113.408 261.865C108.177 261.717 103.137 262.042 102.329 262.042C98.1685 262.053 98.7974 261.804 97.7441 261.747C95.7602 261.639 92.2676 261.75 92.022 261.742C85.7083 261.533 100.135 261.581 102.083 261.489C107.331 261.236 102.472 261.02 115.058 260.847C116.253 260.832 130.559 260.803 112.53 260.568C147.93 259.828 94.7429 260.303 88.9679 260.448C86.3057 260.516 90.3366 260.733 88.7222 260.842C85.0358 261.091 78.7524 261.144 79.314 261.47C80.526 262.157 88.7781 261.703 94.4653 261.816C93.8685 261.972 93.6405 262.123 92.5345 262.274C94.2372 262.069 80.1566 261.969 79.63 262.008C79.63 262.009 79.63 262.009 79.63 262.01ZM169.246 261.056C177.197 261.298 176.635 260.762 183.919 261.058C190.344 260.556 177.672 260.617 176.196 260.595C169.457 260.489 169.612 259.975 162.716 260.157C165.086 260.451 167.017 260.753 169.246 261.056ZM100.082 260.994C105.4 260.747 95.8836 260.778 95.4974 260.736C91.2949 260.284 119.791 260.277 100.082 260.994ZM551.931 261.206C554.633 261.231 552.918 260.861 555.301 260.75C557.687 260.638 565.847 260.954 565.643 260.722C565.432 260.489 550.48 259.898 565.488 259.757C564.98 259.627 565.151 259.53 564.905 259.412C560.78 259.412 556.617 259.41 552.492 259.41C554.756 259.782 557.077 260.174 559.253 260.535C556.936 260.834 555.634 260.452 555.511 260.452C555.511 260.453 555.511 260.453 555.511 260.453C551.194 260.486 545.863 261.149 551.931 261.206ZM339.202 260.291C338.395 261.102 344.766 260.188 347.382 260.081C349.997 259.975 353.59 260.272 352.24 259.921C348.01 259.687 339.29 260.201 339.202 260.292C339.202 260.291 339.202 260.291 339.202 260.291ZM212.446 260.983C219.111 260.805 218.053 260.622 226.207 260.816C225.891 260.646 225.575 260.473 225.259 260.306C218.782 260.32 219.237 260.807 211.744 260.627C210.515 260.597 213.146 260.204 207.601 260.343C209.215 260.544 210.85 260.769 212.446 260.983ZM245.479 260.283C237.826 260.331 231.756 261.738 245.851 261.088C247.94 260.991 251.235 260.248 245.479 260.283ZM481.335 261.274C494.354 261.32 479.564 261.04 476.174 260.773C506.482 260.537 472.753 260.846 469.729 259.957C466.026 260.217 459.095 260.801 466.794 260.952C470.007 261.014 468.834 260.749 469.027 260.75C474.942 260.812 474.226 261.249 481.335 261.274ZM155.428 261.11C155.92 261.1 155.151 260.89 156.713 260.844C158.277 260.798 161.818 260.94 162.169 260.808C162.518 260.675 155.416 260.592 153.238 260.692C151.061 260.794 150.988 261.198 155.428 261.11ZM205.39 261.597C211.894 261.424 201.258 260.586 199.843 260.598C187.415 260.667 205.758 261.321 205.39 261.597ZM451.102 263.155C466.795 262.606 455.316 261.617 445.486 261.046C444.187 261.165 442.856 261.284 441.575 261.4C447.473 260.684 457.809 259.963 434.814 260.609C447.4 260.766 436.861 260.966 436.78 261.006C435.393 262.314 454.037 261.704 451.088 263.155C451.093 263.155 451.098 263.155 451.102 263.155ZM134.274 260.933C127.444 260.954 109.687 261.137 117.971 261.498C123.412 261.316 128.834 261.128 134.274 260.933ZM708.006 259.584C713.256 257.142 717.622 253.4 721.141 247.089C717.296 252.331 719.587 248.704 720.511 246.785C721.934 243.875 718.038 250.679 717.811 250.55C717.668 250.346 718.298 249.238 718.142 249.315C717.928 249.335 717.319 250.896 713.193 254.664C715.162 252.726 716.824 250.56 718.174 248.203C713.236 254.953 710.909 255.618 706.286 257.793C711.136 256.076 705.292 259.484 699.289 261.045C696.243 261.942 705.335 261.215 708.026 259.574C708.019 259.577 708.013 259.581 708.006 259.584ZM467.321 263.346C468.936 263.186 470.414 262.969 471.976 262.785C473.678 262.768 475.384 262.754 477.087 262.737C477.298 262.88 477.473 263.03 477.719 263.168C479.963 263.211 479.088 263.011 479.755 262.992C479.755 262.993 479.755 262.994 479.755 262.995C489.318 262.735 493.234 262.764 500.727 263.216C500.727 262.772 500.727 262.328 500.727 261.884C499.043 261.926 497.341 261.967 495.657 262.009C494.762 262.247 493.863 262.484 492.968 262.722C491.02 262.59 489.089 262.459 487.141 262.328C485.58 262.413 483.704 262.503 482.353 262.585C474.577 261.355 492.249 262.191 492.407 261.678C492.512 261.348 474.714 261.369 472.151 261.595C471.783 261.628 475.629 262.539 469.118 262.064C468.1 261.988 467.742 260.027 460.721 261.617C459.721 261.842 463.215 263.058 467.321 263.346ZM531.942 264.042C521.937 262.74 558.865 264.134 542.93 263.054C547.475 262.458 546.632 262.464 542.052 261.933C541.649 261.885 544.813 261.721 544.544 261.7C540.261 261.407 535.101 261.564 535.066 261.033C533.908 261.061 532.819 261.087 531.661 261.116C536.485 261.614 528.814 261.952 525.848 262.372C524.497 262.562 527.602 262.621 526.466 262.788C526.044 262.849 521.708 262.726 521.53 262.9C521.161 263.294 523.885 263.828 528.502 264.123C528.502 264.123 528.502 264.124 528.502 264.124C529.659 264.099 530.784 264.069 531.942 264.042ZM318.097 262.829C316.395 262.21 309.569 262.039 322.682 261.734C322.033 261.612 321.365 261.491 320.716 261.37C318.505 261.382 316.363 261.394 314.116 261.405C307.376 263.209 295.073 261.179 302.953 262.45C303.813 262.588 309.058 262.438 303.88 262.808C303.887 262.809 303.894 262.809 303.901 262.809C311.131 262.701 312.042 262.482 318.097 262.829ZM366.493 262.419C383.169 261.054 343.449 261.67 350.085 262.021C350.682 262.054 367.792 261.761 366.493 262.419ZM232.68 263.373C240.156 263.409 240.652 262.772 239.898 262.543C239.143 262.313 233.966 262.541 233.298 262.504C231.121 262.385 235.738 262.309 232.912 262.146C231.976 262.092 218.954 261.871 218.357 261.899C215.044 262.046 219.888 262.554 218.94 262.613C215.851 262.8 211.657 262.533 210.761 262.799C208.83 263.366 216.651 262.78 217.971 262.77C221.956 262.747 221.608 263.072 224.592 263.143C227.574 263.214 229.522 263.105 232.153 263.132C233.029 263.142 232.301 263.37 232.68 263.373ZM257.401 262.046C249.592 262.532 268.605 263.088 270.86 262.977C277.496 262.631 261.14 261.806 257.401 262.046ZM506.891 262.085C499.749 262.525 516.387 262.887 521.144 262.711C520.261 262.525 509.348 261.932 506.891 262.085ZM446.749 263.15C453.315 263.021 444.608 262.052 439.132 262.068C435.921 262.698 438.942 262.573 442.523 262.601C446.099 262.628 441.628 263.25 446.749 263.15ZM151.588 262.7C153.004 262.714 175.833 262.356 162.716 262.19C161.715 262.179 145.736 262.238 144.525 262.304C142.088 262.438 147.937 262.674 151.588 262.7ZM415.26 264.041C418.736 263.51 422.155 263.519 418.96 262.885C418.956 262.885 418.951 262.885 418.946 262.885C427.74 262.696 428.13 263.996 430.025 263.971C436.656 263.881 430.374 262.947 434.533 262.645C424.861 262.926 427.635 262.303 420.28 262.263C418.63 262.254 412.027 262.622 411.062 262.85C410.098 263.078 413.47 263.769 415.26 264.041ZM119.341 262.744C127.046 262.9 134.101 262.307 123.413 262.207C118.199 262.161 114.636 262.653 119.341 262.744ZM724.904 83.0357C724.665 84.2116 724.427 85.4229 724.19 86.6866C724.131 83.844 724.071 80.9987 724.012 78.1561C724.088 80.403 724.163 82.6529 724.239 84.9173C724.321 79.581 724.753 77.1412 724.904 83.0217C724.904 83.0263 724.904 83.031 724.904 83.0357ZM585.689 16.6236C583.302 16.4293 578.598 17.0491 579.195 17.0954C583.687 17.4481 589.003 16.8959 585.689 16.6236ZM517.444 264.273C526.319 264.383 520.216 263.203 514.776 263.121C518.104 263.347 512.407 264.211 517.444 264.273ZM652.501 16.5833C653.297 16.6743 654.1 16.7654 654.993 16.8568C652.186 16.7315 651.699 16.6464 652.501 16.5833ZM155.218 263.412C156.573 263.476 166.593 263.557 167.947 263.483C170.755 263.325 162.941 262.858 158.342 262.988C157.833 263.003 153.87 263.347 155.239 263.412C155.232 263.412 155.225 263.412 155.218 263.412ZM725.337 71.0298C725.326 71.0455 725.316 71.0371 725.306 71.0088C725.316 71.019 725.327 71.0161 725.337 71.0298ZM386.223 16.1051C386.278 16.1161 386.307 16.1271 386.301 16.1378C386.28 16.1274 386.237 16.1165 386.223 16.1051ZM225.891 264.358C229.226 265.232 236.914 264.806 230.841 264.353C230.501 264.329 226.7 264.363 225.891 264.358Z" fill="url(#paint0_linear_2049_639)"/>
</g>
<defs>
<filter id="filter0_dn_2049_639" x="0" y="0" width="747.785" height="290.854" filterUnits="userSpaceOnUse" color-interpolation-filters="sRGB">
<feFlood flood-opacity="0" result="BackgroundImageFix"/>
<feColorMatrix in="SourceAlpha" type="matrix" values="0 0 0 0 0 0 0 0 0 0 0 0 0 0 0 0 0 0 127 0" result="hardAlpha"/>
<feMorphology radius="5" operator="erode" in="SourceAlpha" result="effect1_dropShadow_2049_639"/>
<feOffset dy="4"/>
<feGaussianBlur stdDeviation="12.5"/>
<feComposite in2="hardAlpha" operator="out"/>
<feColorMatrix type="matrix" values="0 0 0 0 0.109804 0 0 0 0 0.105882 0 0 0 0 0.121569 0 0 0 1 0"/>
<feBlend mode="normal" in2="BackgroundImageFix" result="effect1_dropShadow_2049_639"/>
<feBlend mode="normal" in="SourceGraphic" in2="BackgroundImageFix" result="shape"/>
<feTurbulence type="fractalNoise" baseFrequency="2 2" stitchTiles="stitch" numOctaves="3" result="noise" seed="4476" />
<feColorMatrix in="noise" type="luminanceToAlpha" result="alphaNoise" />
<feComponentTransfer in="alphaNoise" result="coloredNoise1">
<feFuncA type="discrete" tableValues="1 1 1 1 1 1 1 1 1 1 1 1 1 1 1 1 1 1 1 1 1 1 1 1 1 1 1 1 1 1 1 1 1 1 1 1 1 1 1 1 1 1 1 1 1 1 1 1 1 1 1 0 0 0 0 0 0 0 0 0 0 0 0 0 0 0 0 0 0 0 0 0 0 0 0 0 0 0 0 0 0 0 0 0 0 0 0 0 0 0 0 0 0 0 0 0 0 0 0 0 "/>
</feComponentTransfer>
<feComposite operator="in" in2="shape" in="coloredNoise1" result="noise1Clipped" />
<feFlood flood-color="#D8D8D8" result="color1Flood" />
<feComposite operator="in" in2="noise1Clipped" in="color1Flood" result="color1" />
<feMerge result="effect2_noise_2049_639">
<feMergeNode in="shape" />
<feMergeNode in="color1" />
</feMerge>
<feBlend mode="normal" in="effect2_noise_2049_639" in2="effect1_dropShadow_2049_639" result="effect2_noise_2049_639"/>
</filter>
<linearGradient id="paint0_linear_2049_639" x1="150.995" y1="-62.1665" x2="501.999" y2="419.917" gradientUnits="userSpaceOnUse">
<stop stop-color="white" stop-opacity="0.5"/>
<stop offset="1" stop-color="#FF0085" stop-opacity="0.3"/>
</linearGradient>
</defs>
</svg>
