<svg width="35" height="35" viewBox="0 0 35 35" fill="none" xmlns="http://www.w3.org/2000/svg">
<path d="M31.8182 0H3.18182C1.42386 0 0 1.42386 0 3.18182V31.8182C0 33.5761 1.42386 35 3.18182 35H19.0909V20.6818H14.3182V15.9091H19.0909V13.3461C19.0909 8.49386 21.455 6.36364 25.488 6.36364C27.4193 6.36364 28.4407 6.50682 28.9243 6.57204V11.1364H26.1736C24.4618 11.1364 23.8636 12.04 23.8636 13.8695V15.9091H28.8814L28.2005 20.6818H23.8636V35H31.8182C33.5761 35 35 33.5761 35 31.8182V3.18182C35 1.42386 33.5745 0 31.8182 0Z" fill="white"/>
</svg>
