<svg width="142" height="692" viewBox="0 0 142 692" fill="none" xmlns="http://www.w3.org/2000/svg">
<path d="M31.7558 583.753H29.1383L20.1993 600.556H0L22.5081 554H42.8555L37.7687 564.951H70.7592V583.148H50.56V692H31.7435V583.753H31.7558ZM95.4404 674.099H110.553V583.136H91.8969L83.7233 600.556H63.6846L85.2667 554H104.688L99.2926 564.951H142V583.148H129.357V692H82.18L95.4404 674.111V674.099Z" fill="#FF0085"/>
<path d="M39.4172 503H20.7032V398.44H0L9.19736 379.836H20.7032V364.457H39.4172V379.836H56.9031V398.44H39.7241L39.4172 503ZM17.0316 410.433V465.791L3.22951 482.549V410.433H17.0316ZM56.4365 410.433V446.879L42.794 463.488V410.445H56.4365V410.433ZM63.6446 503V458.871H58.2785V441.19H63.6446V399.056H136.02V441.19H142V458.871H136.02V489.321L123.139 503H63.6446ZM61.0414 370.921L80.357 360V369.998H139.397V387.839H80.357V395.83H61.0414V370.921ZM81.8919 416.281V441.35H117.773V416.281H81.8919ZM117.773 458.723H81.8919V485.787H117.773V458.723ZM108.575 432.744L91.7032 439.195V420.283H108.575V432.744ZM108.575 476.417L91.7032 482.413V463.045H108.575V476.417Z" fill="#FF0085"/>
<path d="M65.7882 283.358H0L12.6219 264.521H65.7882V212.282H28.2383V237.926L8.51569 252.492V183H28.2383V193.293H134.899V212.295H85.9909V264.534H142V283.371H85.9909V325H65.8009V283.371L65.7882 283.358Z" fill="#FF0085"/>
<path d="M3.85455 37.1334H61.1702V19.1266H0L14.8123 0H142V19.1266H81.3067V37.1334H138.133V140H95.9515L108.998 121.517H118.821V56.5818H81.3067V66.8659L110.764 91.939V116.536L71.9604 83.74L31.2361 118.775V93.2132L61.1831 67.0074V56.556H23.0242V139.974H3.86745V37.1334H3.85455Z" fill="#FF0085"/>
</svg>
