<svg width="211" height="51" viewBox="0 0 211 51" fill="none" xmlns="http://www.w3.org/2000/svg">
<path d="M1.29691 15.5671H20.5814V9.49055H0L4.98378 3.03613H47.7776V9.49055H27.3566V15.5671H46.4763V50.2802H32.284L36.6736 44.043H39.9787V22.1301H27.3566V25.6005L37.2678 34.0616V42.362L24.2119 31.2948L10.5098 43.1178V34.4916L20.5858 25.6483V22.1214H7.74677V50.2715H1.30125V15.5671H1.29691Z" fill="#FF0085"/>
<path d="M75.9916 36.0683H53.4062L57.7394 29.6138H75.9916V11.7144H63.1006V20.5012L56.3297 25.4919V1.68091H63.1006V5.20782H99.7177V11.7187H82.9273V29.6182H102.155V36.0726H82.9273V50.3366H75.996V36.0726L75.9916 36.0683Z" fill="#FF0085"/>
<path d="M120.951 50.4452H114.34V13.5604H107.027L110.276 6.99735H114.34V1.57234H120.951V6.99735H127.127V13.5604H121.059L120.951 50.4452ZM113.043 17.7909V37.3192L108.168 43.2307V17.7909H113.043ZM126.963 17.7909V30.6476L122.144 36.507V17.7952H126.963V17.7909ZM129.509 50.4452V34.8782H127.613V28.6409H129.509V13.7775H155.074V28.6409H157.186V34.8782H155.074V45.6196L150.524 50.4452H129.509ZM128.589 3.85267L135.412 0V3.52691H156.267V9.82062H135.412V12.6395H128.589V3.85267ZM135.954 19.8541V28.6974H148.628V19.8541H135.954ZM148.628 34.826H135.954V44.373H148.628V34.826ZM145.38 25.6613L139.42 27.9373V21.2657H145.38V25.6613ZM145.38 41.0676L139.42 43.1829V36.3506H145.38V41.0676Z" fill="#FF0085"/>
<path d="M172.086 12.2573H171.166L168.026 18.1688H160.93L168.837 1.78955H175.985L174.198 5.64222H185.788V12.0445H178.692V50.341H172.081V12.2573H172.086ZM194.459 44.0429H199.768V12.0402H193.214L190.342 18.1688H183.303L190.884 1.78955H197.707L195.812 5.64222H210.815V12.0445H206.374V50.341H189.8L194.459 44.0473V44.0429Z" fill="#FF0085"/>
</svg>
