<svg width="16" height="16" viewBox="0 0 16 16" fill="none" xmlns="http://www.w3.org/2000/svg">
<path d="M14.8993 16L12.5799 13.6834V15.4307H11.0074V10.9939H15.4496V12.5644H13.6806L16 14.881L14.8993 16ZM7.86241 15.7055C6.77477 15.7055 5.75266 15.4994 4.79607 15.0871C3.83948 14.6748 3.00737 14.1153 2.29975 13.4086C1.59214 12.7018 1.03194 11.8708 0.619165 10.9153C0.206388 9.95992 0 8.93906 0 7.85276C0 6.76646 0.206388 5.7456 0.619165 4.79018C1.03194 3.83476 1.59214 3.00368 2.29975 2.29693C3.00737 1.59018 3.83948 1.03067 4.79607 0.618405C5.75266 0.206135 6.77477 0 7.86241 0C8.95004 0 9.97215 0.206135 10.9287 0.618405C11.8853 1.03067 12.7174 1.59018 13.4251 2.29693C14.1327 3.00368 14.6929 3.83476 15.1056 4.79018C15.5184 5.7456 15.7248 6.76646 15.7248 7.85276C15.7248 8.11452 15.7117 8.37628 15.6855 8.63804C15.6593 8.8998 15.62 9.16155 15.5676 9.42331H13.9558C14.0213 9.16155 14.0704 8.8998 14.1032 8.63804C14.136 8.37628 14.1523 8.11452 14.1523 7.85276C14.1523 7.591 14.136 7.32924 14.1032 7.06748C14.0704 6.80573 14.0213 6.54397 13.9558 6.28221H11.2826C11.3219 6.54397 11.3514 6.80573 11.371 7.06748C11.3907 7.32924 11.4005 7.591 11.4005 7.85276C11.4005 8.11452 11.3907 8.37628 11.371 8.63804C11.3514 8.8998 11.3219 9.16155 11.2826 9.42331H9.71007C9.74939 9.16155 9.77887 8.8998 9.79853 8.63804C9.81818 8.37628 9.82801 8.11452 9.82801 7.85276C9.82801 7.591 9.81818 7.32924 9.79853 7.06748C9.77887 6.80573 9.74939 6.54397 9.71007 6.28221H6.01474C5.97543 6.54397 5.94595 6.80573 5.92629 7.06748C5.90663 7.32924 5.89681 7.591 5.89681 7.85276C5.89681 8.11452 5.90663 8.37628 5.92629 8.63804C5.94595 8.8998 5.97543 9.16155 6.01474 9.42331H8.64865V10.9939H6.36855C6.5258 11.5566 6.72891 12.0965 6.97789 12.6135C7.22686 13.1305 7.5217 13.6245 7.86241 14.0957C8.12449 14.0957 8.38657 14.0793 8.64865 14.0466C8.91073 14.0139 9.17281 13.9845 9.43489 13.9583V15.5681C9.17281 15.5943 8.91073 15.6237 8.64865 15.6564C8.38657 15.6892 8.12449 15.7055 7.86241 15.7055ZM1.76904 9.42331H4.44226C4.40295 9.16155 4.37346 8.8998 4.35381 8.63804C4.33415 8.37628 4.32432 8.11452 4.32432 7.85276C4.32432 7.591 4.33415 7.32924 4.35381 7.06748C4.37346 6.80573 4.40295 6.54397 4.44226 6.28221H1.76904C1.70352 6.54397 1.65438 6.80573 1.62162 7.06748C1.58886 7.32924 1.57248 7.591 1.57248 7.85276C1.57248 8.11452 1.58886 8.37628 1.62162 8.63804C1.65438 8.8998 1.70352 9.16155 1.76904 9.42331ZM2.43735 4.71166H4.75676C4.87469 4.2274 5.02211 3.75297 5.19902 3.28834C5.37592 2.82372 5.58231 2.36892 5.81818 1.92393C5.09746 2.15951 4.44881 2.51616 3.87224 2.99387C3.29566 3.47157 2.81736 4.04417 2.43735 4.71166ZM5.81818 13.7816C5.58231 13.3366 5.37592 12.8818 5.19902 12.4172C5.02211 11.9526 4.87469 11.4781 4.75676 10.9939H2.43735C2.81736 11.6613 3.29566 12.2339 3.87224 12.7117C4.44881 13.1894 5.09746 13.546 5.81818 13.7816ZM6.36855 4.71166H9.35627C9.19902 4.14888 8.9959 3.609 8.74693 3.09202C8.49795 2.57505 8.20311 2.08098 7.86241 1.60982C7.5217 2.08098 7.22686 2.57505 6.97789 3.09202C6.72891 3.609 6.5258 4.14888 6.36855 4.71166ZM10.9681 4.71166H13.2875C12.9075 4.04417 12.4292 3.47157 11.8526 2.99387C11.276 2.51616 10.6274 2.15951 9.90663 1.92393C10.1425 2.36892 10.3489 2.82372 10.5258 3.28834C10.7027 3.75297 10.8501 4.2274 10.9681 4.71166Z" fill="white"/>
</svg>
