<svg width="686" height="78" viewBox="0 0 686 78" fill="none" xmlns="http://www.w3.org/2000/svg">
<g filter="url(#filter0_f_14_122)">
<path d="M293 7C294.648 7 367.034 7 403.02 7L424.859 38.3166H678.859" stroke="#83D3CF" stroke-width="3" stroke-linecap="round"/>
</g>
<path d="M293 7C294.648 7 367.034 7 403.02 7L424.859 38.3166H678.859" stroke="#83D3CF" stroke-width="2" stroke-linecap="round"/>
<g filter="url(#filter1_f_14_122)">
<path d="M392.859 71.3166C391.211 71.3166 318.826 71.3166 282.839 71.3166L261 40L7 40" stroke="#E0A1F8" stroke-width="3" stroke-linecap="round"/>
</g>
<path d="M392.859 71.3166C391.211 71.3166 318.826 71.3166 282.839 71.3166L261 40L7 40" stroke="#E0A1F8" stroke-width="2" stroke-linecap="round"/>
<path d="M297.86 35.824V37.888H306.716V35.824H297.86ZM297.884 41.584V43.648H306.74V41.584H297.884ZM297.86 47.344V49.408H306.74V47.344H297.86ZM296.756 30.112V50.848H298.94V32.272H305.54V50.752H307.82V30.112H296.756ZM286.652 33.808V35.968H295.796V33.808H286.652ZM290.372 28.744V51.016H292.556V28.744H290.372ZM290.252 35.224C289.532 38.512 287.852 42.472 286.076 44.608C286.436 45.16 286.988 46.072 287.204 46.696C289.124 44.248 290.852 39.616 291.668 35.704L290.252 35.224ZM292.364 37.624L291.284 38.68C292.124 39.76 293.996 42.424 294.692 43.696L296.036 41.848C295.484 41.176 293.06 38.296 292.364 37.624ZM325.028 41.392C325.46 42.256 325.94 43.432 326.156 44.152L327.356 43.696C327.14 43.048 326.612 41.92 326.18 41.056L325.028 41.392ZM328.1 44.056V50.704H329.732V44.056H328.1ZM321.764 44.416V47.944H326.012V46.6H323.228V44.416H321.764ZM325.148 44.056V46.24C325.148 47.536 324.812 48.832 322.22 49.6C322.58 49.912 323.06 50.512 323.252 50.896C326.3 49.84 326.732 48.136 326.732 46.288V44.056H325.148ZM318.644 32.824V34.264H325.076V32.824H318.644ZM329.684 32.824V34.264H336.236V32.824H329.684ZM335.444 29.728V48.304C335.444 48.616 335.348 48.736 335.036 48.736C334.7 48.76 333.716 48.76 332.732 48.712C333.044 49.312 333.308 50.344 333.404 50.944C334.94 50.944 335.996 50.896 336.716 50.536C337.436 50.152 337.628 49.48 337.628 48.304V29.728H335.444ZM318.836 29.728V31.312H324.38V35.728H318.836V37.312H326.516V29.728H318.836ZM336.548 29.728H328.412V37.312H336.548V35.728H330.572V31.312H336.548V29.728ZM317.492 29.728V51.04H319.652V29.728H317.492ZM321.5 41.152C321.5 40.816 322.436 40.36 322.436 40.36V40.336C323.228 39.736 324.14 38.776 324.884 37.768L323.516 37.048C322.988 38.08 322.052 39.064 321.788 39.304C321.524 39.544 321.26 39.688 320.996 39.736C321.188 40.096 321.404 40.84 321.5 41.152ZM321.5 41.176C321.764 41.032 322.316 40.936 325.028 40.768C325.076 40.504 325.22 40.024 325.34 39.688L322.172 39.808L321.476 40.192L321.5 41.176ZM321.38 44.008C321.38 43.672 322.292 43.288 322.292 43.288V43.24C323.852 42.28 325.436 40.864 326.852 39.352L325.652 38.536C324.476 40.072 322.724 41.584 322.22 41.968C321.716 42.352 321.308 42.592 320.924 42.64C321.092 43 321.308 43.696 321.38 44.008ZM321.38 44.008C321.716 43.864 322.364 43.72 326.396 43.288C326.348 43.024 326.252 42.544 326.228 42.208L322.028 42.568L321.356 43L321.38 44.008ZM331.532 41.416C331.964 42.28 332.492 43.456 332.756 44.176L333.932 43.672C333.668 43.024 333.116 41.896 332.636 41.056L331.532 41.416ZM328.004 41.176C328.004 40.84 328.94 40.384 328.94 40.384V40.36C329.756 39.76 330.668 38.8 331.388 37.792L330.02 37.072C329.492 38.104 328.556 39.088 328.292 39.328C328.052 39.568 327.788 39.712 327.5 39.76C327.692 40.144 327.908 40.864 328.004 41.176ZM328.004 41.176C328.292 41.056 328.844 40.936 331.532 40.768C331.58 40.504 331.724 40.024 331.844 39.688L328.676 39.832L327.98 40.216L328.004 41.176ZM327.908 44.032C327.908 43.696 328.82 43.312 328.82 43.312V43.264C330.38 42.28 331.988 40.864 333.38 39.328L332.18 38.512C331.028 40.072 329.276 41.608 328.748 41.968C328.268 42.376 327.836 42.616 327.476 42.664C327.62 43.024 327.836 43.72 327.908 44.032ZM327.908 44.032C328.268 43.864 328.892 43.744 332.948 43.312C332.876 43.048 332.804 42.568 332.78 42.232L328.556 42.592L327.884 43.024L327.908 44.032ZM329.3 46.6V47.944H332.492V46.6H329.3ZM331.676 44.44V48.64H333.188V44.44H331.676ZM356.228 36.568V51.016H358.58V36.568H356.228ZM351.404 40.72H363.716V42.448H351.404V40.72ZM351.404 37.312H363.716V39.04H351.404V37.312ZM349.172 35.536V44.224H366.044V35.536H349.172ZM346.82 45.808V47.8H368.204V45.808H346.82ZM350.468 31.12H354.548V33.016H350.468V31.12ZM348.452 29.68V34.432H356.684V29.68H348.452ZM360.428 31.12H364.556V33.016H360.428V31.12ZM358.388 29.68V34.432H366.692V29.68H358.388ZM384.284 32.968V35.176H397.508V32.968H384.284ZM385.772 36.808C386.468 40.096 387.14 44.44 387.332 46.936L389.564 46.312C389.324 43.864 388.604 39.616 387.836 36.328L385.772 36.808ZM393.884 36.184C393.476 39.904 392.516 45.064 391.628 48.256L393.596 48.688C394.532 45.544 395.588 40.576 396.284 36.568L393.884 36.184ZM383.324 47.872V50.056H398.42V47.872H383.324ZM388.988 29.056C389.42 30.256 389.924 31.84 390.116 32.872L392.372 32.224C392.108 31.192 391.604 29.68 391.148 28.504L388.988 29.056ZM382.076 28.84C380.78 32.392 378.596 35.92 376.316 38.176C376.7 38.704 377.348 39.928 377.564 40.48C380.18 37.768 382.652 33.592 384.212 29.512L382.076 28.84ZM379.58 35.224V50.992H381.86V32.968L381.836 32.944L379.58 35.224Z" fill="#FDFDFD"/>
<defs>
<filter id="filter0_f_14_122" x="286.5" y="0.5" width="398.859" height="44.3166" filterUnits="userSpaceOnUse" color-interpolation-filters="sRGB">
<feFlood flood-opacity="0" result="BackgroundImageFix"/>
<feBlend mode="normal" in="SourceGraphic" in2="BackgroundImageFix" result="shape"/>
<feGaussianBlur stdDeviation="2.5" result="effect1_foregroundBlur_14_122"/>
</filter>
<filter id="filter1_f_14_122" x="0.5" y="33.5" width="398.859" height="44.3166" filterUnits="userSpaceOnUse" color-interpolation-filters="sRGB">
<feFlood flood-opacity="0" result="BackgroundImageFix"/>
<feBlend mode="normal" in="SourceGraphic" in2="BackgroundImageFix" result="shape"/>
<feGaussianBlur stdDeviation="2.5" result="effect1_foregroundBlur_14_122"/>
</filter>
</defs>
</svg>
