<svg width="686" height="78" viewBox="0 0 686 78" fill="none" xmlns="http://www.w3.org/2000/svg">
<g filter="url(#filter0_f_14_106)">
<path d="M293 7C294.648 7 367.034 7 403.02 7L424.859 38.3166H678.859" stroke="#83D3CF" stroke-width="3" stroke-linecap="round"/>
</g>
<path d="M293 7C294.648 7 367.034 7 403.02 7L424.859 38.3166H678.859" stroke="#83D3CF" stroke-width="2" stroke-linecap="round"/>
<g filter="url(#filter1_f_14_106)">
<path d="M392.859 71.3166C391.211 71.3166 318.826 71.3166 282.839 71.3166L261 40L7 40" stroke="#E0A1F8" stroke-width="3" stroke-linecap="round"/>
</g>
<path d="M392.859 71.3166C391.211 71.3166 318.826 71.3166 282.839 71.3166L261 40L7 40" stroke="#E0A1F8" stroke-width="2" stroke-linecap="round"/>
<path d="M291.572 36.856V38.992H303.38V36.856H291.572ZM288.164 41.872V44.032H306.836V41.872H288.164ZM288.356 29.848V31.768H295.292V29.848H288.356ZM294.572 29.848V30.232C293.3 34.24 289.796 37.504 286.076 38.92C286.508 39.304 287.108 40.12 287.372 40.672C291.5 38.872 295.196 35.44 296.804 30.376L295.364 29.752L294.98 29.848H294.572ZM299.564 28.696L297.572 29.296C299.492 34.264 302.828 38.272 307.268 40.336C307.628 39.736 308.3 38.848 308.828 38.416C304.58 36.712 301.22 33.016 299.564 28.696ZM287.444 33.784C288.668 34.552 290.18 35.68 290.924 36.472L292.364 34.984C291.596 34.24 290.036 33.184 288.836 32.488L287.444 33.784ZM303.572 29.008C302.636 30.064 301.028 31.504 299.852 32.344L301.292 33.448C302.492 32.656 304.1 31.432 305.396 30.28L303.572 29.008ZM306.668 32.104C305.612 33.136 303.764 34.576 302.468 35.392L303.884 36.52C305.252 35.728 307.004 34.504 308.396 33.352L306.668 32.104ZM296.252 37.768V41.392C296.252 43.936 295.316 47.08 287.132 49.216C287.66 49.696 288.356 50.56 288.644 51.064C297.356 48.592 298.652 44.776 298.652 41.416V37.768H296.252ZM297.884 46.72C300.74 47.968 304.652 49.888 306.596 51.088L307.964 49.144C305.948 47.944 301.988 46.144 299.18 44.992L297.884 46.72ZM335.252 31.072V44.176C335.252 44.488 335.156 44.608 334.82 44.608C334.46 44.632 333.38 44.632 332.204 44.584C332.54 45.208 332.924 46.24 333.02 46.864C334.604 46.864 335.708 46.816 336.476 46.432C337.244 46.048 337.46 45.352 337.46 44.224V31.072H335.252ZM324.332 33.376V39.712C324.332 43.312 323.636 46.984 317.732 49.312C318.188 49.72 318.86 50.56 319.148 51.064C325.676 48.4 326.492 44.08 326.492 39.736V33.376H324.332ZM328.844 31.072V51.016H331.028V33.184H336.5V31.072H328.844ZM325.124 29.032C323.348 30.04 320.372 31.264 318.188 31.912L319.652 33.232C321.86 32.632 324.812 31.624 327.116 30.52L325.124 29.032ZM318.212 46.024C318.212 45.256 320.42 43.936 320.42 43.936V31.912H318.188V42.448C318.188 43.48 317.684 44.008 317.252 44.248C317.588 44.656 318.044 45.52 318.212 46.024ZM318.212 46.048C318.716 45.64 319.604 45.28 325.388 43.384C325.268 42.928 325.1 42.064 325.076 41.488L318.86 43.336L317.972 44.104L318.212 46.048ZM357.188 31.24V33.232H368.156V31.24H357.188ZM357.284 35.2V37.048H365.42V35.2H357.284ZM354.068 40.336V42.256H368.612V40.336H354.068ZM356.012 45.76V47.632H368.3V45.76H356.012ZM357.188 28.72C356.492 31.288 355.244 33.808 353.684 35.44C354.164 35.752 354.98 36.424 355.34 36.784C356.948 34.96 358.388 32.104 359.228 29.176L357.188 28.72ZM365.132 35.2V35.656C364.892 44.728 364.58 47.992 364.028 48.688C363.812 49 363.596 49.048 363.26 49.048C362.828 49.048 361.964 49.048 361.004 48.952C361.316 49.48 361.532 50.296 361.556 50.848C362.588 50.896 363.572 50.896 364.196 50.824C364.916 50.728 365.396 50.512 365.828 49.864C366.572 48.88 366.86 45.688 367.172 36.184C367.172 35.92 367.172 35.2 367.172 35.2H365.132ZM359.444 38.176C360.38 38.8 361.7 39.784 362.396 40.36L363.596 39.136C362.9 38.584 361.604 37.696 360.62 37.096L359.444 38.176ZM359.06 43.336C359.996 43.984 361.316 45.016 362.012 45.664L363.236 44.44C362.54 43.864 361.244 42.904 360.236 42.256L359.06 43.336ZM356.444 35.2C356.156 39.136 355.484 44.464 354.908 47.632H357.02C357.524 44.56 358.124 39.232 358.508 35.2H356.444ZM346.604 33.736V35.8H353.516V33.736H346.604ZM349.244 28.744V51.016H351.308V28.744H349.244ZM349.292 35.128C348.788 38.368 347.492 42.472 346.124 44.728C346.46 45.232 346.964 46.072 347.204 46.672C348.764 44.128 350.06 39.28 350.684 35.536L349.292 35.128ZM351.236 36.376L350.276 37.48C350.852 38.536 352.268 41.416 352.748 42.784L353.948 40.936C353.588 40.216 351.692 37.072 351.236 36.376ZM380.3 28.744C379.436 32.584 377.948 36.424 376.004 38.8C376.58 39.136 377.636 39.808 378.068 40.192C379.988 37.552 381.644 33.424 382.676 29.224L380.3 28.744ZM379.748 33.544L378.644 35.776H387.428V33.544H379.748ZM389.588 28.744C388.772 32.584 387.332 36.376 385.412 38.752C385.94 39.064 386.948 39.76 387.332 40.12C389.276 37.504 390.884 33.4 391.868 29.2L389.588 28.744ZM389.756 33.544L388.652 35.776H398.66V33.544H389.756ZM381.236 34.552V51.016H383.516V34.552H381.236ZM392.9 34.408V48.16C392.9 48.52 392.78 48.616 392.372 48.64C391.964 48.664 390.548 48.664 389.156 48.592C389.492 49.288 389.828 50.32 389.924 50.992C391.82 50.992 393.212 50.944 394.076 50.56C394.964 50.2 395.228 49.528 395.228 48.184V34.408H392.9Z" fill="#FDFDFD"/>
<defs>
<filter id="filter0_f_14_106" x="286.5" y="0.5" width="398.859" height="44.3166" filterUnits="userSpaceOnUse" color-interpolation-filters="sRGB">
<feFlood flood-opacity="0" result="BackgroundImageFix"/>
<feBlend mode="normal" in="SourceGraphic" in2="BackgroundImageFix" result="shape"/>
<feGaussianBlur stdDeviation="2.5" result="effect1_foregroundBlur_14_106"/>
</filter>
<filter id="filter1_f_14_106" x="0.5" y="33.5" width="398.859" height="44.3166" filterUnits="userSpaceOnUse" color-interpolation-filters="sRGB">
<feFlood flood-opacity="0" result="BackgroundImageFix"/>
<feBlend mode="normal" in="SourceGraphic" in2="BackgroundImageFix" result="shape"/>
<feGaussianBlur stdDeviation="2.5" result="effect1_foregroundBlur_14_106"/>
</filter>
</defs>
</svg>
