<svg width="725" height="78" viewBox="0 0 725 78" fill="none" xmlns="http://www.w3.org/2000/svg">
<g filter="url(#filter0_f_14_113)">
<path d="M332 7C333.648 7 406.034 7 442.02 7L463.859 38.3166H717.859" stroke="#83D3CF" stroke-width="3" stroke-linecap="round"/>
</g>
<path d="M332 7C333.648 7 406.034 7 442.02 7L463.859 38.3166H717.859" stroke="#83D3CF" stroke-width="2" stroke-linecap="round"/>
<g filter="url(#filter1_f_14_113)">
<path d="M392.859 71.3166C391.211 71.3166 318.826 71.3166 282.839 71.3166L261 40L7 40" stroke="#E0A1F8" stroke-width="3" stroke-linecap="round"/>
</g>
<path d="M392.859 71.3166C391.211 71.3166 318.826 71.3166 282.839 71.3166L261 40L7 40" stroke="#E0A1F8" stroke-width="2" stroke-linecap="round"/>
<path d="M302.188 31.24V33.232H313.156V31.24H302.188ZM302.284 35.2V37.048H310.42V35.2H302.284ZM299.068 40.336V42.256H313.612V40.336H299.068ZM301.012 45.76V47.632H313.3V45.76H301.012ZM302.188 28.72C301.492 31.288 300.244 33.808 298.684 35.44C299.164 35.752 299.98 36.424 300.34 36.784C301.948 34.96 303.388 32.104 304.228 29.176L302.188 28.72ZM310.132 35.2V35.656C309.892 44.728 309.58 47.992 309.028 48.688C308.812 49 308.596 49.048 308.26 49.048C307.828 49.048 306.964 49.048 306.004 48.952C306.316 49.48 306.532 50.296 306.556 50.848C307.588 50.896 308.572 50.896 309.196 50.824C309.916 50.728 310.396 50.512 310.828 49.864C311.572 48.88 311.86 45.688 312.172 36.184C312.172 35.92 312.172 35.2 312.172 35.2H310.132ZM304.444 38.176C305.38 38.8 306.7 39.784 307.396 40.36L308.596 39.136C307.9 38.584 306.604 37.696 305.62 37.096L304.444 38.176ZM304.06 43.336C304.996 43.984 306.316 45.016 307.012 45.664L308.236 44.44C307.54 43.864 306.244 42.904 305.236 42.256L304.06 43.336ZM301.444 35.2C301.156 39.136 300.484 44.464 299.908 47.632H302.02C302.524 44.56 303.124 39.232 303.508 35.2H301.444ZM291.604 33.736V35.8H298.516V33.736H291.604ZM294.244 28.744V51.016H296.308V28.744H294.244ZM294.292 35.128C293.788 38.368 292.492 42.472 291.124 44.728C291.46 45.232 291.964 46.072 292.204 46.672C293.764 44.128 295.06 39.28 295.684 35.536L294.292 35.128ZM296.236 36.376L295.276 37.48C295.852 38.536 297.268 41.416 297.748 42.784L298.948 40.936C298.588 40.216 296.692 37.072 296.236 36.376ZM325.3 28.744C324.436 32.584 322.948 36.424 321.004 38.8C321.58 39.136 322.636 39.808 323.068 40.192C324.988 37.552 326.644 33.424 327.676 29.224L325.3 28.744ZM324.748 33.544L323.644 35.776H332.428V33.544H324.748ZM334.588 28.744C333.772 32.584 332.332 36.376 330.412 38.752C330.94 39.064 331.948 39.76 332.332 40.12C334.276 37.504 335.884 33.4 336.868 29.2L334.588 28.744ZM334.756 33.544L333.652 35.776H343.66V33.544H334.756ZM326.236 34.552V51.016H328.516V34.552H326.236ZM337.9 34.408V48.16C337.9 48.52 337.78 48.616 337.372 48.64C336.964 48.664 335.548 48.664 334.156 48.592C334.492 49.288 334.828 50.32 334.924 50.992C336.82 50.992 338.212 50.944 339.076 50.56C339.964 50.2 340.228 49.528 340.228 48.184V34.408H337.9ZM352.132 30.184V34.024H354.196V31.96H370.78V34.024H372.94V30.184H352.132ZM357.892 32.344V38.632H360.004V32.344H357.892ZM364.996 32.344V38.632H367.132V32.344H364.996ZM354.412 33.28V34.6H370.588V33.28H354.412ZM354.748 35.512V36.76H370.372V35.512H354.748ZM351.916 37.648V39.28H373.156V37.648H351.916ZM358.252 38.08C356.788 39.808 353.884 41.32 351.196 42.064C351.652 42.448 352.252 43.216 352.564 43.696C355.324 42.784 358.276 40.864 359.932 38.776L358.252 38.08ZM367.012 37.984L365.356 38.632C366.916 40.672 369.7 42.544 372.388 43.408C372.7 42.88 373.324 42.088 373.804 41.68C371.164 41.032 368.404 39.616 367.012 37.984ZM357.772 43.576H367.156V44.512H357.772V43.576ZM357.772 45.688H367.156V46.672H357.772V45.688ZM357.772 41.488H367.156V42.424H357.772V41.488ZM355.684 40.288V47.848H369.34V40.288H355.684ZM363.844 48.688C366.532 49.432 369.196 50.32 370.804 50.944L372.676 49.672C370.876 49.048 367.924 48.16 365.284 47.464L363.844 48.688ZM359.26 47.44C357.748 48.232 354.532 49.12 351.916 49.528C352.324 49.912 352.924 50.608 353.236 50.992C355.852 50.56 359.092 49.648 361.036 48.592L359.26 47.44ZM361.012 29.104C361.42 29.824 361.828 30.808 361.972 31.432L364.324 30.736C364.156 30.136 363.7 29.176 363.268 28.504L361.012 29.104ZM384.628 29.776V31.84H403.228V29.776H384.628ZM384.94 48.496V50.392H403.276V48.496H384.94ZM394.372 44.152V45.952H401.092V44.152H394.372ZM383.188 29.776V37.024C383.188 40.816 383.02 46.168 381.148 49.912C381.7 50.128 382.636 50.656 383.068 50.968C385.06 47.008 385.348 41.056 385.348 37.024V29.776H383.188ZM393.172 41.944V49.552H395.38V41.944H393.172ZM387.82 43.648V49.576H389.98V43.648H387.82ZM385.972 35.848V37.48H393.436V35.848H385.972ZM388.852 33.256V42.04H390.748V33.256H388.852ZM388.612 36.544C387.82 38.104 386.356 39.784 384.964 40.6C385.372 40.936 385.924 41.536 386.212 41.992C387.628 40.912 389.092 38.896 389.884 37.024L388.612 36.544ZM394.108 35.848V37.48H402.796V35.848H394.108ZM397.18 33.256V42.04H399.1V33.256H397.18ZM396.628 36.544C395.86 38.08 394.3 39.76 392.86 40.576C393.268 40.912 393.82 41.536 394.108 41.992C395.596 40.936 397.132 38.896 397.924 37L396.628 36.544ZM390.652 37.408L389.548 38.248C390.22 38.752 391.708 40.096 392.26 40.696L393.388 39.28C392.932 38.92 391.204 37.744 390.652 37.408ZM391.708 32.224C390.436 32.752 388.012 33.136 385.9 33.328C386.116 33.688 386.332 34.288 386.428 34.648C388.684 34.504 391.396 34.096 393.172 33.376L391.708 32.224ZM400.372 32.128C398.98 32.704 396.292 33.064 393.988 33.28C394.18 33.616 394.42 34.24 394.492 34.6C396.964 34.456 399.916 34.024 401.86 33.304L400.372 32.128ZM399.124 37.504L398.092 38.464C399.076 39.16 401.428 41.056 402.316 41.92L403.348 40.408C402.676 39.904 399.94 37.984 399.124 37.504ZM421.348 28.864V39.208C421.348 43.504 420.604 47.224 411.388 49.048C411.868 49.552 412.492 50.536 412.756 51.064C422.356 48.856 423.7 44.296 423.7 39.208V28.864H421.348ZM415.516 34.576H429.508V38.584H415.516V34.576ZM413.284 32.392V40.768H431.836V32.392H413.284ZM416.428 41.344L414.364 42.088C417.58 48.88 423.412 50.392 432.748 50.896C432.892 50.104 433.348 49.12 433.804 48.568C424.708 48.28 419.452 47.224 416.428 41.344Z" fill="#FDFDFD"/>
<defs>
<filter id="filter0_f_14_113" x="325.5" y="0.5" width="398.859" height="44.3166" filterUnits="userSpaceOnUse" color-interpolation-filters="sRGB">
<feFlood flood-opacity="0" result="BackgroundImageFix"/>
<feBlend mode="normal" in="SourceGraphic" in2="BackgroundImageFix" result="shape"/>
<feGaussianBlur stdDeviation="2.5" result="effect1_foregroundBlur_14_113"/>
</filter>
<filter id="filter1_f_14_113" x="0.5" y="33.5" width="398.859" height="44.3166" filterUnits="userSpaceOnUse" color-interpolation-filters="sRGB">
<feFlood flood-opacity="0" result="BackgroundImageFix"/>
<feBlend mode="normal" in="SourceGraphic" in2="BackgroundImageFix" result="shape"/>
<feGaussianBlur stdDeviation="2.5" result="effect1_foregroundBlur_14_113"/>
</filter>
</defs>
</svg>
