<svg width="686" height="78" viewBox="0 0 686 78" fill="none" xmlns="http://www.w3.org/2000/svg">
<g filter="url(#filter0_f_19_303)">
<path d="M293 7C294.648 7 367.034 7 403.02 7L424.859 38.3166H678.859" stroke="#83D3CF" stroke-width="3" stroke-linecap="round"/>
</g>
<path d="M293 7C294.648 7 367.034 7 403.02 7L424.859 38.3166H678.859" stroke="#83D3CF" stroke-width="2" stroke-linecap="round"/>
<g filter="url(#filter1_f_19_303)">
<path d="M392.859 71.3166C391.211 71.3166 318.826 71.3166 282.839 71.3166L261 40L7 40" stroke="#E0A1F8" stroke-width="3" stroke-linecap="round"/>
</g>
<path d="M392.859 71.3166C391.211 71.3166 318.826 71.3166 282.839 71.3166L261 40L7 40" stroke="#E0A1F8" stroke-width="2" stroke-linecap="round"/>
<path d="M299.228 36.832V39.04H308.588V36.832H299.228ZM303.788 38.392V50.92H306.044V38.392H303.788ZM287.708 31.024V39.568C287.708 42.712 287.588 46.816 286.052 49.672C286.556 49.936 287.516 50.704 287.9 51.112C289.7 47.968 289.94 43.048 289.94 39.568V31.024H287.708ZM306.692 29.032C304.676 29.92 301.268 30.664 298.292 31.072C298.556 31.6 298.868 32.44 298.964 32.992C302.012 32.608 305.684 31.96 308.204 31L306.692 29.032ZM288.956 34.792V36.832H294.116V40.264H288.956V42.304H296.324V34.792H288.956ZM295.916 29.224C293.948 30.064 290.588 30.688 287.708 31.024C287.972 31.552 288.26 32.368 288.356 32.896C291.332 32.632 294.932 32.08 297.38 31.144L295.916 29.224ZM298.292 31.072V38.848C298.292 42.256 298.004 46.576 294.932 49.552C295.436 49.864 296.372 50.656 296.732 51.088C300.068 47.896 300.596 42.64 300.596 38.872V31.072H298.292ZM316.916 31.768V33.904H338.108V31.768H316.916ZM322.772 40.384V42.304H333.908V40.384H322.772ZM333.116 36.304V48.376C333.116 48.712 332.996 48.832 332.588 48.856C332.156 48.856 330.716 48.88 329.276 48.808C329.588 49.408 329.9 50.368 329.996 50.992C332.012 50.992 333.356 50.992 334.22 50.632C335.108 50.272 335.348 49.624 335.348 48.4V36.304H333.116ZM324.596 28.744C323.348 33.4 320.612 38.44 316.412 41.296C316.844 41.728 317.564 42.52 317.9 43.048C322.412 39.856 325.292 34.528 326.924 29.272L324.596 28.744ZM322.652 44.392V46.312H333.908V44.392H322.652ZM322.628 36.304V38.32H333.692V36.304H322.628ZM321.404 36.304V42.664C321.404 44.92 321.188 47.56 319.172 49.432C319.604 49.744 320.492 50.704 320.78 51.184C323.228 49 323.684 45.448 323.684 42.688V36.304H321.404ZM347.132 30.184V34.024H349.196V31.96H365.78V34.024H367.94V30.184H347.132ZM352.892 32.344V38.632H355.004V32.344H352.892ZM359.996 32.344V38.632H362.132V32.344H359.996ZM349.412 33.28V34.6H365.588V33.28H349.412ZM349.748 35.512V36.76H365.372V35.512H349.748ZM346.916 37.648V39.28H368.156V37.648H346.916ZM353.252 38.08C351.788 39.808 348.884 41.32 346.196 42.064C346.652 42.448 347.252 43.216 347.564 43.696C350.324 42.784 353.276 40.864 354.932 38.776L353.252 38.08ZM362.012 37.984L360.356 38.632C361.916 40.672 364.7 42.544 367.388 43.408C367.7 42.88 368.324 42.088 368.804 41.68C366.164 41.032 363.404 39.616 362.012 37.984ZM352.772 43.576H362.156V44.512H352.772V43.576ZM352.772 45.688H362.156V46.672H352.772V45.688ZM352.772 41.488H362.156V42.424H352.772V41.488ZM350.684 40.288V47.848H364.34V40.288H350.684ZM358.844 48.688C361.532 49.432 364.196 50.32 365.804 50.944L367.676 49.672C365.876 49.048 362.924 48.16 360.284 47.464L358.844 48.688ZM354.26 47.44C352.748 48.232 349.532 49.12 346.916 49.528C347.324 49.912 347.924 50.608 348.236 50.992C350.852 50.56 354.092 49.648 356.036 48.592L354.26 47.44ZM356.012 29.104C356.42 29.824 356.828 30.808 356.972 31.432L359.324 30.736C359.156 30.136 358.7 29.176 358.268 28.504L356.012 29.104ZM386.252 28.744V48.688C386.252 49.12 386.108 49.264 385.652 49.288C385.244 49.288 383.804 49.312 382.508 49.264C382.796 49.744 383.156 50.56 383.276 51.088C385.292 51.088 386.564 51.064 387.404 50.776C388.22 50.44 388.556 49.936 388.556 48.688V28.744H386.252ZM377.036 30.52V32.344H397.988V30.52H377.036ZM381.692 35.08H393.284V36.544H381.692V35.08ZM379.532 33.568V38.056H395.612V33.568H379.532ZM378.884 39.472V41.08H393.692V48.496H395.996V39.472H378.884ZM376.532 42.472V44.224H398.492V42.472H376.532ZM378.668 45.736V47.44H394.916V45.736H378.668Z" fill="#FDFDFD"/>
<defs>
<filter id="filter0_f_19_303" x="286.5" y="0.5" width="398.859" height="44.3166" filterUnits="userSpaceOnUse" color-interpolation-filters="sRGB">
<feFlood flood-opacity="0" result="BackgroundImageFix"/>
<feBlend mode="normal" in="SourceGraphic" in2="BackgroundImageFix" result="shape"/>
<feGaussianBlur stdDeviation="2.5" result="effect1_foregroundBlur_19_303"/>
</filter>
<filter id="filter1_f_19_303" x="0.5" y="33.5" width="398.859" height="44.3166" filterUnits="userSpaceOnUse" color-interpolation-filters="sRGB">
<feFlood flood-opacity="0" result="BackgroundImageFix"/>
<feBlend mode="normal" in="SourceGraphic" in2="BackgroundImageFix" result="shape"/>
<feGaussianBlur stdDeviation="2.5" result="effect1_foregroundBlur_19_303"/>
</filter>
</defs>
</svg>
