<svg width="686" height="78" viewBox="0 0 686 78" fill="none" xmlns="http://www.w3.org/2000/svg">
<g filter="url(#filter0_f_240_1382)">
<path d="M293 7C294.648 7 367.034 7 403.02 7L424.859 38.3166H678.859" stroke="#83D3CF" stroke-width="3" stroke-linecap="round"/>
</g>
<path d="M293 7C294.648 7 367.034 7 403.02 7L424.859 38.3166H678.859" stroke="#83D3CF" stroke-width="2" stroke-linecap="round"/>
<g filter="url(#filter1_f_240_1382)">
<path d="M392.859 71.3166C391.211 71.3166 318.826 71.3166 282.839 71.3166L261 40L7 40" stroke="#E0A1F8" stroke-width="3" stroke-linecap="round"/>
</g>
<path d="M392.859 71.3166C391.211 71.3166 318.826 71.3166 282.839 71.3166L261 40L7 40" stroke="#E0A1F8" stroke-width="2" stroke-linecap="round"/>
<path d="M308.492 38.536V40.48H323.66V38.536H308.492ZM311.156 41.92V43.744H321.356V41.92H311.156ZM312.212 39.256C311.18 41.608 309.212 43.648 307.004 44.944C307.46 45.256 308.204 45.952 308.54 46.336C310.772 44.848 312.956 42.472 314.18 39.76L312.212 39.256ZM320.972 41.92V42.256C320.66 46.744 320.3 48.496 319.868 48.952C319.676 49.168 319.484 49.216 319.148 49.216C318.812 49.216 318.092 49.192 317.252 49.12C317.54 49.6 317.732 50.392 317.756 50.944C318.716 50.992 319.628 50.968 320.156 50.92C320.756 50.848 321.236 50.704 321.644 50.224C322.292 49.528 322.676 47.608 323.036 42.76C323.084 42.472 323.108 41.92 323.108 41.92H320.972ZM312.788 34.168H319.844V35.752H312.788V34.168ZM312.788 31.048H319.844V32.608H312.788V31.048ZM310.748 29.416V37.384H321.956V29.416H310.748ZM301.676 33.88V36.04H308.876V33.88H301.676ZM304.316 28.984V43.816H306.452V28.984H304.316ZM301.172 44.56L302.036 46.84C304.1 45.856 306.716 44.56 309.14 43.312L308.66 41.344C305.9 42.592 303.02 43.84 301.172 44.56ZM318.044 42.28C317.18 45.16 315.188 48.352 312.884 49.84C313.46 50.152 314.156 50.68 314.54 51.112C316.7 49.456 318.716 46.096 319.604 43.12L318.044 42.28ZM314.348 42.328C313.172 44.776 310.676 47.464 308.324 48.712C308.852 49.048 309.452 49.6 309.812 50.08C312.14 48.592 314.66 45.784 315.86 43.216L314.348 42.328ZM331.652 34.432V36.592H338.996V34.432H331.652ZM334.412 29.056V44.776H336.548V29.056H334.412ZM331.172 44.824L332.084 47.104C334.22 46.144 336.932 44.896 339.452 43.696L338.948 41.68C336.092 42.88 333.116 44.128 331.172 44.824ZM345.548 28.744V45.568H347.684V28.744H345.548ZM338.204 38.536L339.044 40.552L351.74 35.104L350.924 33.16L338.204 38.536ZM340.7 31.024V46.84C340.7 49.768 341.54 50.512 344.54 50.512C345.212 50.512 349.412 50.512 350.108 50.512C352.748 50.512 353.468 49.432 353.78 46.072C353.156 45.952 352.268 45.592 351.764 45.232C351.572 47.872 351.332 48.472 349.964 48.472C349.1 48.472 345.428 48.472 344.66 48.472C343.124 48.472 342.86 48.232 342.86 46.864V31.024H340.7ZM350.348 33.784C350.228 37.12 349.94 41.584 349.508 44.152L351.356 44.68C351.98 41.872 352.34 37.456 352.532 34.072L352.628 33.712L350.924 33.16L350.084 33.784H350.348ZM369.5 33.76H375.332V35.056H369.5V33.76ZM367.676 32.512V36.304H377.276V32.512H367.676ZM368.636 40.768H376.196V45.808H368.636V40.768ZM366.86 39.448V47.128H378.068V39.448H366.86ZM371.228 42.712H373.556V43.864H371.228V42.712ZM369.932 41.656V44.92H374.948V41.656H369.932ZM365.468 37.24V38.56H379.556V37.24H365.468ZM371.42 35.488V37.84H373.364V35.488H371.42ZM362.348 29.656V51.016H364.484V31.552H380.492V51.016H382.7V29.656H362.348ZM363.692 48.208V50.104H381.62V48.208H363.692Z" fill="#FDFDFD"/>
<defs>
<filter id="filter0_f_240_1382" x="286.5" y="0.5" width="398.859" height="44.3166" filterUnits="userSpaceOnUse" color-interpolation-filters="sRGB">
<feFlood flood-opacity="0" result="BackgroundImageFix"/>
<feBlend mode="normal" in="SourceGraphic" in2="BackgroundImageFix" result="shape"/>
<feGaussianBlur stdDeviation="2.5" result="effect1_foregroundBlur_240_1382"/>
</filter>
<filter id="filter1_f_240_1382" x="0.5" y="33.5" width="398.859" height="44.3166" filterUnits="userSpaceOnUse" color-interpolation-filters="sRGB">
<feFlood flood-opacity="0" result="BackgroundImageFix"/>
<feBlend mode="normal" in="SourceGraphic" in2="BackgroundImageFix" result="shape"/>
<feGaussianBlur stdDeviation="2.5" result="effect1_foregroundBlur_240_1382"/>
</filter>
</defs>
</svg>
