<svg width="686" height="78" viewBox="0 0 686 78" fill="none" xmlns="http://www.w3.org/2000/svg">
<g filter="url(#filter0_f_49_1056)">
<path d="M293 7C294.648 7 367.034 7 403.02 7L424.859 38.3166H678.859" stroke="#83D3CF" stroke-width="3" stroke-linecap="round"/>
</g>
<path d="M293 7C294.648 7 367.034 7 403.02 7L424.859 38.3166H678.859" stroke="#83D3CF" stroke-width="2" stroke-linecap="round"/>
<g filter="url(#filter1_f_49_1056)">
<path d="M392.859 71.3164C391.211 71.3164 318.826 71.3164 282.839 71.3164L261 39.9998L7 39.9998" stroke="#E0A1F8" stroke-width="3" stroke-linecap="round"/>
</g>
<path d="M392.859 71.3164C391.211 71.3164 318.826 71.3164 282.839 71.3164L261 39.9998L7 39.9998" stroke="#E0A1F8" stroke-width="2" stroke-linecap="round"/>
<path d="M296.516 30.448V32.176H308.324V30.448H296.516ZM296.276 43.984V45.688H308.636V43.984H296.276ZM301.34 28.768V41.704H303.308V28.768H301.34ZM298.844 37.096H305.9V38.344H298.844V37.096ZM298.844 34.6H305.9V35.824H298.844V34.6ZM297.02 33.28V39.664H307.82V33.28H297.02ZM296.276 41.08L296.42 42.76C299.204 42.688 303.212 42.616 307.1 42.496L307.148 40.888C303.092 40.984 298.988 41.056 296.276 41.08ZM303.692 42.832V48.904C303.692 49.168 303.596 49.24 303.26 49.264C302.948 49.288 301.796 49.288 300.668 49.24C300.932 49.768 301.22 50.512 301.292 51.088C302.948 51.088 304.028 51.088 304.82 50.776C305.588 50.512 305.78 49.984 305.78 48.952V42.832H303.692ZM297.572 46.528C298.46 47.368 299.348 48.616 299.732 49.456L301.388 48.4C300.956 47.584 300.02 46.432 299.108 45.616L297.572 46.528ZM304.556 40.048C305.588 41.056 306.692 42.472 307.172 43.432L308.78 42.568C308.228 41.632 307.124 40.288 306.068 39.304L304.556 40.048ZM286.628 31.24V33.208H296.036V31.24H286.628ZM286.292 45.016V47.008H296.348V45.016H286.292ZM290.396 28.768V35.512H292.436V28.768H290.396ZM290.636 35.584V42.424H290.396V51.04H292.436V42.424H292.196V35.584H290.636ZM288.788 39.784H294.092V41.656H288.788V39.784ZM288.788 36.4H294.092V38.224H288.788V36.4ZM287.132 34.768V43.288H295.796V34.768H287.132ZM336.572 28.888C333.548 29.512 328.316 29.944 323.972 30.136C324.164 30.592 324.428 31.336 324.476 31.792C328.892 31.696 334.244 31.264 337.796 30.544L336.572 28.888ZM323.684 35.2V36.976H338.372V35.2H323.684ZM329.876 30.376V40.912H331.94V30.376H329.876ZM329.948 42.088V49.12H331.82V42.088H329.948ZM325.46 32.344C325.916 33.232 326.42 34.432 326.684 35.152L328.556 34.504C328.292 33.808 327.716 32.656 327.26 31.792L325.46 32.344ZM334.7 31.432C334.34 32.656 333.572 34.432 333.02 35.536L334.7 36.064C335.3 35.008 336.02 33.424 336.668 31.96L334.7 31.432ZM328.748 36.256C327.476 38.176 325.028 40.048 322.676 40.936C323.156 41.344 323.78 42.088 324.092 42.592C326.564 41.464 329.108 39.256 330.524 36.88L328.748 36.256ZM324.836 41.44V51.04H326.828V43.192H335.132V50.92H337.244V41.44H324.836ZM326.324 44.92V46.552H335.684V44.92H326.324ZM326.324 48.4V50.056H335.636V48.4H326.324ZM316.076 41.296L316.508 43.48C318.62 42.736 321.26 41.776 323.732 40.84L323.372 38.824C320.708 39.76 317.924 40.72 316.076 41.296ZM316.436 33.472V35.56H323.756V33.472H316.436ZM319.244 28.768V48.52C319.244 48.856 319.124 48.952 318.836 48.952C318.548 48.976 317.66 48.976 316.676 48.928C316.964 49.552 317.228 50.488 317.3 51.04C318.836 51.04 319.82 50.968 320.444 50.608C321.116 50.272 321.332 49.672 321.332 48.52V28.768H319.244ZM331.1 37.288C333.332 38.68 336.164 40.744 337.508 42.088L338.828 40.648C337.388 39.328 334.508 37.336 332.3 36.04L331.1 37.288ZM351.932 41.512H363.308V42.88H351.932V41.512ZM351.932 44.248H363.308V45.664H351.932V44.248ZM351.932 38.776H363.308V40.144H351.932V38.776ZM349.724 37.36V47.08H365.588V37.36H349.724ZM359.612 48.232C362.108 49.096 364.652 50.2 366.116 50.968L368.156 49.72C366.476 48.928 363.668 47.848 361.124 47.008L359.612 48.232ZM353.708 47.08C352.028 48.016 349.148 48.856 346.652 49.36C347.156 49.744 347.948 50.608 348.332 51.04C350.756 50.368 353.828 49.216 355.772 48.016L353.708 47.08ZM356.468 30.304V32.008H366.284V30.304H356.468ZM356.78 28.648C356.228 30.352 355.22 32.008 353.972 33.112C354.452 33.376 355.292 33.928 355.676 34.264C356.948 33.04 358.124 31.096 358.772 29.104L356.78 28.648ZM359.444 31.504V32.296C359.444 33.424 358.796 34.864 352.7 35.512C353.108 35.944 353.684 36.736 353.9 37.24C360.668 36.328 361.532 34.168 361.532 32.392V31.504H359.444ZM361.292 32.728L359.684 33.064C361.076 35.344 363.764 36.688 367.34 37.168C367.604 36.592 368.156 35.776 368.612 35.344C365.228 35.104 362.516 34.216 361.292 32.728ZM347.084 30.064V31.792H353.036V30.064H347.084ZM346.556 33.808V35.584H353.636V33.808H346.556ZM365.516 30.304V30.592C365.108 31.624 364.436 32.872 363.884 33.688L365.636 34.336C366.356 33.424 367.148 31.984 367.748 30.688L366.212 30.208L365.876 30.304H365.516ZM377.492 36.04V37.792H384.38V36.04H377.492ZM377.492 39.232V40.984H384.428V39.232H377.492ZM376.532 32.776V34.624H385.268V32.776H376.532ZM378.404 42.496V44.344H382.604V47.776H378.404V49.624H384.428V42.496H378.404ZM377.492 42.496V50.704H379.268V42.496H377.492ZM379.028 29.512C379.604 30.52 380.348 31.936 380.636 32.824L382.34 31.792C381.98 30.928 381.284 29.632 380.636 28.648L379.028 29.512ZM385.268 39.016V41.152H393.212V39.016H385.268ZM393.956 30.064C393.956 40.432 393.716 49.744 396.236 50.656C397.508 51.184 398.492 50.44 398.804 46.984C398.468 46.648 397.892 45.808 397.556 45.232C397.46 46.888 397.316 48.424 397.172 48.376C396.02 48.064 396.044 39.016 396.212 30.064H393.956ZM388.268 31.456V51.016H390.404V31.456H388.268ZM385.556 30.064V32.224H394.988V30.064H385.556Z" fill="#FDFDFD"/>
<defs>
<filter id="filter0_f_49_1056" x="286.5" y="0.5" width="398.859" height="44.3164" filterUnits="userSpaceOnUse" color-interpolation-filters="sRGB">
<feFlood flood-opacity="0" result="BackgroundImageFix"/>
<feBlend mode="normal" in="SourceGraphic" in2="BackgroundImageFix" result="shape"/>
<feGaussianBlur stdDeviation="2.5" result="effect1_foregroundBlur_49_1056"/>
</filter>
<filter id="filter1_f_49_1056" x="0.5" y="33.5" width="398.859" height="44.3164" filterUnits="userSpaceOnUse" color-interpolation-filters="sRGB">
<feFlood flood-opacity="0" result="BackgroundImageFix"/>
<feBlend mode="normal" in="SourceGraphic" in2="BackgroundImageFix" result="shape"/>
<feGaussianBlur stdDeviation="2.5" result="effect1_foregroundBlur_49_1056"/>
</filter>
</defs>
</svg>
