<svg width="686" height="73" viewBox="0 0 686 73" fill="none" xmlns="http://www.w3.org/2000/svg">
<g filter="url(#filter0_f_54_1112)">
<path d="M294.035 6.92822C295.215 6.92822 455.682 6.92822 481.438 6.92822L497.069 35.9999H678.859" stroke="#83D3CF" stroke-width="3" stroke-linecap="round"/>
</g>
<path d="M293 6C294.18 6 455.682 6 481.438 6L497.069 35.0717H678.859" stroke="#83D3CF" stroke-width="2" stroke-linecap="round"/>
<g filter="url(#filter1_f_54_1112)">
<path d="M410 66C408.846 66 225.246 66 200.059 66L184.774 36L6.99998 36" stroke="#E0A1F8" stroke-width="3" stroke-linecap="round"/>
</g>
<path d="M407.906 65C406.753 65 225.246 66 200.059 66L184.774 36L6.99999 36" stroke="#E0A1F8" stroke-width="2" stroke-linecap="round"/>
<path d="M231.684 33.824V35.888H240.54V33.824H231.684ZM231.708 39.584V41.648H240.564V39.584H231.708ZM231.684 45.344V47.408H240.564V45.344H231.684ZM230.58 28.112V48.848H232.764V30.272H239.364V48.752H241.644V28.112H230.58ZM220.476 31.808V33.968H229.62V31.808H220.476ZM224.196 26.744V49.016H226.38V26.744H224.196ZM224.076 33.224C223.356 36.512 221.676 40.472 219.9 42.608C220.26 43.16 220.812 44.072 221.028 44.696C222.948 42.248 224.676 37.616 225.492 33.704L224.076 33.224ZM226.188 35.624L225.108 36.68C225.948 37.76 227.82 40.424 228.516 41.696L229.86 39.848C229.308 39.176 226.884 36.296 226.188 35.624ZM258.852 39.392C259.284 40.256 259.764 41.432 259.98 42.152L261.18 41.696C260.964 41.048 260.436 39.92 260.004 39.056L258.852 39.392ZM261.924 42.056V48.704H263.556V42.056H261.924ZM255.588 42.416V45.944H259.836V44.6H257.052V42.416H255.588ZM258.972 42.056V44.24C258.972 45.536 258.636 46.832 256.044 47.6C256.404 47.912 256.884 48.512 257.076 48.896C260.124 47.84 260.556 46.136 260.556 44.288V42.056H258.972ZM252.468 30.824V32.264H258.9V30.824H252.468ZM263.508 30.824V32.264H270.06V30.824H263.508ZM269.268 27.728V46.304C269.268 46.616 269.172 46.736 268.86 46.736C268.524 46.76 267.54 46.76 266.556 46.712C266.868 47.312 267.132 48.344 267.228 48.944C268.764 48.944 269.82 48.896 270.54 48.536C271.26 48.152 271.452 47.48 271.452 46.304V27.728H269.268ZM252.66 27.728V29.312H258.204V33.728H252.66V35.312H260.34V27.728H252.66ZM270.372 27.728H262.236V35.312H270.372V33.728H264.396V29.312H270.372V27.728ZM251.316 27.728V49.04H253.476V27.728H251.316ZM255.324 39.152C255.324 38.816 256.26 38.36 256.26 38.36V38.336C257.052 37.736 257.964 36.776 258.708 35.768L257.34 35.048C256.812 36.08 255.876 37.064 255.612 37.304C255.348 37.544 255.084 37.688 254.82 37.736C255.012 38.096 255.228 38.84 255.324 39.152ZM255.324 39.176C255.588 39.032 256.14 38.936 258.852 38.768C258.9 38.504 259.044 38.024 259.164 37.688L255.996 37.808L255.3 38.192L255.324 39.176ZM255.204 42.008C255.204 41.672 256.116 41.288 256.116 41.288V41.24C257.676 40.28 259.26 38.864 260.676 37.352L259.476 36.536C258.3 38.072 256.548 39.584 256.044 39.968C255.54 40.352 255.132 40.592 254.748 40.64C254.916 41 255.132 41.696 255.204 42.008ZM255.204 42.008C255.54 41.864 256.188 41.72 260.22 41.288C260.172 41.024 260.076 40.544 260.052 40.208L255.852 40.568L255.18 41L255.204 42.008ZM265.356 39.416C265.788 40.28 266.316 41.456 266.58 42.176L267.756 41.672C267.492 41.024 266.94 39.896 266.46 39.056L265.356 39.416ZM261.828 39.176C261.828 38.84 262.764 38.384 262.764 38.384V38.36C263.58 37.76 264.492 36.8 265.212 35.792L263.844 35.072C263.316 36.104 262.38 37.088 262.116 37.328C261.876 37.568 261.612 37.712 261.324 37.76C261.516 38.144 261.732 38.864 261.828 39.176ZM261.828 39.176C262.116 39.056 262.668 38.936 265.356 38.768C265.404 38.504 265.548 38.024 265.668 37.688L262.5 37.832L261.804 38.216L261.828 39.176ZM261.732 42.032C261.732 41.696 262.644 41.312 262.644 41.312V41.264C264.204 40.28 265.812 38.864 267.204 37.328L266.004 36.512C264.852 38.072 263.1 39.608 262.572 39.968C262.092 40.376 261.66 40.616 261.3 40.664C261.444 41.024 261.66 41.72 261.732 42.032ZM261.732 42.032C262.092 41.864 262.716 41.744 266.772 41.312C266.7 41.048 266.628 40.568 266.604 40.232L262.38 40.592L261.708 41.024L261.732 42.032ZM263.124 44.6V45.944H266.316V44.6H263.124ZM265.5 42.44V46.64H267.012V42.44H265.5ZM293.772 40.496C295.668 43.112 297.972 46.712 299.052 48.944L301.356 47.696C300.204 45.512 297.924 42.104 295.98 39.488L293.772 40.496ZM286.692 27.392C285.204 30.968 282.684 34.496 280.044 36.704C280.62 37.136 281.628 38.096 282.06 38.6C284.7 36.104 287.436 32.144 289.188 28.184L286.692 27.392ZM283.116 48.008C283.116 47.504 284.892 46.688 284.892 46.688V46.64C287.796 43.712 290.796 39.512 293.172 35.288L290.556 34.184C288.588 38.24 285.516 42.464 284.508 43.544C283.572 44.648 282.924 45.368 282.204 45.56C282.54 46.232 282.972 47.504 283.116 48.008ZM283.116 48.008C284.196 47.576 285.732 47.504 299.124 46.52C298.98 45.992 298.74 45.032 298.62 44.336L284.628 45.2L283.044 46.064L283.116 48.008ZM293.796 27.344V28.64H294.324C295.596 32.408 298.02 36.272 301.044 38.552C301.428 37.856 302.268 36.824 302.796 36.344C299.892 34.496 297.564 30.968 296.46 27.344H293.796ZM290.508 27.344V29.672H295.668V27.344H290.508ZM310.74 35.48V37.592H331.932V35.48H310.74ZM314.676 30.056V32.144H330.3V30.056H314.676ZM314.844 45.8V47.912H328.092V45.8H314.844ZM320.676 26.744V36.752H323.076V26.744H320.676ZM313.62 39.704V49.184H315.924V41.792H326.94V49.136H329.34V39.704H313.62ZM314.988 26.888C314.1 29.552 312.588 32.264 310.836 33.944C311.388 34.208 312.444 34.808 312.9 35.168C314.556 33.296 316.236 30.392 317.244 27.44L314.988 26.888ZM339.612 51.32H341.532L348.18 27.824H346.284L339.612 51.32ZM364.108 29.312V31.232H377.404V29.312H364.108ZM363.988 40.208V42.152H377.428V40.208H363.988ZM367.132 32.984V34.712H374.092V32.984H367.132ZM366.028 26.744V38.36H375.364V26.744H373.204V36.512H368.116V26.744H366.028ZM369.676 38.024V49.016H371.884V38.024H369.676ZM355.852 40.04C358.228 42.2 361.276 45.248 362.668 47.216L364.012 45.464C362.596 43.592 359.428 40.664 357.052 38.576L355.852 40.04ZM355.852 40.04L357.676 40.616C358.564 37.112 359.644 31.352 360.052 26.96L358.084 26.864C357.772 31.088 356.764 36.728 355.852 40.04ZM361.132 30.152V33.08C361.132 37.232 360.7 43.136 355.3 47.48C355.756 47.792 356.452 48.464 356.764 48.872C362.476 44.12 363.028 37.688 363.028 33.08V30.152H361.132ZM355.42 32.048L355.66 34.112C357.988 33.968 361.132 33.8 364.132 33.584V31.592C360.94 31.784 357.676 31.952 355.42 32.048ZM367.252 42.776C366.508 44.408 365.068 46.16 363.652 47.048C364.108 47.432 364.804 48.128 365.116 48.632C366.604 47.504 368.092 45.344 368.884 43.352L367.252 42.776ZM372.724 43.472C373.9 45.056 375.34 47.192 376.012 48.464L377.74 47.648C377.044 46.376 375.556 44.312 374.38 42.8L372.724 43.472ZM395.476 37.112V38.792H407.596V37.112H395.476ZM395.188 46.904V48.608H407.812V46.904H395.188ZM398.836 26.768V29.72H400.636V26.768H398.836ZM402.076 26.768V29.72H403.9V26.768H402.076ZM397.636 33.008H405.244V34.496H397.636V33.008ZM397.636 30.104H405.244V31.568H397.636V30.104ZM395.908 28.544V36.032H407.044V28.544H395.908ZM398.5 41.24H404.404V42.92H398.5V41.24ZM396.532 39.776V44.36H406.516V39.776H396.532ZM403.492 44.288C403.228 45.176 402.724 46.472 402.316 47.312L403.78 47.84C404.284 47.096 404.908 45.944 405.532 44.864L403.492 44.288ZM397.636 44.864C398.02 45.776 398.476 47 398.644 47.768L400.444 47.168C400.228 46.4 399.772 45.224 399.364 44.336L397.636 44.864ZM399.196 29.36V35.384H400.66V29.36H399.196ZM402.172 29.36V35.384H403.636V29.36H402.172ZM387.844 37.232V38.768H393.292V37.232H387.844ZM392.212 37.232V46.88C392.212 47.12 392.14 47.216 391.9 47.216C391.66 47.216 390.868 47.216 390.028 47.192C390.268 47.672 390.532 48.416 390.604 48.896C391.924 48.896 392.764 48.872 393.364 48.584C393.964 48.296 394.132 47.792 394.132 46.904V37.232H392.212ZM386.764 27.56V35.048H388.54V29.216H392.308V35.048H394.204V27.56H386.764ZM385.78 34.304V37.904H387.46V35.888H393.46V37.904H395.212V34.304H385.78ZM389.788 30.512V34.88H391.036V31.88H393.532V30.512H389.788ZM386.98 37.232V41.744C386.98 43.664 386.86 46.136 385.612 47.96C386.068 48.176 386.884 48.752 387.22 49.112C388.612 47.048 388.852 44 388.852 41.768V37.232H386.98ZM388.612 44.36L389.38 45.92C390.628 45.152 392.02 44.288 393.436 43.4L393.076 42.224C391.396 43.064 389.764 43.88 388.612 44.36ZM388.78 40.496C389.62 41.072 390.676 41.96 391.18 42.512L392.236 41.36C391.684 40.832 390.652 40.088 389.764 39.512L388.78 40.496ZM428.116 36.032V37.856H435.748V36.032H428.116ZM427.036 27.824V48.992H429.124V29.84H435.7V27.824H427.036ZM434.548 27.824V32.384C434.548 32.648 434.452 32.72 434.068 32.744C433.708 32.768 432.436 32.768 431.068 32.72C431.356 33.272 431.644 34.088 431.74 34.688C433.564 34.688 434.788 34.664 435.628 34.352C436.444 34.04 436.66 33.44 436.66 32.408V27.824H434.548ZM430.756 37.136L429.004 37.592C430.396 42.488 432.916 46.76 436.564 48.872C436.924 48.296 437.596 47.48 438.1 47.048C434.572 45.32 432.004 41.432 430.756 37.136ZM435.076 36.032V36.488C434.356 40.88 432.124 45.224 428.548 47.528C429.052 47.912 429.724 48.56 430.06 49.064C433.924 46.448 436.3 41.744 437.236 36.44L435.844 35.936L435.46 36.032H435.076ZM416.404 29.072V30.992H425.668V29.072H416.404ZM415.684 42.416V44.336H426.268V42.416H415.684ZM415.708 33.056V35H426.244V33.056H415.708ZM416.236 38.144V40.088H425.788V38.144H416.236ZM420.052 26.792V33.776H422.164V26.792H420.052ZM420.052 38.936V48.944H422.164V38.936H420.052ZM423.22 34.904C422.836 36.056 422.068 37.688 421.42 38.72L423.076 39.2C423.724 38.216 424.468 36.752 425.164 35.408L423.22 34.904ZM417.22 35.456C417.7 36.368 418.156 37.568 418.276 38.336L420.052 37.76C419.884 37.016 419.404 35.84 418.9 34.952L417.22 35.456ZM445.9 42.512V44.288H467.38V42.512H445.9ZM452.14 28.856V30.44H467.212V28.856H452.14ZM460.084 41.408V46.64C460.084 46.928 459.964 47 459.604 47.024C459.22 47.024 457.852 47.048 456.484 47C456.772 47.552 457.108 48.368 457.204 48.968C459.1 48.968 460.348 48.944 461.188 48.632C462.076 48.32 462.268 47.768 462.268 46.688V41.408H460.084ZM450.244 45.296C451.42 46.184 452.812 47.48 453.412 48.344L455.092 46.952C454.42 46.088 452.98 44.864 451.804 44.048L450.244 45.296ZM454.948 27.152C455.428 27.848 455.932 28.808 456.124 29.432L458.044 28.856C457.828 28.232 457.276 27.296 456.772 26.648L454.948 27.152ZM455.644 34.568H463.372V35.504H455.644V34.568ZM455.644 36.584H463.372V37.568H455.644V36.584ZM455.644 32.576H463.372V33.488H455.644V32.576ZM453.748 31.448V38.672H465.364V31.448H453.748ZM458.572 29.456C458.452 30.08 458.14 31.04 457.876 31.736L459.676 32C460.036 31.376 460.444 30.56 460.852 29.648L458.572 29.456ZM462.436 26.72C462.148 27.416 461.572 28.448 461.116 29.144L462.916 29.552C463.396 28.928 464.02 28.064 464.572 27.104L462.436 26.72ZM447.532 27.248C448.036 27.992 448.636 29.048 448.924 29.72L450.868 29.168C450.556 28.52 449.98 27.536 449.428 26.816L447.532 27.248ZM446.332 29.984V31.784H451.204V29.984H446.332ZM451.06 36.8L449.812 37.4C451.252 40.784 453.652 41.312 458.668 41.312C461.524 41.312 464.86 41.216 467.284 41.096C467.38 40.52 467.644 39.608 467.956 39.152C465.292 39.416 461.404 39.512 458.644 39.512C454.516 39.512 452.212 39.248 451.06 36.8ZM450.748 33.92V34.232C449.98 36.896 448.108 39.032 445.924 40.184C446.308 40.496 446.884 41.312 447.1 41.768C449.476 40.376 451.612 37.856 452.62 34.424L451.828 33.848L451.492 33.92H450.748ZM446.86 36.08C447.052 35.888 447.724 35.72 448.3 35.72H451.348L451.372 33.92H447.796L446.86 34.4V36.08ZM446.86 36.056C446.86 35.576 448.324 34.856 448.324 34.856C449.596 33.704 451.468 31.688 452.5 30.488L451.204 29.792L450.604 30.032V30.104C449.908 31.016 447.94 33.104 447.292 33.68C446.86 34.064 446.476 34.208 446.14 34.304C446.356 34.688 446.74 35.6 446.86 36.056Z" fill="#FDFDFD"/>
<defs>
<filter id="filter0_f_54_1112" x="287.535" y="0.428223" width="397.824" height="42.0718" filterUnits="userSpaceOnUse" color-interpolation-filters="sRGB">
<feFlood flood-opacity="0" result="BackgroundImageFix"/>
<feBlend mode="normal" in="SourceGraphic" in2="BackgroundImageFix" result="shape"/>
<feGaussianBlur stdDeviation="2.5" result="effect1_foregroundBlur_54_1112"/>
</filter>
<filter id="filter1_f_54_1112" x="0.5" y="29.5" width="416" height="43" filterUnits="userSpaceOnUse" color-interpolation-filters="sRGB">
<feFlood flood-opacity="0" result="BackgroundImageFix"/>
<feBlend mode="normal" in="SourceGraphic" in2="BackgroundImageFix" result="shape"/>
<feGaussianBlur stdDeviation="2.5" result="effect1_foregroundBlur_54_1112"/>
</filter>
</defs>
</svg>
