<svg width="686" height="78" viewBox="0 0 686 78" fill="none" xmlns="http://www.w3.org/2000/svg">
<g filter="url(#filter0_f_54_1131)">
<path d="M338 7C339.456 7 403.4 7 435.189 7L454.481 38.3166H678.859" stroke="#83D3CF" stroke-width="3" stroke-linecap="round"/>
</g>
<path d="M338 7C339.456 7 403.4 7 435.189 7L454.481 38.3166H678.859" stroke="#83D3CF" stroke-width="2" stroke-linecap="round"/>
<g filter="url(#filter1_f_54_1131)">
<path d="M344 71.3164C342.56 71.3164 279.341 71.3164 247.911 71.3164L228.837 39.9998L7 39.9998" stroke="#E0A1F8" stroke-width="3" stroke-linecap="round"/>
</g>
<path d="M344 71.3164C342.56 71.3164 279.341 71.3164 247.911 71.3164L228.837 39.9998L7 39.9998" stroke="#E0A1F8" stroke-width="2" stroke-linecap="round"/>
<path d="M260.128 29.776V31.84H278.728V29.776H260.128ZM260.44 48.496V50.392H278.776V48.496H260.44ZM269.872 44.152V45.952H276.592V44.152H269.872ZM258.688 29.776V37.024C258.688 40.816 258.52 46.168 256.648 49.912C257.2 50.128 258.136 50.656 258.568 50.968C260.56 47.008 260.848 41.056 260.848 37.024V29.776H258.688ZM268.672 41.944V49.552H270.88V41.944H268.672ZM263.32 43.648V49.576H265.48V43.648H263.32ZM261.472 35.848V37.48H268.936V35.848H261.472ZM264.352 33.256V42.04H266.248V33.256H264.352ZM264.112 36.544C263.32 38.104 261.856 39.784 260.464 40.6C260.872 40.936 261.424 41.536 261.712 41.992C263.128 40.912 264.592 38.896 265.384 37.024L264.112 36.544ZM269.608 35.848V37.48H278.296V35.848H269.608ZM272.68 33.256V42.04H274.6V33.256H272.68ZM272.128 36.544C271.36 38.08 269.8 39.76 268.36 40.576C268.768 40.912 269.32 41.536 269.608 41.992C271.096 40.936 272.632 38.896 273.424 37L272.128 36.544ZM266.152 37.408L265.048 38.248C265.72 38.752 267.208 40.096 267.76 40.696L268.888 39.28C268.432 38.92 266.704 37.744 266.152 37.408ZM267.208 32.224C265.936 32.752 263.512 33.136 261.4 33.328C261.616 33.688 261.832 34.288 261.928 34.648C264.184 34.504 266.896 34.096 268.672 33.376L267.208 32.224ZM275.872 32.128C274.48 32.704 271.792 33.064 269.488 33.28C269.68 33.616 269.92 34.24 269.992 34.6C272.464 34.456 275.416 34.024 277.36 33.304L275.872 32.128ZM274.624 37.504L273.592 38.464C274.576 39.16 276.928 41.056 277.816 41.92L278.848 40.408C278.176 39.904 275.44 37.984 274.624 37.504ZM296.848 28.864V39.208C296.848 43.504 296.104 47.224 286.888 49.048C287.368 49.552 287.992 50.536 288.256 51.064C297.856 48.856 299.2 44.296 299.2 39.208V28.864H296.848ZM291.016 34.576H305.008V38.584H291.016V34.576ZM288.784 32.392V40.768H307.336V32.392H288.784ZM291.928 41.344L289.864 42.088C293.08 48.88 298.912 50.392 308.248 50.896C308.392 50.104 308.848 49.12 309.304 48.568C300.208 48.28 294.952 47.224 291.928 41.344ZM329.104 35.056V37.168H338.896V35.056H329.104ZM317.032 33.904V35.824H329.128V33.904H317.032ZM317.8 39.16V41.032H328.408V39.16H317.8ZM318.352 43.096V44.968H328V43.096H318.352ZM334.6 28.816V48.352C334.6 48.76 334.432 48.88 334.048 48.88C333.64 48.904 332.392 48.904 331.024 48.856C331.36 49.456 331.72 50.44 331.816 51.016C333.736 51.016 334.936 50.944 335.728 50.584C336.496 50.224 336.784 49.6 336.784 48.352V28.816H334.6ZM329.584 39.472C330.496 41.248 331.336 43.528 331.528 44.968L333.568 44.248C333.352 42.784 332.44 40.552 331.48 38.824L329.584 39.472ZM317.248 30.472C318.088 31.384 318.976 32.68 319.36 33.544L320.848 32.512C320.44 31.672 319.504 30.448 318.64 29.536L317.248 30.472ZM318.976 36.52C319.696 37.36 320.464 38.512 320.752 39.28L322.408 38.344C322.12 37.552 321.304 36.448 320.584 35.656L318.976 36.52ZM320.536 28.768V34.576H322.36V28.768H320.536ZM322.072 39.736V48.424H324.184V39.736H322.072ZM323.872 28.768V34.576H325.696V28.768H323.872ZM317.008 47.92L317.296 50.032C320.44 49.648 324.928 49.096 329.128 48.52L329.08 46.528C324.712 47.08 320.032 47.608 317.008 47.92ZM327.52 29.584C326.992 30.52 325.96 31.912 325.24 32.752L326.608 33.592C327.4 32.824 328.408 31.672 329.32 30.592L327.52 29.584ZM325.456 35.776C325.072 36.856 324.328 38.44 323.752 39.4L325.432 40.048C326.032 39.136 326.752 37.744 327.424 36.472L325.456 35.776ZM349.216 30.928H351.016V32.896H349.216V30.928ZM347.56 29.44V34.408H352.744V29.44H347.56ZM355.408 30.928H357.256V32.896H355.408V30.928ZM353.752 29.44V34.408H358.984V29.44H353.752ZM359.032 35.896L359.296 38.008L369.28 36.76L369.016 34.672L359.032 35.896ZM364.456 30.04C365.488 31.312 366.592 33.064 367.024 34.192L368.848 33.16C368.392 32.032 367.24 30.352 366.184 29.128L364.456 30.04ZM349.672 40.552H356.8V42.232H349.672V40.552ZM349.672 37.24H356.8V38.92H349.672V37.24ZM347.776 35.536V43.96H358.792V35.536H347.776ZM346.792 45.448V47.464H359.488V45.448H346.792ZM352.24 36.136V43.24H352.096V51.04H354.304V43.24H354.16V36.136H352.24ZM361.144 28.912C361.528 41.632 362.824 50.896 366.952 51.088C367.96 51.112 369.016 50.104 369.544 46.12C369.184 45.904 368.248 45.328 367.864 44.872C367.72 47.152 367.408 48.4 366.976 48.376C364.888 48.232 363.496 39.4 363.304 28.912H361.144ZM366.76 37.816C365.224 42.616 361.864 47.176 357.592 49.216C358.168 49.624 358.864 50.296 359.248 50.824C363.424 48.52 366.856 43.744 368.488 38.776L366.76 37.816ZM391.384 33.376V35.368H399.136V33.376H391.384ZM392.08 28.744C391.384 32.848 390.208 37 388.576 39.664C389.032 39.976 389.8 40.696 390.112 41.08C391.816 38.104 393.16 33.544 393.976 29.104L392.08 28.744ZM395.488 34.624C394.792 42.16 392.824 46.864 387.352 49.384C387.712 49.792 388.288 50.656 388.48 51.088C394.312 48.088 396.568 43.048 397.456 34.792L395.488 34.624ZM392.392 35.32L390.76 35.56C391.744 42.544 393.616 48.208 397.912 50.944C398.224 50.392 398.896 49.576 399.376 49.192C395.224 46.912 393.28 41.56 392.392 35.32ZM382.504 28.744V41.44H384.256V28.744H382.504ZM380.32 31.744H386.632V35.608H380.32V31.744ZM378.568 30.256V37.096H388.456V30.256H378.568ZM379.984 39.352H386.872V40.72H379.984V39.352ZM378.088 38.008V42.088H388.864V38.008H378.088ZM376.912 32.752V34.432H379.216V34.312H387.256V34.432H389.776V32.752H387.256V32.848H379.216V32.752H376.912ZM378.496 47.008L380.368 47.392C381.424 45.976 382.864 43.72 383.752 41.728L381.904 41.32C381.112 43.192 379.672 45.52 378.496 47.008ZM378.496 47.008C381.472 47.752 385.072 49.216 387.04 50.368L388.48 49.048C386.416 47.944 382.864 46.528 379.96 45.808L378.496 47.008ZM385.552 42.568V43.504C385.552 45.352 384.784 48.088 376.72 49.528C377.056 49.888 377.488 50.584 377.656 50.992C386.368 49.36 387.376 46.048 387.376 43.552V42.568H385.552ZM377.032 43.408V44.992H389.608V43.408H377.032ZM420.976 30.136V31.768H427.672V30.136H420.976ZM415.288 32.92V34.576H427.264V32.92H415.288ZM417.064 40.12V41.656H428.848V40.12H417.064ZM419.896 28.816V33.784H422.056V28.816H419.896ZM426.88 32.92V33.208C426.688 34.264 426.328 35.584 426.016 36.4L427.72 36.76C428.128 35.848 428.584 34.432 428.896 33.16L427.504 32.872L427.192 32.92H426.88ZM414.52 32.92V39.904C414.52 42.976 414.304 47.008 412.264 49.864C412.72 50.08 413.584 50.68 413.92 51.016C416.152 47.968 416.488 43.312 416.488 39.904V32.92H414.52ZM416.92 36.16L417.112 37.84L420.976 37.456L420.808 35.824L416.92 36.16ZM420.28 43.096C422.992 45.088 422.92 48.448 422.2 49.144C421.96 49.456 421.672 49.504 421.312 49.504C420.952 49.504 420.472 49.48 419.92 49.408C420.208 49.888 420.352 50.584 420.376 51.04C420.832 51.064 421.288 51.064 421.648 51.064C422.416 51.064 422.944 50.896 423.448 50.368C424.816 49.144 424.864 44.68 421.552 42.304L420.28 43.096ZM421.672 43.744C420.496 44.728 418.144 45.736 416.296 46.168C416.608 46.456 416.944 46.984 417.112 47.344C419.032 46.696 421.408 45.472 422.68 44.392L421.672 43.744ZM422.44 45.52C421.024 46.912 418.144 48.4 415.864 49.048C416.176 49.36 416.56 49.936 416.752 50.296C419.08 49.456 421.984 47.752 423.52 46.24L422.44 45.52ZM427.624 42.184C426.376 42.952 424.192 44.008 422.656 44.608L423.688 45.568C425.248 45.016 427.336 44.128 428.872 43.24L427.624 42.184ZM426.112 43.936L424.72 44.32C425.272 46.792 426.4 49.192 428.128 50.368C428.416 49.888 428.992 49.24 429.4 48.928C427.768 48.016 426.664 46.024 426.112 43.936ZM422.8 40.744C421.6 41.92 418.912 43.024 416.704 43.576C416.92 43.864 417.232 44.44 417.4 44.752C419.8 44.056 422.632 42.76 424.144 41.248L422.8 40.744ZM406.552 40.96L407.08 43.144C409.12 42.544 411.712 41.728 414.136 40.936L413.848 38.872C411.16 39.688 408.424 40.48 406.552 40.96ZM406.936 33.472V35.56H413.776V33.472H406.936ZM409.672 28.744V48.568C409.672 48.904 409.552 49 409.264 49C408.976 49 408.088 49 407.104 48.976C407.392 49.576 407.656 50.488 407.728 51.04C409.24 51.04 410.224 50.968 410.848 50.632C411.496 50.272 411.712 49.696 411.712 48.568V28.744H409.672ZM419.776 34.192V37.144C419.776 38.656 420.16 39.352 421.936 39.352C422.44 39.352 424.888 39.352 425.512 39.352C426.208 39.352 427 39.352 427.384 39.232C427.336 38.8 427.288 38.32 427.24 37.816C426.832 37.912 425.896 37.936 425.392 37.936C424.864 37.936 422.8 37.936 422.32 37.936C421.72 37.936 421.648 37.744 421.648 37.192V34.192H419.776ZM420.688 35.824L420.856 37.144L425.392 36.712L425.272 35.392L420.688 35.824Z" fill="#FDFDFD"/>
<defs>
<filter id="filter0_f_54_1131" x="331.5" y="0.5" width="353.859" height="44.3165" filterUnits="userSpaceOnUse" color-interpolation-filters="sRGB">
<feFlood flood-opacity="0" result="BackgroundImageFix"/>
<feBlend mode="normal" in="SourceGraphic" in2="BackgroundImageFix" result="shape"/>
<feGaussianBlur stdDeviation="2.5" result="effect1_foregroundBlur_54_1131"/>
</filter>
<filter id="filter1_f_54_1131" x="0.5" y="33.4999" width="350" height="44.3165" filterUnits="userSpaceOnUse" color-interpolation-filters="sRGB">
<feFlood flood-opacity="0" result="BackgroundImageFix"/>
<feBlend mode="normal" in="SourceGraphic" in2="BackgroundImageFix" result="shape"/>
<feGaussianBlur stdDeviation="2.5" result="effect1_foregroundBlur_54_1131"/>
</filter>
</defs>
</svg>
