<svg width="686" height="78" viewBox="0 0 686 78" fill="none" xmlns="http://www.w3.org/2000/svg">
<g filter="url(#filter0_f_53_1066)">
<path d="M293 7C294.648 7 367.034 7 403.02 7L424.859 38.3166H678.859" stroke="#83D3CF" stroke-width="3" stroke-linecap="round"/>
</g>
<path d="M293 7C294.648 7 367.034 7 403.02 7L424.859 38.3166H678.859" stroke="#83D3CF" stroke-width="2" stroke-linecap="round"/>
<g filter="url(#filter1_f_53_1066)">
<path d="M392.859 71.3164C391.211 71.3164 318.826 71.3164 282.839 71.3164L261 39.9998L7 39.9998" stroke="#E0A1F8" stroke-width="3" stroke-linecap="round"/>
</g>
<path d="M392.859 71.3164C391.211 71.3164 318.826 71.3164 282.839 71.3164L261 39.9998L7 39.9998" stroke="#E0A1F8" stroke-width="2" stroke-linecap="round"/>
<path d="M290.06 37.72V39.928H303.476V37.72H290.06ZM302.708 37.72V38.128C302.444 45.064 302.132 47.776 301.508 48.424C301.268 48.688 300.98 48.736 300.524 48.736C299.948 48.736 298.556 48.712 297.092 48.592C297.5 49.24 297.788 50.2 297.836 50.872C299.3 50.944 300.764 50.968 301.58 50.872C302.444 50.776 303.044 50.584 303.572 49.888C304.412 48.928 304.748 46.12 305.06 38.752C305.084 38.44 305.084 37.72 305.084 37.72H302.708ZM294.788 38.344C294.356 42.76 293.564 47.032 287.204 49.12C287.732 49.624 288.404 50.56 288.668 51.16C295.58 48.64 296.732 43.672 297.236 38.344H294.788ZM292.268 29.56C291.14 33.256 288.956 36.472 286.148 38.44C286.7 38.824 287.66 39.664 288.068 40.12C290.876 37.864 293.3 34.288 294.644 30.136L292.268 29.56ZM296.276 29.152V31.264H301.628V29.152H296.276ZM299.468 29.152V30.376H299.996C301.316 34.168 303.908 37.936 307.292 40.072C307.652 39.448 308.42 38.488 308.9 38.008C305.708 36.28 303.164 32.824 301.988 29.152H299.468ZM323.492 38.536V40.48H338.66V38.536H323.492ZM326.156 41.92V43.744H336.356V41.92H326.156ZM327.212 39.256C326.18 41.608 324.212 43.648 322.004 44.944C322.46 45.256 323.204 45.952 323.54 46.336C325.772 44.848 327.956 42.472 329.18 39.76L327.212 39.256ZM335.972 41.92V42.256C335.66 46.744 335.3 48.496 334.868 48.952C334.676 49.168 334.484 49.216 334.148 49.216C333.812 49.216 333.092 49.192 332.252 49.12C332.54 49.6 332.732 50.392 332.756 50.944C333.716 50.992 334.628 50.968 335.156 50.92C335.756 50.848 336.236 50.704 336.644 50.224C337.292 49.528 337.676 47.608 338.036 42.76C338.084 42.472 338.108 41.92 338.108 41.92H335.972ZM327.788 34.168H334.844V35.752H327.788V34.168ZM327.788 31.048H334.844V32.608H327.788V31.048ZM325.748 29.416V37.384H336.956V29.416H325.748ZM316.676 33.88V36.04H323.876V33.88H316.676ZM319.316 28.984V43.816H321.452V28.984H319.316ZM316.172 44.56L317.036 46.84C319.1 45.856 321.716 44.56 324.14 43.312L323.66 41.344C320.9 42.592 318.02 43.84 316.172 44.56ZM333.044 42.28C332.18 45.16 330.188 48.352 327.884 49.84C328.46 50.152 329.156 50.68 329.54 51.112C331.7 49.456 333.716 46.096 334.604 43.12L333.044 42.28ZM329.348 42.328C328.172 44.776 325.676 47.464 323.324 48.712C323.852 49.048 324.452 49.6 324.812 50.08C327.14 48.592 329.66 45.784 330.86 43.216L329.348 42.328ZM356.684 29.968V32.296H364.892V41.152H367.22V29.968H356.684ZM358.34 37.696V39.904H366.02V37.696H358.34ZM357.188 37.696V47.392C357.188 49.96 358.052 50.656 360.716 50.656C361.292 50.656 364.628 50.656 365.204 50.656C367.724 50.656 368.372 49.528 368.636 45.76C367.988 45.592 367.004 45.184 366.476 44.8C366.332 47.944 366.164 48.544 365.036 48.544C364.316 48.544 361.556 48.544 361.004 48.544C359.78 48.544 359.564 48.352 359.564 47.392V37.696H357.188ZM352.748 38.344C353.444 39.952 354.164 42.04 354.428 43.336L356.252 42.568C355.964 41.32 355.172 39.28 354.452 37.72L352.748 38.344ZM350.372 44.608C350.636 46.312 350.924 48.568 350.972 50.032L352.892 49.552C352.82 48.064 352.532 45.88 352.196 44.176L350.372 44.608ZM347.588 44.368C347.348 46.312 346.964 48.472 346.364 49.912C346.868 50.032 347.804 50.344 348.212 50.584C348.764 49.096 349.268 46.816 349.508 44.704L347.588 44.368ZM347.108 37.984C347.108 37.552 348.452 36.88 348.452 36.88V36.832C350.108 34.912 351.836 32.152 353.132 29.488L351.068 28.6C350.06 31.216 348.332 33.952 347.804 34.648C347.3 35.368 346.868 35.848 346.412 35.968C346.652 36.52 346.988 37.528 347.108 37.984ZM347.108 37.984C347.54 37.768 348.284 37.6 352.196 37.192C352.196 36.736 352.292 35.896 352.388 35.32L348.068 35.68L347.06 36.328L347.108 37.984ZM347.276 43.456C347.276 43.024 348.668 42.352 348.668 42.352V42.304C351.092 39.952 353.612 36.688 355.532 33.424L353.588 32.224C351.956 35.512 349.316 38.92 348.476 39.784C347.684 40.648 347.132 41.224 346.556 41.368C346.796 41.944 347.18 43.024 347.276 43.456ZM347.276 43.456C347.804 43.168 348.692 42.952 354.62 42.04C354.596 41.584 354.62 40.744 354.716 40.168L348.212 41.056L347.18 41.752L347.276 43.456ZM353.18 44.08C353.684 45.568 354.284 47.512 354.524 48.784L356.348 48.136C356.084 46.888 355.46 44.992 354.884 43.528L353.18 44.08ZM377.996 34.84V36.76H383.852V34.84H377.996ZM376.676 39.016V40.96H384.86V39.016H376.676ZM376.796 42.28C377.156 43.648 377.516 45.448 377.636 46.624L379.244 46.192C379.1 45.04 378.716 43.264 378.332 41.896L376.796 42.28ZM376.268 48.232L376.748 50.296C379.052 49.84 382.148 49.24 385.1 48.64L384.98 46.816C381.74 47.368 378.404 47.92 376.268 48.232ZM383.612 41.704C383.444 42.952 383.06 44.8 382.748 45.952L383.972 46.336C384.332 45.232 384.74 43.528 385.124 42.112L383.612 41.704ZM380.084 35.632V48.88L381.956 48.52V35.632H380.084ZM380.636 28.72C379.58 30.976 377.756 33.16 375.956 34.576C376.244 35.104 376.676 36.304 376.748 36.76C378.932 34.96 381.092 32.128 382.388 29.344L380.636 28.72ZM380.3 30.832C381.788 32.272 383.78 34.264 384.74 35.488L386.06 33.976C385.052 32.848 382.988 30.928 381.524 29.56L380.3 30.832ZM396.644 40.264C395.924 41.272 394.652 42.64 393.764 43.432L394.988 44.608C395.948 43.84 397.172 42.64 398.18 41.56L396.644 40.264ZM385.7 41.392C386.588 42.352 387.716 43.696 388.22 44.536L389.828 43.312C389.276 42.496 388.124 41.224 387.188 40.312L385.7 41.392ZM388.628 30.808V32.584H395.06V30.808H388.628ZM387.884 34.432V36.184H394.508V34.432H387.884ZM385.196 37.648V39.664H398.564V37.648H385.196ZM390.74 38.848V48.784C390.74 49.024 390.668 49.096 390.38 49.096C390.116 49.096 389.252 49.12 388.364 49.072C388.652 49.648 388.916 50.488 388.988 51.04C390.356 51.04 391.34 50.992 391.988 50.704C392.66 50.368 392.828 49.816 392.828 48.784V38.848H390.74ZM384.74 47.752L385.916 49.456C387.164 48.544 388.676 47.416 390.02 46.336L389.348 44.68C387.644 45.88 385.916 47.056 384.74 47.752ZM388.388 28.72C387.884 31.12 387.092 34.264 386.444 36.184H388.652C389.204 34.36 389.972 31.36 390.5 28.96L388.388 28.72ZM394.436 30.808V31.072C394.172 32.704 393.548 35.872 392.996 38.176L395.06 38.44C395.612 36.16 396.212 33.208 396.572 30.952L395.036 30.712L394.676 30.808H394.436ZM393.236 45.952C394.652 46.984 396.548 48.52 397.436 49.456L398.708 47.896C397.772 47.008 395.852 45.568 394.46 44.584L393.236 45.952Z" fill="#FDFDFD"/>
<defs>
<filter id="filter0_f_53_1066" x="286.5" y="0.5" width="398.859" height="44.3164" filterUnits="userSpaceOnUse" color-interpolation-filters="sRGB">
<feFlood flood-opacity="0" result="BackgroundImageFix"/>
<feBlend mode="normal" in="SourceGraphic" in2="BackgroundImageFix" result="shape"/>
<feGaussianBlur stdDeviation="2.5" result="effect1_foregroundBlur_53_1066"/>
</filter>
<filter id="filter1_f_53_1066" x="0.5" y="33.5" width="398.859" height="44.3164" filterUnits="userSpaceOnUse" color-interpolation-filters="sRGB">
<feFlood flood-opacity="0" result="BackgroundImageFix"/>
<feBlend mode="normal" in="SourceGraphic" in2="BackgroundImageFix" result="shape"/>
<feGaussianBlur stdDeviation="2.5" result="effect1_foregroundBlur_53_1066"/>
</filter>
</defs>
</svg>
