<svg width="686" height="78" viewBox="0 0 686 78" fill="none" xmlns="http://www.w3.org/2000/svg">
<g filter="url(#filter0_f_53_1093)">
<path d="M293 7C294.648 7 367.034 7 403.02 7L424.859 38.3166H678.859" stroke="#83D3CF" stroke-width="3" stroke-linecap="round"/>
</g>
<path d="M293 7C294.648 7 367.034 7 403.02 7L424.859 38.3166H678.859" stroke="#83D3CF" stroke-width="2" stroke-linecap="round"/>
<g filter="url(#filter1_f_53_1093)">
<path d="M392.859 71.3167C391.211 71.3167 318.826 71.3167 282.839 71.3167L261 40.0001L7 40.0001" stroke="#E0A1F8" stroke-width="3" stroke-linecap="round"/>
</g>
<path d="M392.859 71.3167C391.211 71.3167 318.826 71.3167 282.839 71.3167L261 40.0001L7 40.0001" stroke="#E0A1F8" stroke-width="2" stroke-linecap="round"/>
<path d="M306.692 35.656C305.324 36.832 303.044 38.416 301.412 39.28L302.564 40.6C304.244 39.736 306.452 38.416 308.132 37.144L306.692 35.656ZM296.084 29.92C297.164 30.832 298.364 32.176 298.892 33.064L300.668 31.84C300.092 30.952 298.892 29.728 297.764 28.864L296.084 29.92ZM294.308 32.68V34.672H308.42V32.68H294.308ZM300.548 38.392C299.252 39.64 296.636 41.104 294.716 41.824C295.148 42.208 295.676 42.952 295.964 43.456C297.908 42.472 300.572 40.744 301.988 39.352L300.548 38.392ZM301.652 41.632C300.02 43.456 296.636 45.4 293.852 46.216C294.356 46.648 294.884 47.344 295.196 47.848C297.956 46.768 301.364 44.632 303.14 42.64L301.652 41.632ZM304.34 28.768C303.764 29.992 302.732 31.696 301.868 32.752L303.716 33.376C304.556 32.392 305.636 30.856 306.524 29.44L304.34 28.768ZM287.324 29.776V51.04H289.34V31.816H292.988V29.776H287.324ZM292.292 29.776V30.424C291.86 32.008 291.02 35.08 290.252 37.264C291.812 39.016 292.196 40.576 292.196 41.8C292.196 42.496 292.076 43.072 291.74 43.312C291.548 43.456 291.308 43.528 291.02 43.528C290.684 43.552 290.276 43.528 289.772 43.504C290.108 44.056 290.276 44.92 290.3 45.472C290.852 45.496 291.428 45.472 291.908 45.424C292.412 45.352 292.844 45.208 293.204 44.968C293.924 44.464 294.212 43.456 294.212 42.04C294.212 40.6 293.852 38.944 292.22 37C292.964 35.104 293.828 32.584 294.476 30.568L293.012 29.704L292.676 29.776H292.292ZM300.452 33.376C298.964 35.224 296.3 36.88 293.756 37.888C294.188 38.248 294.836 39.088 295.1 39.496C297.668 38.272 300.572 36.28 302.324 34.096L300.452 33.376ZM305.036 39.04L303.308 39.64C304.244 42.592 305.924 45.856 307.556 47.68C307.892 47.2 308.564 46.528 309.02 46.192C307.46 44.632 305.852 41.728 305.036 39.04ZM298.532 36.016C302.492 40.024 302.18 46.84 300.836 48.136C300.452 48.64 300.068 48.736 299.492 48.736C298.988 48.736 298.196 48.712 297.404 48.616C297.764 49.216 297.932 50.08 297.956 50.656C298.628 50.704 299.42 50.728 299.876 50.728C301.004 50.704 301.748 50.44 302.468 49.648C304.532 47.776 304.7 39.616 300.164 35.128L298.532 36.016ZM324.068 30.616V32.728H337.676V30.616H324.068ZM324.068 38.128V40.264H335.372V38.128H324.068ZM328.748 31.24C328.1 36.856 326.876 44.608 325.916 49.096H328.268C329.132 44.752 330.332 37.144 331.076 31.432L328.748 31.24ZM322.964 47.944V50.08H338.804V47.944H322.964ZM334.22 38.128V49.024H336.5V38.128H334.22ZM321.572 28.864C320.3 32.464 318.116 36.04 315.812 38.344C316.196 38.896 316.82 40.096 316.988 40.648C319.628 37.912 322.124 33.664 323.684 29.512L321.572 28.864ZM319.46 35.152V51.016H321.668V33.016L321.644 32.992L319.46 35.152ZM360.932 38.392V51.064H363.332V38.392H360.932ZM351.908 38.416V41.32C351.908 43.96 351.452 47.08 347.06 49.384C347.66 49.744 348.548 50.536 348.956 51.064C353.756 48.424 354.308 44.584 354.308 41.368V38.416H351.908ZM357.404 28.528C355.22 32.176 350.636 35.656 346.052 37.12C346.556 37.696 347.132 38.632 347.444 39.28C352.052 37.456 356.78 33.736 359.252 29.8L357.404 28.528ZM358.532 30.04L356.54 30.856C358.964 34.456 363.068 37.552 367.436 38.968C367.796 38.32 368.54 37.336 369.068 36.832C364.82 35.704 360.644 32.968 358.532 30.04ZM387.836 47.944V49.96H395.948V47.944H387.836ZM386.588 41.104V51.04H388.82V43.12H394.94V50.92H397.268V41.104H386.588ZM385.964 29.944V31.936H396.092V29.944H385.964ZM395.804 29.944V30.28C395.612 35.032 395.372 36.832 394.964 37.288C394.748 37.504 394.532 37.552 394.196 37.552C393.788 37.552 392.876 37.552 391.892 37.456C392.228 38.008 392.468 38.896 392.492 39.52C393.596 39.592 394.628 39.592 395.228 39.496C395.9 39.424 396.356 39.256 396.812 38.728C397.412 38.008 397.676 35.968 397.94 30.832C397.964 30.544 397.964 29.944 397.964 29.944H395.804ZM389.972 30.76C389.708 34 389.036 36.928 385.7 38.56C386.204 38.944 386.828 39.736 387.092 40.264C390.956 38.248 391.868 34.768 392.228 30.76H389.972ZM382.508 38.392C383.132 40.048 383.756 42.208 383.972 43.528L385.82 42.904C385.556 41.632 384.86 39.496 384.212 37.864L382.508 38.392ZM380.132 44.632C380.42 46.288 380.66 48.448 380.708 49.864L382.556 49.48C382.484 48.064 382.196 45.952 381.884 44.296L380.132 44.632ZM377.348 44.368C377.156 46.312 376.82 48.472 376.268 49.912C376.748 50.032 377.66 50.344 378.092 50.56C378.596 49.072 379.028 46.792 379.244 44.68L377.348 44.368ZM376.916 37.984C376.916 37.552 378.236 36.88 378.236 36.88V36.832C379.868 34.912 381.572 32.152 382.844 29.488L380.756 28.6C379.796 31.216 378.116 33.928 377.588 34.648C377.084 35.368 376.652 35.848 376.22 35.968C376.46 36.52 376.796 37.528 376.916 37.984ZM376.916 37.984C377.348 37.768 378.068 37.6 381.86 37.216C381.884 36.76 381.956 35.968 382.076 35.416L377.852 35.752L376.844 36.376L376.916 37.984ZM377.084 43.456C377.084 43.024 378.452 42.352 378.452 42.352V42.304C380.828 40 383.276 36.76 385.148 33.544L383.204 32.32C381.62 35.56 379.052 38.92 378.236 39.784C377.468 40.648 376.916 41.224 376.364 41.368C376.604 41.944 376.964 43 377.084 43.456ZM377.084 43.456C377.612 43.168 378.476 42.976 384.38 42.112C384.356 41.68 384.404 40.888 384.5 40.336L378.02 41.152L376.988 41.824L377.084 43.456ZM382.748 44.152C383.228 45.544 383.78 47.392 383.996 48.592L385.748 47.992C385.532 46.792 384.956 45.016 384.428 43.624L382.748 44.152Z" fill="#FDFDFD"/>
<defs>
<filter id="filter0_f_53_1093" x="286.5" y="0.5" width="398.859" height="44.3167" filterUnits="userSpaceOnUse" color-interpolation-filters="sRGB">
<feFlood flood-opacity="0" result="BackgroundImageFix"/>
<feBlend mode="normal" in="SourceGraphic" in2="BackgroundImageFix" result="shape"/>
<feGaussianBlur stdDeviation="2.5" result="effect1_foregroundBlur_53_1093"/>
</filter>
<filter id="filter1_f_53_1093" x="0.5" y="33.5" width="398.859" height="44.3167" filterUnits="userSpaceOnUse" color-interpolation-filters="sRGB">
<feFlood flood-opacity="0" result="BackgroundImageFix"/>
<feBlend mode="normal" in="SourceGraphic" in2="BackgroundImageFix" result="shape"/>
<feGaussianBlur stdDeviation="2.5" result="effect1_foregroundBlur_53_1093"/>
</filter>
</defs>
</svg>
