<svg width="686" height="78" viewBox="0 0 686 78" fill="none" xmlns="http://www.w3.org/2000/svg">
<g filter="url(#filter0_f_53_1075)">
<path d="M293 7C294.648 7 367.034 7 403.02 7L424.859 38.3166H678.859" stroke="#83D3CF" stroke-width="3" stroke-linecap="round"/>
</g>
<path d="M293 7C294.648 7 367.034 7 403.02 7L424.859 38.3166H678.859" stroke="#83D3CF" stroke-width="2" stroke-linecap="round"/>
<g filter="url(#filter1_f_53_1075)">
<path d="M392.859 71.3167C391.211 71.3167 318.826 71.3167 282.839 71.3167L261 40.0001L7 40.0001" stroke="#E0A1F8" stroke-width="3" stroke-linecap="round"/>
</g>
<path d="M392.859 71.3167C391.211 71.3167 318.826 71.3167 282.839 71.3167L261 40.0001L7 40.0001" stroke="#E0A1F8" stroke-width="2" stroke-linecap="round"/>
<path d="M290.972 30.16V32.464H297.764V30.16H290.972ZM296.636 30.16C296.636 34.84 297.548 45.28 306.932 50.944C307.34 50.392 308.252 49.408 308.78 49C299.564 43.552 298.964 34.576 298.964 30.16H296.636ZM295.796 35.104C294.404 41.704 291.452 46.48 286.268 49.144C286.868 49.576 287.924 50.512 288.332 50.992C293.516 47.92 296.684 42.808 298.388 35.584L295.796 35.104ZM323.492 38.536V40.48H338.66V38.536H323.492ZM326.156 41.92V43.744H336.356V41.92H326.156ZM327.212 39.256C326.18 41.608 324.212 43.648 322.004 44.944C322.46 45.256 323.204 45.952 323.54 46.336C325.772 44.848 327.956 42.472 329.18 39.76L327.212 39.256ZM335.972 41.92V42.256C335.66 46.744 335.3 48.496 334.868 48.952C334.676 49.168 334.484 49.216 334.148 49.216C333.812 49.216 333.092 49.192 332.252 49.12C332.54 49.6 332.732 50.392 332.756 50.944C333.716 50.992 334.628 50.968 335.156 50.92C335.756 50.848 336.236 50.704 336.644 50.224C337.292 49.528 337.676 47.608 338.036 42.76C338.084 42.472 338.108 41.92 338.108 41.92H335.972ZM327.788 34.168H334.844V35.752H327.788V34.168ZM327.788 31.048H334.844V32.608H327.788V31.048ZM325.748 29.416V37.384H336.956V29.416H325.748ZM316.676 33.88V36.04H323.876V33.88H316.676ZM319.316 28.984V43.816H321.452V28.984H319.316ZM316.172 44.56L317.036 46.84C319.1 45.856 321.716 44.56 324.14 43.312L323.66 41.344C320.9 42.592 318.02 43.84 316.172 44.56ZM333.044 42.28C332.18 45.16 330.188 48.352 327.884 49.84C328.46 50.152 329.156 50.68 329.54 51.112C331.7 49.456 333.716 46.096 334.604 43.12L333.044 42.28ZM329.348 42.328C328.172 44.776 325.676 47.464 323.324 48.712C323.852 49.048 324.452 49.6 324.812 50.08C327.14 48.592 329.66 45.784 330.86 43.216L329.348 42.328ZM352.172 29.152C350.804 30.928 348.308 32.752 346.268 33.832C346.868 34.24 347.564 34.936 347.948 35.464C350.132 34.144 352.652 32.152 354.308 30.064L352.172 29.152ZM352.652 35.896C351.284 37.768 348.716 39.688 346.58 40.792C347.18 41.272 347.852 41.992 348.236 42.544C350.516 41.152 353.084 39.04 354.74 36.784L352.652 35.896ZM353.18 42.616C351.716 45.136 348.956 47.416 346.22 48.688C346.82 49.192 347.492 49.96 347.852 50.536C350.804 48.904 353.588 46.384 355.316 43.432L353.18 42.616ZM354.884 29.872V31.792H368.444V29.872H354.884ZM358.076 38.968H365.396V40.96H358.076V38.968ZM358.076 42.568H365.396V44.584H358.076V42.568ZM358.076 35.392H365.396V37.36H358.076V35.392ZM355.94 33.688V46.288H367.628V33.688H355.94ZM360.452 30.832C360.308 31.984 359.948 33.616 359.636 34.744L361.676 35.128C362.084 34.12 362.636 32.608 363.068 31.168L360.452 30.832ZM358.628 46.6C357.452 47.608 355.004 48.808 352.988 49.456C353.444 49.888 354.068 50.56 354.38 51.04C356.492 50.344 358.964 49.096 360.524 47.872L358.628 46.6ZM362.516 47.92C364.124 48.832 366.236 50.176 367.244 51.064L369.044 49.72C367.916 48.808 365.78 47.512 364.22 46.696L362.516 47.92ZM389.492 46.36V48.496H396.356V46.36H389.492ZM388.508 30.832V50.344H390.692V32.968H395.108V50.032H397.388V30.832H388.508ZM381.236 32.92V37.624C381.236 41.272 380.732 46 376.172 49.264C376.652 49.6 377.492 50.488 377.78 50.968C382.676 47.44 383.516 41.728 383.516 37.648V32.92H381.236ZM378.98 31.888V34H387.14V31.888H378.98ZM376.484 38.368V40.528H387.788V38.368H376.484ZM382.892 41.608L381.5 42.904C382.652 44.2 385.244 47.344 386.3 48.952L387.836 47.032C387.092 46.144 383.852 42.472 382.892 41.608ZM378.98 28.744C378.452 31.6 377.492 34.432 376.124 36.232C376.628 36.52 377.564 37.168 377.972 37.528C379.364 35.488 380.516 32.368 381.164 29.176L378.98 28.744Z" fill="#FDFDFD"/>
<defs>
<filter id="filter0_f_53_1075" x="286.5" y="0.5" width="398.859" height="44.3167" filterUnits="userSpaceOnUse" color-interpolation-filters="sRGB">
<feFlood flood-opacity="0" result="BackgroundImageFix"/>
<feBlend mode="normal" in="SourceGraphic" in2="BackgroundImageFix" result="shape"/>
<feGaussianBlur stdDeviation="2.5" result="effect1_foregroundBlur_53_1075"/>
</filter>
<filter id="filter1_f_53_1075" x="0.5" y="33.5" width="398.859" height="44.3167" filterUnits="userSpaceOnUse" color-interpolation-filters="sRGB">
<feFlood flood-opacity="0" result="BackgroundImageFix"/>
<feBlend mode="normal" in="SourceGraphic" in2="BackgroundImageFix" result="shape"/>
<feGaussianBlur stdDeviation="2.5" result="effect1_foregroundBlur_53_1075"/>
</filter>
</defs>
</svg>
