<svg width="686" height="78" viewBox="0 0 686 78" fill="none" xmlns="http://www.w3.org/2000/svg">
<g filter="url(#filter0_f_53_1083)">
<path d="M293 7C294.648 7 367.034 7 403.02 7L424.859 38.3166H678.859" stroke="#83D3CF" stroke-width="3" stroke-linecap="round"/>
</g>
<path d="M293 7C294.648 7 367.034 7 403.02 7L424.859 38.3166H678.859" stroke="#83D3CF" stroke-width="2" stroke-linecap="round"/>
<g filter="url(#filter1_f_53_1083)">
<path d="M392.859 71.3167C391.211 71.3167 318.826 71.3167 282.839 71.3167L261 40.0001L7 40.0001" stroke="#E0A1F8" stroke-width="3" stroke-linecap="round"/>
</g>
<path d="M392.859 71.3167C391.211 71.3167 318.826 71.3167 282.839 71.3167L261 40.0001L7 40.0001" stroke="#E0A1F8" stroke-width="2" stroke-linecap="round"/>
<path d="M287.132 30.184V34.024H289.196V31.96H305.78V34.024H307.94V30.184H287.132ZM292.892 32.344V38.632H295.004V32.344H292.892ZM299.996 32.344V38.632H302.132V32.344H299.996ZM289.412 33.28V34.6H305.588V33.28H289.412ZM289.748 35.512V36.76H305.372V35.512H289.748ZM286.916 37.648V39.28H308.156V37.648H286.916ZM293.252 38.08C291.788 39.808 288.884 41.32 286.196 42.064C286.652 42.448 287.252 43.216 287.564 43.696C290.324 42.784 293.276 40.864 294.932 38.776L293.252 38.08ZM302.012 37.984L300.356 38.632C301.916 40.672 304.7 42.544 307.388 43.408C307.7 42.88 308.324 42.088 308.804 41.68C306.164 41.032 303.404 39.616 302.012 37.984ZM292.772 43.576H302.156V44.512H292.772V43.576ZM292.772 45.688H302.156V46.672H292.772V45.688ZM292.772 41.488H302.156V42.424H292.772V41.488ZM290.684 40.288V47.848H304.34V40.288H290.684ZM298.844 48.688C301.532 49.432 304.196 50.32 305.804 50.944L307.676 49.672C305.876 49.048 302.924 48.16 300.284 47.464L298.844 48.688ZM294.26 47.44C292.748 48.232 289.532 49.12 286.916 49.528C287.324 49.912 287.924 50.608 288.236 50.992C290.852 50.56 294.092 49.648 296.036 48.592L294.26 47.44ZM296.012 29.104C296.42 29.824 296.828 30.808 296.972 31.432L299.324 30.736C299.156 30.136 298.7 29.176 298.268 28.504L296.012 29.104ZM326.252 28.744V48.688C326.252 49.12 326.108 49.264 325.652 49.288C325.244 49.288 323.804 49.312 322.508 49.264C322.796 49.744 323.156 50.56 323.276 51.088C325.292 51.088 326.564 51.064 327.404 50.776C328.22 50.44 328.556 49.936 328.556 48.688V28.744H326.252ZM317.036 30.52V32.344H337.988V30.52H317.036ZM321.692 35.08H333.284V36.544H321.692V35.08ZM319.532 33.568V38.056H335.612V33.568H319.532ZM318.884 39.472V41.08H333.692V48.496H335.996V39.472H318.884ZM316.532 42.472V44.224H338.492V42.472H316.532ZM318.668 45.736V47.44H334.916V45.736H318.668ZM346.94 32.608V34.624H355.604V32.608H346.94ZM346.484 38.176V40.24H356.036V38.176H346.484ZM350.252 28.984V37.456C350.252 41.152 350.036 46.288 346.268 49.096C346.772 49.504 347.492 50.272 347.804 50.752C351.932 47.392 352.388 41.8 352.388 37.456V28.984H350.252ZM352.004 41.104L350.612 42.184C351.596 43.288 353.828 46.072 354.692 47.416L356.228 45.76C355.604 45.016 352.82 41.848 352.004 41.104ZM358.964 35.464H365.132V37.408H358.964V35.464ZM358.964 39.232H365.132V41.224H358.964V39.232ZM358.964 31.672H365.132V33.616H358.964V31.672ZM356.852 29.656V43.24H367.316V29.656H356.852ZM362.492 42.448V47.944C362.492 49.936 362.876 50.584 364.748 50.584C365.108 50.584 366.188 50.584 366.548 50.584C368.108 50.584 368.636 49.744 368.828 46.408C368.252 46.24 367.364 45.904 366.932 45.544C366.884 48.256 366.788 48.592 366.332 48.592C366.092 48.592 365.276 48.592 365.108 48.592C364.652 48.592 364.604 48.52 364.604 47.92V42.448H362.492ZM358.652 42.832C358.316 45.832 357.524 48.088 353.732 49.336C354.188 49.72 354.764 50.512 355.004 51.016C359.3 49.456 360.38 46.648 360.812 42.832H358.652ZM389.54 31.648V45.088H391.748V31.648H389.54ZM395.324 29.224V48.16C395.324 48.616 395.156 48.76 394.7 48.76C394.196 48.784 392.684 48.784 391.028 48.736C391.364 49.384 391.724 50.416 391.844 51.04C394.052 51.064 395.516 50.992 396.404 50.632C397.244 50.248 397.58 49.6 397.58 48.16V29.224H395.324ZM379.34 45.52C378.668 47.08 377.468 48.664 376.196 49.72C376.748 50.008 377.684 50.68 378.092 51.088C379.388 49.888 380.756 47.992 381.572 46.12L379.34 45.52ZM383.396 46.36C384.452 47.68 385.556 49.48 386.012 50.68L388.1 49.672C387.572 48.496 386.444 46.792 385.364 45.544L383.396 46.36ZM379.844 36.064H385.004V38.608H379.844V36.064ZM379.844 40.432H385.004V43H379.844V40.432ZM379.844 31.696H385.004V34.24H379.844V31.696ZM377.708 29.68V45.04H387.26V29.68H377.708Z" fill="#FDFDFD"/>
<defs>
<filter id="filter0_f_53_1083" x="286.5" y="0.5" width="398.859" height="44.3167" filterUnits="userSpaceOnUse" color-interpolation-filters="sRGB">
<feFlood flood-opacity="0" result="BackgroundImageFix"/>
<feBlend mode="normal" in="SourceGraphic" in2="BackgroundImageFix" result="shape"/>
<feGaussianBlur stdDeviation="2.5" result="effect1_foregroundBlur_53_1083"/>
</filter>
<filter id="filter1_f_53_1083" x="0.5" y="33.5" width="398.859" height="44.3167" filterUnits="userSpaceOnUse" color-interpolation-filters="sRGB">
<feFlood flood-opacity="0" result="BackgroundImageFix"/>
<feBlend mode="normal" in="SourceGraphic" in2="BackgroundImageFix" result="shape"/>
<feGaussianBlur stdDeviation="2.5" result="effect1_foregroundBlur_53_1083"/>
</filter>
</defs>
</svg>
