<svg width="686" height="78" viewBox="0 0 686 78" fill="none" xmlns="http://www.w3.org/2000/svg">
<g filter="url(#filter0_f_16_306)">
<path d="M293 7C294.648 7 367.034 7 403.02 7L424.859 38.3166H678.859" stroke="#83D3CF" stroke-width="3" stroke-linecap="round"/>
</g>
<path d="M293 7C294.648 7 367.034 7 403.02 7L424.859 38.3166H678.859" stroke="#83D3CF" stroke-width="2" stroke-linecap="round"/>
<g filter="url(#filter1_f_16_306)">
<path d="M392.859 71.3166C391.211 71.3166 318.826 71.3166 282.839 71.3166L261 40L7 40" stroke="#E0A1F8" stroke-width="3" stroke-linecap="round"/>
</g>
<path d="M392.859 71.3166C391.211 71.3166 318.826 71.3166 282.839 71.3166L261 40L7 40" stroke="#E0A1F8" stroke-width="2" stroke-linecap="round"/>
<path d="M289.628 29.776V31.84H308.228V29.776H289.628ZM289.94 48.496V50.392H308.276V48.496H289.94ZM299.372 44.152V45.952H306.092V44.152H299.372ZM288.188 29.776V37.024C288.188 40.816 288.02 46.168 286.148 49.912C286.7 50.128 287.636 50.656 288.068 50.968C290.06 47.008 290.348 41.056 290.348 37.024V29.776H288.188ZM298.172 41.944V49.552H300.38V41.944H298.172ZM292.82 43.648V49.576H294.98V43.648H292.82ZM290.972 35.848V37.48H298.436V35.848H290.972ZM293.852 33.256V42.04H295.748V33.256H293.852ZM293.612 36.544C292.82 38.104 291.356 39.784 289.964 40.6C290.372 40.936 290.924 41.536 291.212 41.992C292.628 40.912 294.092 38.896 294.884 37.024L293.612 36.544ZM299.108 35.848V37.48H307.796V35.848H299.108ZM302.18 33.256V42.04H304.1V33.256H302.18ZM301.628 36.544C300.86 38.08 299.3 39.76 297.86 40.576C298.268 40.912 298.82 41.536 299.108 41.992C300.596 40.936 302.132 38.896 302.924 37L301.628 36.544ZM295.652 37.408L294.548 38.248C295.22 38.752 296.708 40.096 297.26 40.696L298.388 39.28C297.932 38.92 296.204 37.744 295.652 37.408ZM296.708 32.224C295.436 32.752 293.012 33.136 290.9 33.328C291.116 33.688 291.332 34.288 291.428 34.648C293.684 34.504 296.396 34.096 298.172 33.376L296.708 32.224ZM305.372 32.128C303.98 32.704 301.292 33.064 298.988 33.28C299.18 33.616 299.42 34.24 299.492 34.6C301.964 34.456 304.916 34.024 306.86 33.304L305.372 32.128ZM304.124 37.504L303.092 38.464C304.076 39.16 306.428 41.056 307.316 41.92L308.348 40.408C307.676 39.904 304.94 37.984 304.124 37.504ZM326.348 28.864V39.208C326.348 43.504 325.604 47.224 316.388 49.048C316.868 49.552 317.492 50.536 317.756 51.064C327.356 48.856 328.7 44.296 328.7 39.208V28.864H326.348ZM320.516 34.576H334.508V38.584H320.516V34.576ZM318.284 32.392V40.768H336.836V32.392H318.284ZM321.428 41.344L319.364 42.088C322.58 48.88 328.412 50.392 337.748 50.896C337.892 50.104 338.348 49.12 338.804 48.568C329.708 48.28 324.452 47.224 321.428 41.344ZM356.684 29.968V32.296H364.892V41.152H367.22V29.968H356.684ZM358.34 37.696V39.904H366.02V37.696H358.34ZM357.188 37.696V47.392C357.188 49.96 358.052 50.656 360.716 50.656C361.292 50.656 364.628 50.656 365.204 50.656C367.724 50.656 368.372 49.528 368.636 45.76C367.988 45.592 367.004 45.184 366.476 44.8C366.332 47.944 366.164 48.544 365.036 48.544C364.316 48.544 361.556 48.544 361.004 48.544C359.78 48.544 359.564 48.352 359.564 47.392V37.696H357.188ZM352.748 38.344C353.444 39.952 354.164 42.04 354.428 43.336L356.252 42.568C355.964 41.32 355.172 39.28 354.452 37.72L352.748 38.344ZM350.372 44.608C350.636 46.312 350.924 48.568 350.972 50.032L352.892 49.552C352.82 48.064 352.532 45.88 352.196 44.176L350.372 44.608ZM347.588 44.368C347.348 46.312 346.964 48.472 346.364 49.912C346.868 50.032 347.804 50.344 348.212 50.584C348.764 49.096 349.268 46.816 349.508 44.704L347.588 44.368ZM347.108 37.984C347.108 37.552 348.452 36.88 348.452 36.88V36.832C350.108 34.912 351.836 32.152 353.132 29.488L351.068 28.6C350.06 31.216 348.332 33.952 347.804 34.648C347.3 35.368 346.868 35.848 346.412 35.968C346.652 36.52 346.988 37.528 347.108 37.984ZM347.108 37.984C347.54 37.768 348.284 37.6 352.196 37.192C352.196 36.736 352.292 35.896 352.388 35.32L348.068 35.68L347.06 36.328L347.108 37.984ZM347.276 43.456C347.276 43.024 348.668 42.352 348.668 42.352V42.304C351.092 39.952 353.612 36.688 355.532 33.424L353.588 32.224C351.956 35.512 349.316 38.92 348.476 39.784C347.684 40.648 347.132 41.224 346.556 41.368C346.796 41.944 347.18 43.024 347.276 43.456ZM347.276 43.456C347.804 43.168 348.692 42.952 354.62 42.04C354.596 41.584 354.62 40.744 354.716 40.168L348.212 41.056L347.18 41.752L347.276 43.456ZM353.18 44.08C353.684 45.568 354.284 47.512 354.524 48.784L356.348 48.136C356.084 46.888 355.46 44.992 354.884 43.528L353.18 44.08ZM377.996 34.84V36.76H383.852V34.84H377.996ZM376.676 39.016V40.96H384.86V39.016H376.676ZM376.796 42.28C377.156 43.648 377.516 45.448 377.636 46.624L379.244 46.192C379.1 45.04 378.716 43.264 378.332 41.896L376.796 42.28ZM376.268 48.232L376.748 50.296C379.052 49.84 382.148 49.24 385.1 48.64L384.98 46.816C381.74 47.368 378.404 47.92 376.268 48.232ZM383.612 41.704C383.444 42.952 383.06 44.8 382.748 45.952L383.972 46.336C384.332 45.232 384.74 43.528 385.124 42.112L383.612 41.704ZM380.084 35.632V48.88L381.956 48.52V35.632H380.084ZM380.636 28.72C379.58 30.976 377.756 33.16 375.956 34.576C376.244 35.104 376.676 36.304 376.748 36.76C378.932 34.96 381.092 32.128 382.388 29.344L380.636 28.72ZM380.3 30.832C381.788 32.272 383.78 34.264 384.74 35.488L386.06 33.976C385.052 32.848 382.988 30.928 381.524 29.56L380.3 30.832ZM396.644 40.264C395.924 41.272 394.652 42.64 393.764 43.432L394.988 44.608C395.948 43.84 397.172 42.64 398.18 41.56L396.644 40.264ZM385.7 41.392C386.588 42.352 387.716 43.696 388.22 44.536L389.828 43.312C389.276 42.496 388.124 41.224 387.188 40.312L385.7 41.392ZM388.628 30.808V32.584H395.06V30.808H388.628ZM387.884 34.432V36.184H394.508V34.432H387.884ZM385.196 37.648V39.664H398.564V37.648H385.196ZM390.74 38.848V48.784C390.74 49.024 390.668 49.096 390.38 49.096C390.116 49.096 389.252 49.12 388.364 49.072C388.652 49.648 388.916 50.488 388.988 51.04C390.356 51.04 391.34 50.992 391.988 50.704C392.66 50.368 392.828 49.816 392.828 48.784V38.848H390.74ZM384.74 47.752L385.916 49.456C387.164 48.544 388.676 47.416 390.02 46.336L389.348 44.68C387.644 45.88 385.916 47.056 384.74 47.752ZM388.388 28.72C387.884 31.12 387.092 34.264 386.444 36.184H388.652C389.204 34.36 389.972 31.36 390.5 28.96L388.388 28.72ZM394.436 30.808V31.072C394.172 32.704 393.548 35.872 392.996 38.176L395.06 38.44C395.612 36.16 396.212 33.208 396.572 30.952L395.036 30.712L394.676 30.808H394.436ZM393.236 45.952C394.652 46.984 396.548 48.52 397.436 49.456L398.708 47.896C397.772 47.008 395.852 45.568 394.46 44.584L393.236 45.952Z" fill="#FDFDFD"/>
<defs>
<filter id="filter0_f_16_306" x="286.5" y="0.5" width="398.859" height="44.3166" filterUnits="userSpaceOnUse" color-interpolation-filters="sRGB">
<feFlood flood-opacity="0" result="BackgroundImageFix"/>
<feBlend mode="normal" in="SourceGraphic" in2="BackgroundImageFix" result="shape"/>
<feGaussianBlur stdDeviation="2.5" result="effect1_foregroundBlur_16_306"/>
</filter>
<filter id="filter1_f_16_306" x="0.5" y="33.5" width="398.859" height="44.3166" filterUnits="userSpaceOnUse" color-interpolation-filters="sRGB">
<feFlood flood-opacity="0" result="BackgroundImageFix"/>
<feBlend mode="normal" in="SourceGraphic" in2="BackgroundImageFix" result="shape"/>
<feGaussianBlur stdDeviation="2.5" result="effect1_foregroundBlur_16_306"/>
</filter>
</defs>
</svg>
