<svg width="686" height="78" viewBox="0 0 686 78" fill="none" xmlns="http://www.w3.org/2000/svg">
<g filter="url(#filter0_f_20_371)">
<path d="M293 7C294.648 7 367.034 7 403.02 7L424.859 38.3166H678.859" stroke="#83D3CF" stroke-width="3" stroke-linecap="round"/>
</g>
<path d="M293 7C294.648 7 367.034 7 403.02 7L424.859 38.3166H678.859" stroke="#83D3CF" stroke-width="2" stroke-linecap="round"/>
<g filter="url(#filter1_f_20_371)">
<path d="M392.859 71.3166C391.211 71.3166 318.826 71.3166 282.839 71.3166L261 40L7 40" stroke="#E0A1F8" stroke-width="3" stroke-linecap="round"/>
</g>
<path d="M392.859 71.3166C391.211 71.3166 318.826 71.3166 282.839 71.3166L261 40L7 40" stroke="#E0A1F8" stroke-width="2" stroke-linecap="round"/>
<path d="M329.948 42.496C331.844 45.112 334.148 48.712 335.228 50.944L337.532 49.696C336.38 47.512 334.1 44.104 332.156 41.488L329.948 42.496ZM322.868 29.392C321.38 32.968 318.86 36.496 316.22 38.704C316.796 39.136 317.804 40.096 318.236 40.6C320.876 38.104 323.612 34.144 325.364 30.184L322.868 29.392ZM319.292 50.008C319.292 49.504 321.068 48.688 321.068 48.688V48.64C323.972 45.712 326.972 41.512 329.348 37.288L326.732 36.184C324.764 40.24 321.692 44.464 320.684 45.544C319.748 46.648 319.1 47.368 318.38 47.56C318.716 48.232 319.148 49.504 319.292 50.008ZM319.292 50.008C320.372 49.576 321.908 49.504 335.3 48.52C335.156 47.992 334.916 47.032 334.796 46.336L320.804 47.2L319.22 48.064L319.292 50.008ZM329.972 29.344V30.64H330.5C331.772 34.408 334.196 38.272 337.22 40.552C337.604 39.856 338.444 38.824 338.972 38.344C336.068 36.496 333.74 32.968 332.636 29.344H329.972ZM326.684 29.344V31.672H331.844V29.344H326.684ZM346.916 37.48V39.592H368.108V37.48H346.916ZM350.852 32.056V34.144H366.476V32.056H350.852ZM351.02 47.8V49.912H364.268V47.8H351.02ZM356.852 28.744V38.752H359.252V28.744H356.852ZM349.796 41.704V51.184H352.1V43.792H363.116V51.136H365.516V41.704H349.796ZM351.164 28.888C350.276 31.552 348.764 34.264 347.012 35.944C347.564 36.208 348.62 36.808 349.076 37.168C350.732 35.296 352.412 32.392 353.42 29.44L351.164 28.888Z" fill="#FDFDFD"/>
<defs>
<filter id="filter0_f_20_371" x="286.5" y="0.5" width="398.859" height="44.3166" filterUnits="userSpaceOnUse" color-interpolation-filters="sRGB">
<feFlood flood-opacity="0" result="BackgroundImageFix"/>
<feBlend mode="normal" in="SourceGraphic" in2="BackgroundImageFix" result="shape"/>
<feGaussianBlur stdDeviation="2.5" result="effect1_foregroundBlur_20_371"/>
</filter>
<filter id="filter1_f_20_371" x="0.5" y="33.5" width="398.859" height="44.3166" filterUnits="userSpaceOnUse" color-interpolation-filters="sRGB">
<feFlood flood-opacity="0" result="BackgroundImageFix"/>
<feBlend mode="normal" in="SourceGraphic" in2="BackgroundImageFix" result="shape"/>
<feGaussianBlur stdDeviation="2.5" result="effect1_foregroundBlur_20_371"/>
</filter>
</defs>
</svg>
