<?xml version="1.0" encoding="UTF-8"?>
<svg id="Layer_4" data-name="Layer 4" xmlns="http://www.w3.org/2000/svg" viewBox="0 0 32 32">
  <defs>
    <style>
      .cls-1 {
        fill: #ff0085;
      }

      .cls-2 {
        fill: none;
        stroke: #ff0085;
        stroke-miterlimit: 10;
        stroke-width: 2px;
      }
    </style>
  </defs>
  <polygon class="cls-2" points="30.59 30.59 1.41 30.59 1.41 1.41 30.59 1.41 30.59 30.59 30.59 30.59"/>
  <g>
    <path class="cls-1" d="M15.55,6.67h-5.02v1.01h4.53v5.91c0,.54-.14,.94-.42,1.18-.28,.24-.74,.36-1.37,.36h-1.44l-.39-1.26h2.12v-1.55l-.9,.86-2.52-2.21c-.08-.07-.15-.11-.21-.11-.07,0-.14,.05-.21,.15-.25,.34-.59,.68-1.02,1.02-.43,.35-1.01,.75-1.74,1.2l-.77-.95v2.92h-1.5V7.68h4.32v-1.01H4.16v-1.26H15.55v1.26ZM6.19,12.05c.67-.4,1.2-.75,1.58-1.05,.38-.3,.66-.62,.86-.94,.19-.32,.31-.7,.36-1.15h-2.8v3.14Zm7.38-.03v-3.1h-3.07c-.04,.54-.16,1.03-.36,1.45l.09,.06,.35-.31c.12-.1,.23-.15,.35-.15,.14,0,.3,.07,.46,.21l2.19,1.85Z"/>
    <path class="cls-1" d="M28,10.05v1.37h-4.84v3.84h-1.62v-3.84h-4.84v-1.37h4.84v-2.13h-2.1c-.45,.7-.96,1.31-1.54,1.83l-1.24-.94c1.13-1.01,1.92-2.24,2.37-3.69l1.54,.26c-.08,.34-.22,.73-.42,1.19h7.28v1.34h-4.27v2.13h4.84Z"/>
    <path class="cls-1" d="M14.84,22.66c-.03,.4-.08,.86-.14,1.4h.72v1.1h-.9l-.05,.25c-.1,.48-.27,.81-.52,.99-.25,.18-.63,.28-1.17,.28h-1.04l-.39-1.06h1.25c.2,0,.34-.03,.41-.1s.13-.19,.17-.36h-4.93c.17-.77,.31-1.6,.44-2.5h-.77v-.43l-.46,.35-.37-1.39s-.03-.07-.05-.07-.04,.03-.04,.09v5.47h-1.32v-4.72h-.12c-.05,.55-.14,1-.27,1.35s-.37,.75-.7,1.18l-.71-1.32c.54-.64,.94-1.25,1.2-1.82s.42-1.16,.48-1.76h-1.4v-1.2h1.52v-1.84h1.32v1.84h1.21v.42c.62-.7,1.06-1.53,1.32-2.49l1.32,.21c-.09,.31-.19,.6-.3,.88h4.92v1.17h-5.48c-.11,.18-.26,.41-.45,.68h5.38c0,.87-.01,1.66-.04,2.37h.71v1.02h-.76Zm-6.03-1.02c.06-.52,.1-1.09,.12-1.71l-.72-.55v.22h-1.21v.96h.06l.35-.21c.13-.08,.24-.12,.31-.12,.12,0,.23,.1,.32,.31l.34,1.1h.42Zm1.17,1.02c-.03,.26-.08,.73-.17,1.4h1.95c-.26-.28-.64-.63-1.14-1.06l.55-.34h-1.19Zm.21-2.35c-.02,.26-.05,.7-.1,1.32h1.71c-.27-.29-.63-.63-1.1-1.01l.5-.31h-1.01Zm3.2,3.74c.07-.54,.11-1,.12-1.4h-1.8c.45,.35,.84,.72,1.17,1.1l-.54,.3h1.04Zm.17-2.42c0-.27,.01-.71,.01-1.32h-1.74c.44,.35,.82,.71,1.14,1.07l-.46,.25h1.05Z"/>
    <path class="cls-1" d="M28.09,18.55v1.26h-1.59v5.29c0,.54-.14,.94-.42,1.18-.28,.24-.74,.36-1.37,.36h-1.59l-.41-1.39h2.27v-5.44h-1.09c-.42,.76-.96,1.48-1.6,2.14l-1.19-.98c.35-.37,.67-.76,.97-1.18h-1.57v6.9h-1.52v-6.53c-.47,.72-.96,1.31-1.45,1.77l-1.12-1.06c.62-.59,1.17-1.25,1.62-2,.46-.74,.79-1.54,1-2.38l1.49,.2c-.12,.57-.34,1.19-.65,1.86h2.5v.79c.53-.85,.93-1.8,1.19-2.84l1.56,.18c-.16,.65-.36,1.27-.61,1.87h3.58Z"/>
  </g>
</svg>